<svg id="SVGRoot" width="200px" height="115px" version="1.1" viewBox="0 0 200 115" xmlns="http://www.w3.org/2000/svg">
 <defs>
  <clipPath id="_clipPath_7C8yofCPyIOyD0NQ5IxuDpIh5YpgBlJi">
   <rect width="267" height="534"/>
  </clipPath>
 </defs>
 <g transform="matrix(1.3333 0 0 1.3333 -102.15 -127)" clip-path="url(#_clipPath_7C8yofCPyIOyD0NQ5IxuDpIh5YpgBlJi)" style="isolation:isolate">
  <path d="m98.093 95.967h110.54c5.1704 0 9.3678 4.1974 9.3678 9.3678v66.199c0 5.1704-4.1974 9.3678-9.3678 9.3678h-110.54c-5.1704 0-9.3678-4.1974-9.3678-9.3678v-16.55l-11.186-16.063 11.186-17.036v-16.55c0-5.1704 4.1974-9.3678 9.3678-9.3678z" fill="#141414"/>
 </g>
 <g transform="translate(-3.6899 -97.514)" fill="#fff" style="isolation:isolate" aria-label="Recovery passphrases ">
  <path d="m153.38 191.08-1.4773 0.0909q-0.0379-0.18939-0.16288-0.34091-0.125-0.1553-0.32954-0.24621-0.20076-0.0947-0.48106-0.0947-0.375 0-0.63258 0.15909-0.25758 0.1553-0.25758 0.41666 0 0.20834 0.16667 0.35228t0.57197 0.23106l1.053 0.21212q0.84849 0.17424 1.2652 0.5606 0.41667 0.38637 0.41667 1.0152 0 0.57196-0.33712 1.0038-0.33334 0.43182-0.91667 0.67425-0.57954 0.23863-1.3371 0.23863-1.1553 0-1.8409-0.48106-0.68182-0.48485-0.79924-1.3182l1.5871-0.0833q0.072 0.35227 0.34848 0.53787 0.27652 0.18182 0.70834 0.18182 0.42424 0 0.68182-0.16288 0.26136-0.16666 0.26515-0.42803-4e-3 -0.21969-0.18561-0.35984-0.18182-0.14394-0.5606-0.2197l-1.0076-0.20076q-0.85227-0.17045-1.2689-0.59091-0.41288-0.42045-0.41288-1.072 0-0.5606 0.30303-0.96591 0.30682-0.4053 0.85985-0.625 0.55682-0.21969 1.303-0.21969 1.1023 0 1.7348 0.46591 0.63636 0.4659 0.74242 1.2689zm-8.5644 4.2727q-0.89773 0-1.5454-0.36363-0.64394-0.36743-0.99243-1.0379-0.34848-0.67425-0.34848-1.5947 0-0.89773 0.34848-1.5758 0.34849-0.67803 0.98106-1.0568 0.63637-0.37878 1.4924-0.37878 0.57575 0 1.072 0.1856 0.5 0.18182 0.87121 0.54924 0.375 0.36743 0.58333 0.92425 0.20833 0.55303 0.20833 1.2954v0.44318h-4.9129v-1h3.3939q0-0.34848-0.15151-0.61742-0.15152-0.26894-0.42045-0.42046-0.26516-0.1553-0.61743-0.1553-0.36742 0-0.65151 0.17046-0.28031 0.16666-0.4394 0.45075-0.15909 0.28031-0.16288 0.625v0.95076q0 0.43182 0.15909 0.74621 0.16288 0.3144 0.45834 0.48485 0.29545 0.17046 0.70075 0.17046 0.26894 0 0.49243-0.0758 0.22348-0.0758 0.38257-0.22727 0.1591-0.15152 0.24243-0.37122l1.4924 0.0985q-0.11363 0.53788-0.46591 0.93939-0.34848 0.39773-0.90151 0.62121-0.54924 0.2197-1.2689 0.2197zm-3.8106-4.2727-1.4773 0.0909q-0.0379-0.18939-0.16288-0.34091-0.125-0.1553-0.32954-0.24621-0.20076-0.0947-0.48106-0.0947-0.375 0-0.63258 0.15909-0.25758 0.1553-0.25758 0.41666 0 0.20834 0.16667 0.35228t0.57197 0.23106l1.053 0.21212q0.84849 0.17424 1.2652 0.5606 0.41667 0.38637 0.41667 1.0152 0 0.57196-0.33712 1.0038-0.33334 0.43182-0.91667 0.67425-0.57954 0.23863-1.3371 0.23863-1.1553 0-1.8409-0.48106-0.68182-0.48485-0.79924-1.3182l1.5871-0.0833q0.072 0.35227 0.34848 0.53787 0.27652 0.18182 0.70834 0.18182 0.42424 0 0.68182-0.16288 0.26136-0.16666 0.26515-0.42803-4e-3 -0.21969-0.18561-0.35984-0.18182-0.14394-0.5606-0.2197l-1.0076-0.20076q-0.85227-0.17045-1.2689-0.59091-0.41288-0.42045-0.41288-1.072 0-0.5606 0.30303-0.96591 0.30682-0.4053 0.85985-0.625 0.55682-0.21969 1.303-0.21969 1.1023 0 1.7348 0.46591 0.63636 0.4659 0.74242 1.2689zm-9.3693 4.2689q-0.55682 0-0.99243-0.19318-0.4356-0.19697-0.68939-0.57954-0.25-0.38637-0.25-0.96212 0-0.48485 0.17803-0.8144 0.17803-0.32954 0.48485-0.5303 0.30681-0.20076 0.69697-0.30303 0.39394-0.10227 0.82575-0.14394 0.50758-0.053 0.81819-0.0985 0.3106-0.0492 0.45075-0.14394 0.14015-0.0947 0.14015-0.2803v-0.0227q0-0.35984-0.22727-0.55681-0.22348-0.19697-0.63636-0.19697-0.43561 0-0.69318 0.19318-0.25758 0.18939-0.34091 0.47727l-1.4924-0.12121q0.11364-0.5303 0.44697-0.91667 0.33334-0.39015 0.85985-0.59848 0.5303-0.21212 1.2273-0.21212 0.48485 0 0.92803 0.11363 0.44697 0.11364 0.79167 0.35228 0.34849 0.23863 0.54924 0.61363 0.20076 0.37121 0.20076 0.89015v3.9242h-1.5303v-0.80682h-0.0455q-0.14015 0.27272-0.375 0.48106-0.23485 0.20454-0.56439 0.32197-0.32955 0.11363-0.76136 0.11363zm0.46212-1.1136q0.35606 0 0.62878-0.14015 0.27273-0.14394 0.42803-0.38637 0.15531-0.24242 0.15531-0.54924v-0.61742q-0.0758 0.0492-0.20834 0.0909-0.12878 0.0379-0.29166 0.072-0.16288 0.0303-0.32576 0.0568-0.16288 0.0227-0.29545 0.0417-0.2841 0.0417-0.49622 0.13258-0.21212 0.0909-0.32954 0.24621-0.11743 0.15151-0.11743 0.37879 0 0.32954 0.23864 0.50378 0.24242 0.17046 0.61364 0.17046zm-6.4754 1.0038v-5.8182h1.5644v1.0152h0.0606q0.15909-0.54167 0.53409-0.81819 0.375-0.2803 0.86364-0.2803 0.12121 0 0.26136 0.0152 0.14015 0.0151 0.24621 0.0417v1.4318q-0.11363-0.0341-0.31439-0.0606t-0.36742-0.0265q-0.35607 0-0.63637 0.1553-0.27651 0.15151-0.43939 0.42424-0.15909 0.27273-0.15909 0.62879v3.2917zm-5.053-3.3636v3.3636h-1.6136v-7.7576h1.5682v2.9659h0.0682q0.19697-0.51515 0.63637-0.80682 0.43939-0.29545 1.1023-0.29545 0.60606 0 1.0568 0.26515 0.45454 0.26136 0.70454 0.75379 0.25379 0.48863 0.25 1.1704v3.7046h-1.6136v-3.4167q4e-3 -0.53788-0.27273-0.83712-0.27273-0.29924-0.76515-0.29924-0.32955 0-0.58334 0.14015-0.25 0.14015-0.39394 0.40909-0.14015 0.26515-0.14394 0.64015zm-8.3636 5.5454v-8h1.5909v0.97728h0.072q0.10606-0.23485 0.30682-0.47728 0.20454-0.24621 0.5303-0.40909 0.32954-0.16666 0.81818-0.16666 0.63636 0 1.1742 0.33333 0.53788 0.32954 0.85985 0.99621 0.32197 0.66288 0.32197 1.6629 0 0.97349-0.31439 1.6439-0.31061 0.66667-0.84849 1.0114-0.53409 0.34091-1.197 0.34091-0.46969 0-0.79924-0.1553-0.32576-0.1553-0.53409-0.39015-0.20833-0.23864-0.31818-0.48106h-0.0493v3.1136zm1.5795-5.0909q0 0.51894 0.14394 0.90531 0.14394 0.38636 0.41667 0.60227 0.27273 0.21212 0.66288 0.21212 0.39394 0 0.66667-0.21591 0.27272-0.21969 0.41287-0.60606 0.14394-0.39015 0.14394-0.89773 0-0.50378-0.14015-0.88636-0.14015-0.38257-0.41288-0.59848-0.27272-0.21591-0.67045-0.21591-0.39394 0-0.66667 0.20833-0.26894 0.20833-0.41288 0.59091t-0.14394 0.90151zm-2.7386-1.25-1.4773 0.0909q-0.0379-0.18939-0.16288-0.34091-0.125-0.1553-0.32955-0.24621-0.20076-0.0947-0.48106-0.0947-0.375 0-0.63258 0.15909-0.25757 0.1553-0.25757 0.41666 0 0.20834 0.16667 0.35228 0.16666 0.14394 0.57196 0.23106l1.053 0.21212q0.84848 0.17424 1.2652 0.5606 0.41666 0.38637 0.41666 1.0152 0 0.57196-0.33712 1.0038-0.33333 0.43182-0.91666 0.67425-0.57955 0.23863-1.3371 0.23863-1.1553 0-1.8409-0.48106-0.68182-0.48485-0.79925-1.3182l1.5871-0.0833q0.072 0.35227 0.34849 0.53787 0.27651 0.18182 0.70833 0.18182 0.42424 0 0.68182-0.16288 0.26136-0.16666 0.26515-0.42803-4e-3 -0.21969-0.1856-0.35984-0.18182-0.14394-0.56061-0.2197l-1.0076-0.20076q-0.85227-0.17045-1.2689-0.59091-0.41287-0.42045-0.41287-1.072 0-0.5606 0.30303-0.96591 0.30681-0.4053 0.85984-0.625 0.55682-0.21969 1.303-0.21969 1.1023 0 1.7348 0.46591 0.63637 0.4659 0.74243 1.2689zm-6 0-1.4773 0.0909q-0.0379-0.18939-0.16288-0.34091-0.125-0.1553-0.32955-0.24621-0.20076-0.0947-0.48106-0.0947-0.375 0-0.63258 0.15909-0.25757 0.1553-0.25757 0.41666 0 0.20834 0.16667 0.35228 0.16666 0.14394 0.57196 0.23106l1.053 0.21212q0.84848 0.17424 1.2652 0.5606 0.41666 0.38637 0.41666 1.0152 0 0.57196-0.33712 1.0038-0.33333 0.43182-0.91666 0.67425-0.57955 0.23863-1.3371 0.23863-1.1553 0-1.8409-0.48106-0.68182-0.48485-0.79925-1.3182l1.5871-0.0833q0.072 0.35227 0.34849 0.53787 0.27651 0.18182 0.70833 0.18182 0.42424 0 0.68182-0.16288 0.26136-0.16666 0.26515-0.42803-4e-3 -0.21969-0.1856-0.35984-0.18182-0.14394-0.56061-0.2197l-1.0076-0.20076q-0.85227-0.17045-1.2689-0.59091-0.41287-0.42045-0.41287-1.072 0-0.5606 0.30303-0.96591 0.30681-0.4053 0.85984-0.625 0.55682-0.21969 1.303-0.21969 1.1023 0 1.7348 0.46591 0.63637 0.4659 0.74243 1.2689zm-9.3693 4.2689q-0.55682 0-0.99242-0.19318-0.43561-0.19697-0.68939-0.57954-0.25-0.38637-0.25-0.96212 0-0.48485 0.17803-0.8144 0.17803-0.32954 0.48485-0.5303t0.69697-0.30303q0.39394-0.10227 0.82576-0.14394 0.50758-0.053 0.81818-0.0985 0.31061-0.0492 0.45076-0.14394 0.14015-0.0947 0.14015-0.2803v-0.0227q0-0.35984-0.22727-0.55681-0.22348-0.19697-0.63636-0.19697-0.43561 0-0.69318 0.19318-0.25758 0.18939-0.34091 0.47727l-1.4924-0.12121q0.11364-0.5303 0.44697-0.91667 0.33333-0.39015 0.85985-0.59848 0.5303-0.21212 1.2273-0.21212 0.48485 0 0.92803 0.11363 0.44697 0.11364 0.79167 0.35228 0.34848 0.23863 0.54924 0.61363 0.20076 0.37121 0.20076 0.89015v3.9242h-1.5303v-0.80682h-0.04545q-0.14015 0.27272-0.375 0.48106-0.23485 0.20454-0.56439 0.32197-0.32954 0.11363-0.76136 0.11363zm0.46212-1.1136q0.35606 0 0.62879-0.14015 0.27273-0.14394 0.42803-0.38637 0.1553-0.24242 0.1553-0.54924v-0.61742q-0.07576 0.0492-0.20833 0.0909-0.12879 0.0379-0.29167 0.072-0.16288 0.0303-0.32576 0.0568-0.16288 0.0227-0.29545 0.0417-0.28409 0.0417-0.49621 0.13258-0.21212 0.0909-0.32954 0.24621-0.11742 0.15151-0.11742 0.37879 0 0.32954 0.23864 0.50378 0.24242 0.17046 0.61364 0.17046zm-8.8712 3.1856v-8h1.5909v0.97728h0.07197q0.10606-0.23485 0.30682-0.47728 0.20455-0.24621 0.5303-0.40909 0.32955-0.16666 0.81818-0.16666 0.63636 0 1.1742 0.33333 0.53788 0.32954 0.85985 0.99621 0.32197 0.66288 0.32197 1.6629 0 0.97349-0.31439 1.6439-0.31061 0.66667-0.84848 1.0114-0.53409 0.34091-1.197 0.34091-0.4697 0-0.79924-0.1553-0.32576-0.1553-0.53409-0.39015-0.20833-0.23864-0.31818-0.48106h-0.04924v3.1136zm1.5795-5.0909q0 0.51894 0.14394 0.90531 0.14394 0.38636 0.41667 0.60227 0.27273 0.21212 0.66288 0.21212 0.39394 0 0.66667-0.21591 0.27273-0.21969 0.41288-0.60606 0.14394-0.39015 0.14394-0.89773 0-0.50378-0.14015-0.88636-0.14015-0.38257-0.41288-0.59848-0.27273-0.21591-0.67045-0.21591-0.39394 0-0.66667 0.20833-0.26894 0.20833-0.41288 0.59091-0.14394 0.38258-0.14394 0.90151zm-9.3125 5.0796q-0.30682 0-0.57576-0.0492-0.26515-0.0455-0.43939-0.11364l0.36364-1.2083q0.42803 0.13257 0.7197 0.0682 0.29546-0.0606 0.46591-0.45455l0.0947-0.24621-2.0871-5.9848h1.697l1.2045 4.2727h0.06061l1.2159-4.2727 1.7083 8e-3 -2.2614 6.4394q-0.16288 0.46591-0.44318 0.81061-0.27652 0.34848-0.70076 0.53788-0.42424 0.19318-1.0227 0.19318zm-5.5379-2.1704v-5.8182h1.5644v1.0152h0.06061q0.15909-0.54167 0.53409-0.81819 0.375-0.2803 0.86364-0.2803 0.12121 0 0.26136 0.0152 0.14015 0.0151 0.24621 0.0417v1.4318q-0.11364-0.0341-0.31439-0.0606-0.20076-0.0265-0.36742-0.0265-0.35606 0-0.63636 0.1553-0.27652 0.15151-0.43939 0.42424-0.15909 0.27273-0.15909 0.62879v3.2917zm-3.7235 0.11363q-0.89773 0-1.5455-0.36363-0.64394-0.36743-0.99242-1.0379-0.34848-0.67425-0.34848-1.5947 0-0.89773 0.34848-1.5758t0.98106-1.0568q0.63636-0.37878 1.4924-0.37878 0.57576 0 1.072 0.1856 0.5 0.18182 0.87121 0.54924 0.375 0.36743 0.58333 0.92425 0.20833 0.55303 0.20833 1.2954v0.44318h-4.9129v-1h3.3939q0-0.34848-0.15152-0.61742-0.15152-0.26894-0.42046-0.42046-0.26515-0.1553-0.61742-0.1553-0.36742 0-0.65152 0.17046-0.2803 0.16666-0.43939 0.45075-0.15909 0.28031-0.16288 0.625v0.95076q0 0.43182 0.15909 0.74621 0.16288 0.3144 0.45833 0.48485 0.29546 0.17046 0.70076 0.17046 0.26894 0 0.49242-0.0758t0.38258-0.22727q0.15909-0.15152 0.24242-0.37122l1.4924 0.0985q-0.11364 0.53788-0.46591 0.93939-0.34848 0.39773-0.90152 0.62121-0.54924 0.2197-1.2689 0.2197zm-3.2689-5.9318-2.0341 5.8182h-1.8182l-2.0341-5.8182h1.7045l1.2083 4.1629h0.06061l1.2045-4.1629zm-9.1288 5.9318q-0.88258 0-1.5265-0.375-0.64015-0.37879-0.98864-1.053-0.34848-0.67803-0.34848-1.572 0-0.90151 0.34848-1.5758 0.34848-0.67803 0.98864-1.053 0.64394-0.37878 1.5265-0.37878 0.88258 0 1.5227 0.37878 0.64394 0.375 0.99242 1.053 0.34848 0.67425 0.34848 1.5758 0 0.89394-0.34848 1.572-0.34848 0.67424-0.99242 1.053-0.64015 0.375-1.5227 0.375zm0.0076-1.25q0.40152 0 0.67046-0.22727 0.26894-0.23106 0.4053-0.62879 0.14015-0.39773 0.14015-0.9053 0-0.50758-0.14015-0.9053-0.13636-0.39773-0.4053-0.62879-0.26894-0.23106-0.67046-0.23106-0.4053 0-0.68182 0.23106-0.27273 0.23106-0.41288 0.62879-0.13636 0.39772-0.13636 0.9053 0 0.50757 0.13636 0.9053 0.14015 0.39773 0.41288 0.62879 0.27652 0.22727 0.68182 0.22727zm-6.2784 1.25q-0.89394 0-1.5379-0.37879-0.64015-0.38257-0.98485-1.0606-0.34091-0.67803-0.34091-1.5606 0-0.89394 0.3447-1.5682 0.34848-0.67803 0.98864-1.0568 0.64015-0.38257 1.5227-0.38257 0.76136 0 1.3333 0.27651 0.57197 0.27652 0.9053 0.77652t0.36742 1.1742h-1.5227q-0.06439-0.43561-0.34091-0.70076-0.27273-0.26894-0.71591-0.26894-0.375 0-0.6553 0.20455-0.27652 0.20075-0.43182 0.58712-0.1553 0.38636-0.1553 0.9356 0 0.55682 0.15152 0.94697 0.1553 0.39016 0.43561 0.5947 0.2803 0.20455 0.6553 0.20455 0.27652 0 0.49621-0.11364 0.22348-0.11364 0.36742-0.32955 0.14773-0.21969 0.19318-0.52651h1.5227q-0.03788 0.66667-0.36364 1.1742-0.32197 0.50379-0.89015 0.78788-0.56818 0.28409-1.3447 0.28409zm-6.3523 0q-0.89773 0-1.5455-0.36363-0.64394-0.36743-0.99242-1.0379-0.34848-0.67425-0.34848-1.5947 0-0.89773 0.34848-1.5758t0.98106-1.0568q0.63636-0.37878 1.4924-0.37878 0.57576 0 1.072 0.1856 0.5 0.18182 0.87121 0.54924 0.375 0.36743 0.58333 0.92425 0.20833 0.55303 0.20833 1.2954v0.44318h-4.9129v-1h3.3939q0-0.34848-0.15152-0.61742t-0.42046-0.42046q-0.26515-0.1553-0.61742-0.1553-0.36742 0-0.65152 0.17046-0.2803 0.16666-0.43939 0.45075-0.15909 0.28031-0.16288 0.625v0.95076q0 0.43182 0.15909 0.74621 0.16288 0.3144 0.45833 0.48485 0.29546 0.17046 0.70076 0.17046 0.26894 0 0.49242-0.0758t0.38258-0.22727q0.15909-0.15152 0.24242-0.37122l1.4924 0.0985q-0.11364 0.53788-0.46591 0.93939-0.34848 0.39773-0.90152 0.62121-0.54924 0.2197-1.2689 0.2197zm-9.5587-0.11363v-7.7576h3.0606q0.87879 0 1.5 0.31439 0.625 0.31061 0.95076 0.88258 0.32955 0.56818 0.32955 1.3371 0 0.77273-0.33333 1.3296-0.33333 0.55303-0.96591 0.84848-0.62879 0.29546-1.5227 0.29546h-2.0492v-1.3182h1.7841q0.4697 0 0.7803-0.12878 0.31061-0.12879 0.46212-0.38637 0.1553-0.25757 0.1553-0.64015 0-0.38636-0.1553-0.65151-0.15152-0.26516-0.46591-0.40152-0.31061-0.14015-0.78409-0.14015h-1.1061v6.4167zm4.1894-3.5303 1.928 3.5303h-1.8106l-1.8864-3.5303zm62.786-21.231q-0.89773 0-1.5454-0.36363-0.64394-0.36743-0.99243-1.0379-0.34848-0.67426-0.34848-1.5947 0-0.89774 0.34848-1.5758 0.34849-0.67804 0.98106-1.0568 0.63637-0.37879 1.4924-0.37879 0.57576 0 1.072 0.18561 0.5 0.18181 0.87121 0.54924 0.375 0.36743 0.58333 0.92424 0.20834 0.55304 0.20834 1.2955v0.44317h-4.9129v-1h3.3939q0-0.34848-0.15152-0.61741-0.15151-0.26894-0.42045-0.42046-0.26515-0.1553-0.61743-0.1553-0.36742 0-0.65151 0.17045-0.28031 0.16666-0.4394 0.45075-0.15909 0.28031-0.16288 0.625v0.95076q0 0.43182 0.1591 0.74621 0.16287 0.3144 0.45833 0.48485 0.29545 0.17046 0.70076 0.17046 0.26894 0 0.49242-0.0758 0.22349-0.0758 0.38258-0.22727 0.15909-0.15152 0.24242-0.37122l1.4924 0.0985q-0.11364 0.53788-0.46591 0.93939-0.34849 0.39773-0.90152 0.62121-0.54924 0.2197-1.2689 0.2197zm-6.7803 2.1515q-0.78409 0-1.3447-0.21212-0.55682-0.21213-0.88636-0.57197-0.32955-0.35984-0.42803-0.79925l1.4924-0.20075q0.06818 0.15909 0.21591 0.29924 0.14773 0.14394 0.39015 0.23485 0.24621 0.0909 0.59848 0.0909 0.52652 0 0.86742-0.25 0.3447-0.25 0.3447-0.82196v-1.0644h-0.06818q-0.10606 0.24243-0.31818 0.45834-0.21212 0.2159-0.54546 0.35227-0.33333 0.13636-0.79545 0.13636-0.6553 0-1.1932-0.30303-0.53409-0.30682-0.85227-0.9356-0.31439-0.63258-0.31439-1.5985 0-0.98864 0.32197-1.6515 0.32197-0.66288 0.85606-0.99243 0.53788-0.32954 1.178-0.32954 0.48864 0 0.81818 0.16666 0.32954 0.16288 0.5303 0.40909 0.20454 0.24243 0.31439 0.47728h0.06061v-0.97728h1.6023v5.875q0 0.72728-0.36364 1.2159-0.36364 0.49243-1.0076 0.74243-0.64015 0.25-1.4735 0.25zm0.03409-3.5606q0.39015 0 0.65909-0.19318 0.27273-0.19697 0.41667-0.56061 0.14773-0.36742 0.14773-0.87878 0-0.51137-0.14394-0.88637-0.14394-0.37879-0.41667-0.58712-0.27273-0.20833-0.66288-0.20833-0.39773 0-0.67045 0.21591-0.27273 0.21212-0.41288 0.59092-0.14015 0.37878-0.14015 0.875 0 0.50378 0.14015 0.8712 0.14394 0.36363 0.41288 0.56439 0.27273 0.19697 0.67045 0.19697zm-7.1837 1.4053q-0.55682 0-0.99242-0.19319-0.43561-0.19697-0.68939-0.57954-0.25-0.38637-0.25-0.96212 0-0.48485 0.17803-0.8144 0.17803-0.32954 0.48485-0.5303t0.69697-0.30303q0.39394-0.10227 0.82576-0.14394 0.50758-0.053 0.81818-0.0985 0.31061-0.0492 0.45076-0.14394 0.14015-0.0947 0.14015-0.2803v-0.0227q0-0.35984-0.22727-0.55681-0.22348-0.19697-0.63636-0.19697-0.43561 0-0.69318 0.19318-0.25758 0.18939-0.34091 0.47728l-1.4924-0.12122q0.11364-0.5303 0.44697-0.91667 0.33333-0.39015 0.85985-0.59848 0.5303-0.21211 1.2273-0.21211 0.48485 0 0.92803 0.11363 0.44697 0.11363 0.79167 0.35228 0.34848 0.23863 0.54924 0.61363 0.20076 0.3712 0.20076 0.89015v3.9242h-1.5303v-0.80681h-0.04545q-0.14015 0.27272-0.375 0.48106-0.23485 0.20454-0.56439 0.32197-0.32954 0.11363-0.76136 0.11363zm0.46212-1.1136q0.35606 0 0.62879-0.14016 0.27273-0.14393 0.42803-0.38637 0.1553-0.24242 0.1553-0.54923v-0.61743q-0.07576 0.0492-0.20833 0.0909-0.12879 0.0379-0.29167 0.072-0.16288 0.0303-0.32576 0.0568-0.16288 0.0227-0.29545 0.0417-0.28409 0.0417-0.49621 0.13257-0.21212 0.0909-0.32954 0.24621-0.11742 0.15151-0.11742 0.37879 0 0.32954 0.23864 0.50378 0.24242 0.17046 0.61364 0.17046zm-6.4754 1.0038v-5.8182h1.5644v1.0152h0.06061q0.15909-0.54168 0.53409-0.81819 0.375-0.2803 0.86364-0.2803 0.12121 0 0.26136 0.0152 0.14015 0.0151 0.24621 0.0417v1.4318q-0.11364-0.0341-0.31439-0.0606-0.20076-0.0265-0.36742-0.0265-0.35606 0-0.63636 0.1553-0.27652 0.15151-0.43939 0.42424-0.15909 0.27272-0.15909 0.62879v3.2917zm-3.9129 0.11363q-0.88258 0-1.5265-0.375-0.64015-0.37878-0.98864-1.053-0.34848-0.67804-0.34848-1.572 0-0.9015 0.34848-1.5758 0.34848-0.67802 0.98864-1.053 0.64394-0.37879 1.5265-0.37879t1.5227 0.37879q0.64394 0.375 0.99242 1.053 0.34848 0.67426 0.34848 1.5758 0 0.89394-0.34848 1.572-0.34848 0.67424-0.99242 1.053-0.64015 0.375-1.5227 0.375zm0.0076-1.25q0.40152 0 0.67046-0.22726 0.26894-0.23107 0.4053-0.6288 0.14015-0.39772 0.14015-0.9053t-0.14015-0.9053q-0.13636-0.39773-0.4053-0.62879-0.26894-0.23106-0.67046-0.23106-0.4053 0-0.68182 0.23106-0.27273 0.23106-0.41288 0.62879-0.13636 0.39772-0.13636 0.9053 0 0.50757 0.13636 0.9053 0.14015 0.39773 0.41288 0.6288 0.27652 0.22726 0.68182 0.22726zm-3.625-4.6818v1.2121h-3.5038v-1.2121zm-2.7083-1.3939h1.6136v5.4243q0 0.22348 0.06818 0.34848 0.06818 0.1212 0.18939 0.17045 0.125 0.0492 0.28788 0.0492 0.11364 0 0.22727-0.0189 0.11364-0.0227 0.17424-0.0341l0.25379 1.2008q-0.12121 0.0379-0.34091 0.0871-0.2197 0.053-0.53409 0.0644-0.58333 0.0227-1.0227-0.1553-0.43561-0.17803-0.67803-0.55303-0.24242-0.375-0.23864-0.94697zm-1.5455 3.053-1.4773 0.0909q-0.03788-0.18939-0.16288-0.34091-0.125-0.1553-0.32954-0.24621-0.20076-0.0947-0.48106-0.0947-0.375 0-0.63258 0.15909-0.25758 0.1553-0.25758 0.41667 0 0.20833 0.16667 0.35228 0.16667 0.14394 0.57197 0.23106l1.053 0.21211q0.84848 0.17424 1.2652 0.56061 0.41667 0.38637 0.41667 1.0152 0 0.57195-0.33712 1.0038-0.33333 0.43182-0.91667 0.67425-0.57954 0.23863-1.3371 0.23863-1.1553 0-1.8409-0.48106-0.68182-0.48485-0.79924-1.3182l1.5871-0.0833q0.07197 0.35228 0.34848 0.53787 0.27652 0.18182 0.70833 0.18182 0.42424 0 0.68182-0.16288 0.26136-0.16666 0.26515-0.42803-0.0038-0.21969-0.18561-0.35984-0.18182-0.14394-0.56061-0.2197l-1.0076-0.20076q-0.85227-0.17044-1.2689-0.59091-0.41288-0.42044-0.41288-1.072 0-0.5606 0.30303-0.96591 0.30682-0.4053 0.85985-0.625 0.55682-0.21969 1.303-0.21969 1.1023 0 1.7348 0.46591 0.63636 0.4659 0.74242 1.2689zm-8.6023-3.5985v7.7576h-1.6136v-7.7576zm-6.142 7.8674q-0.55682 0-0.99242-0.19319-0.43561-0.19697-0.68939-0.57954-0.25-0.38637-0.25-0.96212 0-0.48485 0.17803-0.8144 0.17803-0.32954 0.48485-0.5303t0.69697-0.30303q0.39394-0.10227 0.82576-0.14394 0.50758-0.053 0.81818-0.0985 0.31061-0.0492 0.45076-0.14394 0.14015-0.0947 0.14015-0.2803v-0.0227q0-0.35984-0.22727-0.55681-0.22348-0.19697-0.63636-0.19697-0.43561 0-0.69318 0.19318-0.25758 0.18939-0.34091 0.47728l-1.4924-0.12122q0.11364-0.5303 0.44697-0.91667 0.33333-0.39015 0.85985-0.59848 0.5303-0.21211 1.2273-0.21211 0.48485 0 0.92803 0.11363 0.44697 0.11363 0.79167 0.35228 0.34848 0.23863 0.54924 0.61363 0.20076 0.3712 0.20076 0.89015v3.9242h-1.5303v-0.80681h-0.04545q-0.14015 0.27272-0.375 0.48106-0.23485 0.20454-0.56439 0.32197-0.32954 0.11363-0.76136 0.11363zm0.46212-1.1136q0.35606 0 0.62879-0.14016 0.27273-0.14393 0.42803-0.38637 0.1553-0.24242 0.1553-0.54923v-0.61743q-0.07576 0.0492-0.20833 0.0909-0.12879 0.0379-0.29167 0.072-0.16288 0.0303-0.32576 0.0568-0.16288 0.0227-0.29545 0.0417-0.28409 0.0417-0.49621 0.13257-0.21212 0.0909-0.32955 0.24621-0.11742 0.15151-0.11742 0.37879 0 0.32954 0.23864 0.50378 0.24242 0.17046 0.61364 0.17046zm-5.7633 1.1174q-0.89394 0-1.5379-0.37878-0.64015-0.38257-0.98485-1.0606-0.34091-0.67802-0.34091-1.5606 0-0.89394 0.3447-1.5682 0.34848-0.67804 0.98864-1.0568 0.64015-0.38257 1.5227-0.38257 0.76136 0 1.3333 0.27652t0.9053 0.77652 0.36742 1.1742h-1.5227q-0.06439-0.43561-0.34091-0.70076-0.27273-0.26894-0.71591-0.26894-0.375 0-0.6553 0.20455-0.27652 0.20075-0.43182 0.58712-0.1553 0.38636-0.1553 0.9356 0 0.55682 0.15152 0.94697 0.1553 0.39016 0.43561 0.5947 0.2803 0.20455 0.6553 0.20455 0.27652 0 0.49621-0.11364 0.22348-0.11364 0.36742-0.32956 0.14773-0.21969 0.19318-0.5265h1.5227q-0.03788 0.66667-0.36364 1.1742-0.32197 0.50379-0.89015 0.78787-0.56818 0.28409-1.3447 0.28409zm-6.5417 0q-0.88258 0-1.5265-0.375-0.64015-0.37878-0.98864-1.053-0.34848-0.67804-0.34848-1.572 0-0.9015 0.34848-1.5758 0.34848-0.67802 0.98864-1.053 0.64394-0.37879 1.5265-0.37879 0.88258 0 1.5227 0.37879 0.64394 0.375 0.99242 1.053 0.34848 0.67426 0.34848 1.5758 0 0.89394-0.34848 1.572-0.34848 0.67424-0.99242 1.053-0.64015 0.375-1.5227 0.375zm0.0076-1.25q0.40152 0 0.67046-0.22726 0.26894-0.23107 0.4053-0.6288 0.14015-0.39772 0.14015-0.9053t-0.14015-0.9053q-0.13636-0.39773-0.4053-0.62879-0.26894-0.23106-0.67046-0.23106-0.4053 0-0.68182 0.23106-0.27273 0.23106-0.41288 0.62879-0.13636 0.39772-0.13636 0.9053 0 0.50757 0.13636 0.9053 0.14015 0.39773 0.41288 0.6288 0.27652 0.22726 0.68182 0.22726zm-8.6686 1.1364v-7.7576h1.6402v6.4053h3.3258v1.3523zm142.27-54.096-1.4773 0.0909q-0.0379-0.18939-0.16287-0.34091-0.125-0.15531-0.32955-0.24621-0.20076-0.0947-0.48106-0.0947-0.375 0-0.63258 0.15909-0.25757 0.1553-0.25757 0.41666 0 0.20834 0.16666 0.35228 0.16667 0.14394 0.57197 0.23106l1.053 0.21212q0.84849 0.17424 1.2652 0.5606 0.41666 0.38637 0.41666 1.0152 0 0.57196-0.33712 1.0038-0.33333 0.43182-0.91667 0.67425-0.57954 0.23863-1.3371 0.23863-1.1553 0-1.8409-0.48106-0.68181-0.48485-0.79924-1.3182l1.5871-0.0833q0.072 0.35227 0.34849 0.53787 0.27651 0.18182 0.70833 0.18182 0.42424 0 0.68182-0.16288 0.26136-0.16667 0.26515-0.42804-4e-3 -0.21969-0.1856-0.35983-0.18182-0.14394-0.56061-0.2197l-1.0076-0.20076q-0.85227-0.17045-1.2689-0.59091-0.41287-0.42045-0.41287-1.072 0-0.5606 0.30303-0.96591 0.30681-0.40531 0.85984-0.625 0.55682-0.2197 1.303-0.2197 1.1023 0 1.7348 0.46591 0.63637 0.46591 0.74243 1.2689zm-5.7879-1.6591v1.2121h-3.5038v-1.2121zm-2.7083-1.3939h1.6136v5.4242q0 0.22348 0.0682 0.34848 0.0682 0.12121 0.18939 0.17046 0.125 0.0492 0.28788 0.0492 0.11364 0 0.22727-0.0189 0.11364-0.0227 0.17425-0.0341l0.25378 1.2008q-0.12121 0.0379-0.34091 0.0871-0.21969 0.053-0.53409 0.0644-0.58333 0.0227-1.0227-0.1553-0.43561-0.17803-0.67803-0.55303-0.24243-0.375-0.23864-0.94697zm-4.0284 7.3258q-0.89394 0-1.5379-0.37879-0.64015-0.38257-0.98485-1.0606-0.34091-0.67803-0.34091-1.5606 0-0.89394 0.3447-1.5682 0.34848-0.67803 0.98864-1.0568 0.64015-0.38257 1.5227-0.38257 0.76137 0 1.3333 0.27651 0.57197 0.27652 0.9053 0.77652t0.36742 1.1742h-1.5227q-0.0644-0.43561-0.34091-0.70076-0.27273-0.26894-0.71591-0.26894-0.375 0-0.65531 0.20455-0.27651 0.20075-0.43181 0.58712-0.15531 0.38636-0.15531 0.9356 0 0.55682 0.15152 0.94697 0.1553 0.39016 0.4356 0.5947 0.28031 0.20455 0.65531 0.20455 0.27651 0 0.49621-0.11364 0.22348-0.11364 0.36742-0.32955 0.14773-0.21969 0.19319-0.52651h1.5227q-0.0379 0.66667-0.36363 1.1742-0.32197 0.50379-0.89015 0.78788-0.56819 0.28409-1.3447 0.28409zm-5.5227-2.5909v-3.3409h1.6136v5.8182h-1.5492v-1.0568h-0.0606q-0.19697 0.51136-0.6553 0.82197-0.45455 0.31059-1.1098 0.31059-0.58334 0-1.0265-0.26515t-0.69318-0.75379q-0.24621-0.48863-0.25-1.1704v-3.7046h1.6136v3.4167q4e-3 0.51516 0.27651 0.81439 0.27273 0.29925 0.73106 0.29925 0.29167 0 0.54546-0.13257 0.25378-0.13636 0.40909-0.40151 0.15909-0.26517 0.1553-0.65531zm-8.358 2.572q-0.66287 0-1.2008-0.34091-0.53409-0.3447-0.84849-1.0114-0.3106-0.67045-0.3106-1.6439 0-1 0.32197-1.6629 0.32196-0.66667 0.85606-0.99621 0.53787-0.33333 1.178-0.33333 0.48863 0 0.81439 0.16666 0.32955 0.16288 0.5303 0.40909 0.20455 0.24243 0.31061 0.47728h0.0492v-2.9167h1.6098v7.7576h-1.5909v-0.93182h-0.0682q-0.11364 0.24242-0.32197 0.48106-0.20455 0.23485-0.53409 0.39015-0.32576 0.1553-0.79546 0.1553zm0.51137-1.2841q0.39015 0 0.65909-0.21212 0.27273-0.21591 0.41667-0.60227 0.14772-0.38637 0.14772-0.90531 0-0.51893-0.14394-0.90151t-0.41666-0.59091q-0.27273-0.20833-0.66288-0.20833-0.39773 0-0.67046 0.21591-0.27272 0.21591-0.41288 0.59848-0.14015 0.38258-0.14015 0.88636 0 0.50758 0.14015 0.89773 0.14394 0.38637 0.41288 0.60606 0.27273 0.21591 0.67046 0.21591zm-6.5682 1.303q-0.88258 0-1.5265-0.375-0.64015-0.37879-0.98863-1.053-0.34849-0.67803-0.34849-1.572 0-0.90151 0.34849-1.5758 0.34848-0.67803 0.98863-1.053 0.64394-0.37878 1.5265-0.37878 0.88257 0 1.5227 0.37878 0.64393 0.375 0.99242 1.053 0.34848 0.67425 0.34848 1.5758 0 0.89394-0.34848 1.572-0.34849 0.67424-0.99242 1.053-0.64016 0.375-1.5227 0.375zm8e-3 -1.25q0.40152 0 0.67046-0.22727 0.26894-0.23106 0.4053-0.62879 0.14015-0.39773 0.14015-0.9053 0-0.50758-0.14015-0.90531-0.13636-0.39773-0.4053-0.62879t-0.67046-0.23106q-0.4053 0-0.68181 0.23106-0.27273 0.23106-0.41288 0.62879-0.13637 0.39772-0.13637 0.90531 0 0.50756 0.13637 0.9053 0.14015 0.39773 0.41288 0.62879 0.27651 0.22727 0.68181 0.22727zm-6.8034 1.1364v-5.8182h1.5644v1.0152h0.0606q0.15909-0.54167 0.53409-0.81819 0.375-0.2803 0.86363-0.2803 0.12122 0 0.26137 0.0152 0.14015 0.0151 0.24621 0.0417v1.4318q-0.11364-0.0341-0.31439-0.0606-0.20076-0.0265-0.36743-0.0265-0.35606 0-0.63636 0.1553-0.27652 0.15151-0.4394 0.42424-0.15909 0.27273-0.15909 0.62879v3.2917zm-6.75 2.1818v-8h1.5909v0.97728h0.072q0.10606-0.23485 0.30681-0.47728 0.20455-0.24621 0.53031-0.40909 0.32954-0.16666 0.81818-0.16666 0.63636 0 1.1742 0.33333 0.53788 0.32954 0.85985 0.9962 0.32197 0.66288 0.32197 1.6629 0 0.97349-0.3144 1.6439-0.3106 0.66667-0.84848 1.0114-0.53409 0.34091-1.197 0.34091-0.4697 0-0.79924-0.1553-0.32576-0.1553-0.53409-0.39015-0.20834-0.23864-0.31818-0.48106h-0.0493v3.1136zm1.5795-5.0909q0 0.51893 0.14394 0.9053 0.14394 0.38636 0.41667 0.60227 0.27273 0.21212 0.66288 0.21212 0.39394 0 0.66666-0.21591 0.27273-0.21969 0.41288-0.60606 0.14394-0.39015 0.14394-0.89773 0-0.50378-0.14015-0.88636-0.14015-0.38257-0.41288-0.59848t-0.67045-0.21591q-0.39394 0-0.66667 0.20833-0.26894 0.20833-0.41288 0.59091t-0.14394 0.90152zm-5.0341-2.9091v1.2121h-3.5909v-1.2121zm-2.7689 5.8182v-6.2386q0-0.63257 0.24621-1.0492 0.25-0.41667 0.68182-0.625t0.98106-0.20833q0.37121 0 0.67803 0.0568 0.31061 0.0568 0.46212 0.10227l-0.28788 1.2121q-0.0947-0.0303-0.23485-0.0568-0.13636-0.0265-0.2803-0.0265-0.35606 0-0.49621 0.16667-0.14015 0.16288-0.14015 0.45833v6.2083zm-4.2727 0.11363q-0.88257 0-1.5265-0.375-0.64015-0.37879-0.98864-1.053-0.34848-0.67803-0.34848-1.572 0-0.90151 0.34848-1.5758 0.34849-0.67803 0.98864-1.053 0.64394-0.37878 1.5265-0.37878 0.88258 0 1.5227 0.37878 0.64394 0.375 0.99243 1.053 0.34848 0.67425 0.34848 1.5758 0 0.89394-0.34848 1.572-0.34849 0.67424-0.99243 1.053-0.64015 0.375-1.5227 0.375zm8e-3 -1.25q0.40152 0 0.67045-0.22727 0.26894-0.23106 0.40531-0.62879 0.14015-0.39773 0.14015-0.9053 0-0.50758-0.14015-0.90531-0.13637-0.39773-0.40531-0.62879-0.26893-0.23106-0.67045-0.23106-0.4053 0-0.68182 0.23106-0.27273 0.23106-0.41288 0.62879-0.13636 0.39772-0.13636 0.90531 0 0.50756 0.13636 0.9053 0.14015 0.39773 0.41288 0.62879 0.27652 0.22727 0.68182 0.22727zm-6.275-3.0227-1.4773 0.0909q-0.0379-0.18939-0.16288-0.34091-0.125-0.15531-0.32954-0.24621-0.20076-0.0947-0.48106-0.0947-0.375 0-0.63258 0.15909-0.25758 0.1553-0.25758 0.41666 0 0.20834 0.16667 0.35228t0.57197 0.23106l1.053 0.21212q0.84849 0.17424 1.2652 0.5606 0.41667 0.38637 0.41667 1.0152 0 0.57196-0.33712 1.0038-0.33334 0.43182-0.91667 0.67425-0.57954 0.23863-1.3371 0.23863-1.1553 0-1.8409-0.48106-0.68182-0.48485-0.79924-1.3182l1.5871-0.0833q0.072 0.35227 0.34848 0.53787 0.27652 0.18182 0.70834 0.18182 0.42424 0 0.68182-0.16288 0.26136-0.16667 0.26515-0.42804-4e-3 -0.21969-0.18561-0.35983-0.18182-0.14394-0.5606-0.2197l-1.0076-0.20076q-0.85227-0.17045-1.2689-0.59091-0.41288-0.42045-0.41288-1.072 0-0.5606 0.30303-0.96591 0.30682-0.40531 0.85985-0.625 0.55682-0.2197 1.303-0.2197 1.1023 0 1.7348 0.46591 0.63636 0.46591 0.74242 1.2689zm-9.4678 4.2538q-0.66288 0-1.2008-0.34091-0.53409-0.3447-0.84849-1.0114-0.3106-0.67045-0.3106-1.6439 0-1 0.32197-1.6629 0.32197-0.66667 0.85606-0.99621 0.53788-0.33333 1.178-0.33333 0.48863 0 0.81439 0.16666 0.32955 0.16288 0.5303 0.40909 0.20455 0.24243 0.31061 0.47728h0.0492v-2.9167h1.6098v7.7576h-1.5909v-0.93182h-0.0682q-0.11364 0.24242-0.32197 0.48106-0.20454 0.23485-0.53409 0.39015-0.32576 0.1553-0.79545 0.1553zm0.51136-1.2841q0.39015 0 0.65909-0.21212 0.27273-0.21591 0.41667-0.60227 0.14772-0.38637 0.14772-0.90531 0-0.51893-0.14394-0.90151-0.14393-0.38258-0.41666-0.59091t-0.66288-0.20833q-0.39773 0-0.67046 0.21591-0.27272 0.21591-0.41287 0.59848-0.14016 0.38258-0.14016 0.88636 0 0.50758 0.14016 0.89773 0.14394 0.38637 0.41287 0.60606 0.27273 0.21591 0.67046 0.21591zm-7.6667-2.1742v3.3636h-1.6136v-5.8182h1.5379v1.0265h0.06818q0.19318-0.50758 0.64773-0.80303 0.45455-0.29924 1.1023-0.29924 0.60606 0 1.0568 0.26515t0.70076 0.75757q0.25 0.48864 0.25 1.1667v3.7046h-1.6136v-3.4167q4e-3 -0.53409-0.27272-0.83333-0.27652-0.30303-0.76137-0.30303-0.32576 0-0.57576 0.14015-0.24621 0.14015-0.38636 0.40909-0.13636 0.26515-0.14015 0.64015zm-6.142 3.4735q-0.55682 0-0.99242-0.19318-0.43561-0.19697-0.68939-0.57955-0.25-0.38637-0.25-0.96211 0-0.48485 0.17803-0.81441 0.17803-0.32954 0.48485-0.5303t0.69697-0.30303q0.39394-0.10227 0.82576-0.14394 0.50758-0.053 0.81818-0.0985 0.31061-0.0492 0.45076-0.14393 0.14015-0.0947 0.14015-0.28031v-0.0227q0-0.35984-0.22727-0.55682-0.22348-0.19697-0.63636-0.19697-0.43561 0-0.69318 0.19319-0.25758 0.18939-0.34091 0.47727l-1.4924-0.12121q0.11364-0.5303 0.44697-0.91667 0.33333-0.39015 0.85985-0.59848 0.5303-0.21212 1.2273-0.21212 0.48485 0 0.92803 0.11363 0.44697 0.11364 0.79167 0.35228 0.34848 0.23863 0.54924 0.61363 0.20076 0.37121 0.20076 0.89015v3.9242h-1.5303v-0.80682h-0.04545q-0.14015 0.27272-0.375 0.48106-0.23485 0.20454-0.56439 0.32197-0.32954 0.11363-0.76136 0.11363zm0.46212-1.1136q0.35606 0 0.62879-0.14015 0.27273-0.14394 0.42803-0.38637 0.1553-0.24242 0.1553-0.54924v-0.61742q-0.07576 0.0492-0.20833 0.0909-0.12879 0.0379-0.29167 0.072-0.16288 0.0303-0.32576 0.0568-0.16288 0.0227-0.29545 0.0417-0.28409 0.0417-0.49621 0.13258-0.21212 0.0909-0.32954 0.2462-0.11742 0.15151-0.11742 0.3788 0 0.32954 0.23864 0.50378 0.24242 0.17046 0.61364 0.17046zm-3.2803-3.1553-1.4773 0.0909q-0.03788-0.18939-0.16288-0.34091-0.125-0.15531-0.32954-0.24621-0.20076-0.0947-0.48106-0.0947-0.375 0-0.63258 0.15909-0.25758 0.1553-0.25758 0.41666 0 0.20834 0.16667 0.35228t0.57197 0.23106l1.053 0.21212q0.84848 0.17424 1.2652 0.5606 0.41667 0.38637 0.41667 1.0152 0 0.57196-0.33712 1.0038-0.33333 0.43182-0.91667 0.67425-0.57954 0.23863-1.3371 0.23863-1.1553 0-1.8409-0.48106-0.68182-0.48485-0.79924-1.3182l1.5871-0.0833q0.07197 0.35227 0.34848 0.53787 0.27652 0.18182 0.70833 0.18182 0.42424 0 0.68182-0.16288 0.26136-0.16667 0.26515-0.42804-0.0038-0.21969-0.18561-0.35983-0.18182-0.14394-0.56061-0.2197l-1.0076-0.20076q-0.85227-0.17045-1.2689-0.59091-0.41288-0.42045-0.41288-1.072 0-0.5606 0.30303-0.96591 0.30682-0.40531 0.85985-0.625 0.55682-0.2197 1.303-0.2197 1.1023 0 1.7348 0.46591 0.63636 0.46591 0.74242 1.2689zm-7.7348 1.6818v-3.3409h1.6136v5.8182h-1.5492v-1.0568h-0.06061q-0.19697 0.51136-0.6553 0.82197-0.45455 0.31059-1.1098 0.31059-0.58333 0-1.0265-0.26515t-0.69318-0.75379q-0.24621-0.48863-0.25-1.1704v-3.7046h1.6136v3.4167q0.0038 0.51516 0.27652 0.81439 0.27273 0.29925 0.73106 0.29925 0.29167 0 0.54545-0.13257 0.25379-0.13636 0.40909-0.40151 0.15909-0.26517 0.1553-0.65531zm-7.6439 2.5909q-0.88258 0-1.5265-0.375-0.64015-0.37879-0.98864-1.053-0.34848-0.67803-0.34848-1.572 0-0.90151 0.34848-1.5758 0.34848-0.67803 0.98864-1.053 0.64394-0.37878 1.5265-0.37878 0.88258 0 1.5227 0.37878 0.64394 0.375 0.99242 1.053 0.34848 0.67425 0.34848 1.5758 0 0.89394-0.34848 1.572-0.34848 0.67424-0.99242 1.053-0.64015 0.375-1.5227 0.375zm0.0076-1.25q0.40152 0 0.67046-0.22727 0.26894-0.23106 0.4053-0.62879 0.14015-0.39773 0.14015-0.9053 0-0.50758-0.14015-0.90531-0.13636-0.39773-0.4053-0.62879-0.26894-0.23106-0.67046-0.23106-0.4053 0-0.68182 0.23106-0.27273 0.23106-0.41288 0.62879-0.13636 0.39772-0.13636 0.90531 0 0.50756 0.13636 0.9053 0.14015 0.39773 0.41288 0.62879 0.27652 0.22727 0.68182 0.22727zm-7.6894-2.2273v3.3636h-1.6136v-7.7576h1.5682v2.9659h0.06818q0.19697-0.51515 0.63636-0.80682 0.43939-0.29545 1.1023-0.29545 0.60606 0 1.0568 0.26515 0.45454 0.26136 0.70454 0.75379 0.25379 0.48863 0.25 1.1704v3.7046h-1.6136v-3.4167q0.0038-0.53788-0.27273-0.83712-0.27273-0.29924-0.76515-0.29924-0.32955 0-0.58333 0.14015-0.25 0.14015-0.39394 0.40909-0.14015 0.26515-0.14394 0.64015zm-2.7898-2.4546v1.2121h-3.5038v-1.2121zm-2.7083-1.3939h1.6136v5.4242q0 0.22348 0.06818 0.34848 0.06818 0.12121 0.18939 0.17046 0.125 0.0492 0.28788 0.0492 0.11364 0 0.22727-0.0189 0.11364-0.0227 0.17424-0.0341l0.25379 1.2008q-0.12121 0.0379-0.34091 0.0871-0.2197 0.053-0.53409 0.0644-0.58333 0.0227-1.0227-0.1553-0.43561-0.17803-0.67803-0.55303-0.24242-0.375-0.23864-0.94697zm-7.4924 7.3068q-0.66288 0-1.2008-0.34091-0.53409-0.3447-0.84848-1.0114-0.31061-0.67045-0.31061-1.6439 0-1 0.32197-1.6629 0.32197-0.66667 0.85606-0.99621 0.53788-0.33333 1.178-0.33333 0.48864 0 0.81439 0.16666 0.32954 0.16288 0.5303 0.40909 0.20454 0.24243 0.31061 0.47728h0.04924v-2.9167h1.6098v7.7576h-1.5909v-0.93182h-0.06818q-0.11364 0.24242-0.32197 0.48106-0.20454 0.23485-0.53409 0.39015-0.32576 0.1553-0.79545 0.1553zm0.51136-1.2841q0.39015 0 0.65909-0.21212 0.27273-0.21591 0.41667-0.60227 0.14773-0.38637 0.14773-0.90531 0-0.51893-0.14394-0.90151t-0.41667-0.59091q-0.27273-0.20833-0.66288-0.20833-0.39773 0-0.67046 0.21591t-0.41288 0.59848q-0.14015 0.38258-0.14015 0.88636 0 0.50758 0.14015 0.89773 0.14394 0.38637 0.41288 0.60606 0.27273 0.21591 0.67046 0.21591zm-7.6667-2.1742v3.3636h-1.6136v-5.8182h1.5379v1.0265h0.06818q0.19318-0.50758 0.64773-0.80303 0.45455-0.29924 1.1023-0.29924 0.60606 0 1.0568 0.26515 0.45076 0.26515 0.70076 0.75757 0.25 0.48864 0.25 1.1667v3.7046h-1.6136v-3.4167q0.0038-0.53409-0.27273-0.83333-0.27652-0.30303-0.76136-0.30303-0.32576 0-0.57576 0.14015-0.24621 0.14015-0.38636 0.40909-0.13636 0.26515-0.14015 0.64015zm-4.5095 3.3636v-5.8182h1.6136v5.8182zm0.81439-6.5682q-0.35985 0-0.61742-0.23863-0.25758-0.23864-0.25758-0.57576t0.25758-0.57576q0.25758-0.24242 0.61364-0.24242 0.36364 0 0.61742 0.23863 0.25758 0.23864 0.25758 0.57576t-0.25758 0.57955q-0.25379 0.23863-0.61364 0.23863zm-7.0133 6.5682v-7.7576h5.1364v1.3523h-3.4962v1.8485h3.1553v1.3523h-3.1553v3.2046zm103.81 21.259-1.4773 0.0909q-0.0379-0.18939-0.16288-0.34091-0.125-0.1553-0.32954-0.24621-0.20076-0.0947-0.48106-0.0947-0.375 0-0.63258 0.15909-0.25758 0.1553-0.25758 0.41666 0 0.20834 0.16667 0.35228t0.57197 0.23106l1.053 0.21212q0.84849 0.17424 1.2652 0.5606 0.41667 0.38637 0.41667 1.0152 0 0.57196-0.33712 1.0038-0.33334 0.43182-0.91667 0.67425-0.57954 0.23863-1.3371 0.23863-1.1553 0-1.8409-0.48106-0.68182-0.48485-0.79924-1.3182l1.5871-0.0833q0.072 0.35227 0.34848 0.53787 0.27652 0.18181 0.70834 0.18181 0.42424 0 0.68182-0.16288 0.26136-0.16666 0.26515-0.42803-4e-3 -0.21969-0.18561-0.35984-0.18182-0.14393-0.5606-0.21969l-1.0076-0.20077q-0.85227-0.17044-1.2689-0.59091-0.41288-0.42044-0.41288-1.072 0-0.56059 0.30303-0.96591 0.30682-0.4053 0.85985-0.625 0.55682-0.21969 1.303-0.21969 1.1023 0 1.7348 0.46591 0.63636 0.4659 0.74242 1.2689zm-5.7879-1.6591v1.2121h-3.5038v-1.2121zm-2.7083-1.3939h1.6136v5.4242q0 0.22348 0.0682 0.34848 0.0682 0.1212 0.1894 0.17046 0.125 0.0492 0.28787 0.0492 0.11364 0 0.22728-0.0189 0.11363-0.0227 0.17424-0.0341l0.25379 1.2008q-0.12121 0.0379-0.34091 0.0871-0.2197 0.053-0.53409 0.0644-0.58334 0.0227-1.0227-0.1553-0.43561-0.17804-0.67803-0.55304t-0.23864-0.94696zm-4.1098 7.3258q-0.89773 0-1.5455-0.36363-0.64394-0.36743-0.99242-1.0379-0.34849-0.67425-0.34849-1.5947 0-0.89773 0.34849-1.5758 0.34848-0.67803 0.98106-1.0568 0.63636-0.37878 1.4924-0.37878 0.57576 0 1.072 0.1856 0.5 0.18182 0.87121 0.54924 0.375 0.36743 0.58334 0.92425 0.20833 0.55303 0.20833 1.2954v0.44318h-4.9129v-1h3.3939q0-0.34848-0.15151-0.61742-0.15152-0.26894-0.42046-0.42046-0.26515-0.1553-0.61742-0.1553-0.36743 0-0.65152 0.17046-0.2803 0.16666-0.43939 0.45074-0.15909 0.28031-0.16288 0.625v0.95077q0 0.43181 0.15909 0.7462 0.16288 0.3144 0.45833 0.48485 0.29546 0.17046 0.70076 0.17046 0.26894 0 0.49242-0.0758 0.22349-0.0758 0.38258-0.22727 0.15909-0.15152 0.24242-0.37122l1.4924 0.0985q-0.11364 0.53788-0.46591 0.93939-0.34848 0.39773-0.90152 0.62121-0.54924 0.2197-1.2689 0.2197zm-3.8106-4.2727-1.4773 0.0909q-0.0379-0.18939-0.16288-0.34091-0.125-0.1553-0.32955-0.24621-0.20076-0.0947-0.48106-0.0947-0.375 0-0.63257 0.15909-0.25758 0.1553-0.25758 0.41666 0 0.20834 0.16667 0.35228 0.16666 0.14394 0.57197 0.23106l1.053 0.21212q0.84848 0.17424 1.2652 0.5606 0.41667 0.38637 0.41667 1.0152 0 0.57196-0.33713 1.0038-0.33333 0.43182-0.91666 0.67425-0.57955 0.23863-1.3371 0.23863-1.1553 0-1.8409-0.48106-0.68182-0.48485-0.79925-1.3182l1.5871-0.0833q0.072 0.35227 0.34848 0.53787 0.27652 0.18181 0.70833 0.18181 0.42425 0 0.68182-0.16288 0.26137-0.16666 0.26515-0.42803-4e-3 -0.21969-0.1856-0.35984-0.18182-0.14393-0.56061-0.21969l-1.0076-0.20077q-0.85228-0.17044-1.2689-0.59091-0.41288-0.42044-0.41288-1.072 0-0.56059 0.30303-0.96591 0.30682-0.4053 0.85985-0.625 0.55681-0.21969 1.303-0.21969 1.1023 0 1.7348 0.46591 0.63636 0.4659 0.74242 1.2689zm-6 0-1.4773 0.0909q-0.0379-0.18939-0.16288-0.34091-0.125-0.1553-0.32955-0.24621-0.20076-0.0947-0.48106-0.0947-0.375 0-0.63257 0.15909-0.25758 0.1553-0.25758 0.41666 0 0.20834 0.16667 0.35228 0.16666 0.14394 0.57197 0.23106l1.053 0.21212q0.84848 0.17424 1.2652 0.5606 0.41667 0.38637 0.41667 1.0152 0 0.57196-0.33713 1.0038-0.33333 0.43182-0.91666 0.67425-0.57955 0.23863-1.3371 0.23863-1.1553 0-1.8409-0.48106-0.68182-0.48485-0.79925-1.3182l1.5871-0.0833q0.072 0.35227 0.34848 0.53787 0.27652 0.18181 0.70833 0.18181 0.42425 0 0.68182-0.16288 0.26137-0.16666 0.26515-0.42803-4e-3 -0.21969-0.1856-0.35984-0.18182-0.14393-0.56061-0.21969l-1.0076-0.20077q-0.85228-0.17044-1.2689-0.59091-0.41288-0.42044-0.41288-1.072 0-0.56059 0.30303-0.96591 0.30682-0.4053 0.85985-0.625 0.55681-0.21969 1.303-0.21969 1.1023 0 1.7348 0.46591 0.63636 0.4659 0.74242 1.2689zm-9.3693 4.269q-0.55682 0-0.99242-0.19319-0.43561-0.19696-0.6894-0.57954-0.25-0.38637-0.25-0.96212 0-0.48485 0.17803-0.8144 0.17803-0.32954 0.48485-0.5303t0.69697-0.30303q0.39394-0.10227 0.82576-0.14394 0.50757-0.053 0.81818-0.0985 0.31061-0.0492 0.45076-0.14394 0.14015-0.0947 0.14015-0.2803v-0.0227q0-0.35984-0.22727-0.55681-0.22349-0.19697-0.63637-0.19697-0.4356 0-0.69318 0.19318-0.25757 0.1894-0.34091 0.47728l-1.4924-0.12121q0.11363-0.53031 0.44697-0.91667 0.33333-0.39016 0.85985-0.59848 0.5303-0.21212 1.2273-0.21212 0.48485 0 0.92803 0.11363 0.44697 0.11364 0.79167 0.35228 0.34848 0.23863 0.54924 0.61363 0.20076 0.37121 0.20076 0.89015v3.9242h-1.5303v-0.80682h-0.0455q-0.14015 0.27272-0.375 0.48106-0.23485 0.20454-0.5644 0.32197-0.32954 0.11363-0.76136 0.11363zm0.46212-1.1136q0.35606 0 0.62879-0.14015 0.27273-0.14394 0.42803-0.38637t0.1553-0.54924v-0.61743q-0.0757 0.0492-0.20833 0.0909-0.12879 0.0379-0.29167 0.072-0.16288 0.0303-0.32575 0.0568-0.16288 0.0227-0.29546 0.0417-0.28409 0.0417-0.49621 0.13257-0.21212 0.0909-0.32955 0.24621-0.11742 0.15151-0.11742 0.37879 0 0.32955 0.23864 0.50378 0.24242 0.17046 0.61363 0.17046zm-8.9545 1.0038v-5.8182h1.5644v1.0152h0.0606q0.1591-0.54167 0.5341-0.81819 0.375-0.2803 0.86363-0.2803 0.12121 0 0.26137 0.0152 0.14015 0.0151 0.24621 0.0417v1.4318q-0.11364-0.0341-0.3144-0.0606-0.20075-0.0265-0.36742-0.0265-0.35606 0-0.63636 0.1553-0.27652 0.15151-0.4394 0.42424-0.15909 0.27273-0.15909 0.62879v3.2917zm-2.8939-2.4773v-3.3409h1.6136v5.8182h-1.5492v-1.0568h-0.06061q-0.19697 0.51136-0.6553 0.82197-0.45455 0.3106-1.1098 0.3106-0.58333 0-1.0265-0.26515t-0.69318-0.75379q-0.24621-0.48863-0.25-1.1704v-3.7046h1.6136v3.4167q0.0038 0.51515 0.27652 0.81439 0.27273 0.29925 0.73106 0.29925 0.29167 0 0.54545-0.13258 0.25379-0.13636 0.40909-0.40151 0.15909-0.26516 0.1553-0.6553zm-7.6439 2.5909q-0.88258 0-1.5265-0.375-0.64015-0.37879-0.98864-1.053-0.34848-0.67803-0.34848-1.572 0-0.90151 0.34848-1.5758 0.34848-0.67803 0.98864-1.053 0.64394-0.37878 1.5265-0.37878 0.88258 0 1.5227 0.37878 0.64394 0.375 0.99242 1.053 0.34848 0.67425 0.34848 1.5758 0 0.89394-0.34848 1.572-0.34848 0.67424-0.99242 1.053-0.64015 0.375-1.5227 0.375zm0.0076-1.25q0.40152 0 0.67046-0.22727 0.26894-0.23107 0.4053-0.62879 0.14015-0.39773 0.14015-0.90531 0-0.50757-0.14015-0.9053-0.13636-0.39773-0.4053-0.62879-0.26894-0.23106-0.67046-0.23106-0.4053 0-0.68182 0.23106-0.27273 0.23106-0.41288 0.62879-0.13636 0.39772-0.13636 0.9053 0 0.50757 0.13636 0.90531 0.14015 0.39772 0.41288 0.62879 0.27652 0.22727 0.68182 0.22727zm-7.6818 3.3068q-0.30682 0-0.57576-0.0492-0.26515-0.0455-0.43939-0.11364l0.36364-1.2083q0.42803 0.13257 0.7197 0.0682 0.29546-0.0606 0.46591-0.45455l0.0947-0.24621-2.0871-5.9848h1.697l1.2045 4.2727h0.06061l1.2159-4.2727 1.7083 8e-3 -2.2614 6.4394q-0.16288 0.46591-0.44318 0.81061-0.27652 0.34847-0.70076 0.53788-0.42424 0.19318-1.0227 0.19318zm-7.1989-2.0568q-0.89773 0-1.5455-0.36363-0.64394-0.36743-0.99242-1.0379-0.34848-0.67425-0.34848-1.5947 0-0.89773 0.34848-1.5758t0.98106-1.0568q0.63636-0.37878 1.4924-0.37878 0.57576 0 1.072 0.1856 0.5 0.18182 0.87121 0.54924 0.375 0.36743 0.58333 0.92425 0.20833 0.55303 0.20833 1.2954v0.44318h-4.9129v-1h3.3939q0-0.34848-0.15152-0.61742t-0.42046-0.42046q-0.26515-0.1553-0.61742-0.1553-0.36742 0-0.65152 0.17046-0.2803 0.16666-0.43939 0.45074-0.15909 0.28031-0.16288 0.625v0.95077q0 0.43181 0.15909 0.7462 0.16288 0.3144 0.45833 0.48485 0.29546 0.17046 0.70076 0.17046 0.26894 0 0.49242-0.0758t0.38258-0.22727q0.15909-0.15152 0.24242-0.37122l1.4924 0.0985q-0.11364 0.53788-0.46591 0.93939-0.34848 0.39773-0.90152 0.62121-0.54924 0.2197-1.2689 0.2197zm-6.7803 2.1515q-0.78409 0-1.3447-0.21212-0.55682-0.21213-0.88636-0.57196-0.32955-0.35985-0.42803-0.79926l1.4924-0.20074q0.06818 0.15908 0.21591 0.29923 0.14773 0.14394 0.39015 0.23485 0.24621 0.0909 0.59848 0.0909 0.52652 0 0.86742-0.25 0.3447-0.25 0.3447-0.82196v-1.0644h-0.06818q-0.10606 0.24244-0.31818 0.45834t-0.54546 0.35227q-0.33333 0.13636-0.79545 0.13636-0.6553 0-1.1932-0.30303-0.53409-0.30682-0.85227-0.9356-0.31439-0.63257-0.31439-1.5985 0-0.98864 0.32197-1.6515 0.32197-0.66288 0.85606-0.99243 0.53788-0.32954 1.178-0.32954 0.48864 0 0.81818 0.16666 0.32954 0.16288 0.5303 0.40909 0.20454 0.24243 0.31439 0.47728h0.06061v-0.97728h1.6023v5.875q0 0.72728-0.36364 1.2159-0.36364 0.49243-1.0076 0.74243-0.64015 0.25-1.4735 0.25zm0.03409-3.5606q0.39015 0 0.65909-0.19318 0.27273-0.19697 0.41667-0.56061 0.14773-0.36742 0.14773-0.87878 0-0.51137-0.14394-0.88637-0.14394-0.37879-0.41667-0.58712-0.27273-0.20833-0.66288-0.20833-0.39773 0-0.67046 0.21592-0.27273 0.21211-0.41288 0.59091-0.14015 0.37878-0.14015 0.875 0 0.50378 0.14015 0.8712 0.14394 0.36363 0.41288 0.5644 0.27273 0.19696 0.67046 0.19696zm-7.1837 1.4053q-0.55682 0-0.99242-0.19319-0.43561-0.19696-0.68939-0.57954-0.25-0.38637-0.25-0.96212 0-0.48485 0.17803-0.8144 0.17803-0.32954 0.48485-0.5303t0.69697-0.30303q0.39394-0.10227 0.82576-0.14394 0.50758-0.053 0.81818-0.0985 0.31061-0.0492 0.45076-0.14394 0.14015-0.0947 0.14015-0.2803v-0.0227q0-0.35984-0.22727-0.55681-0.22348-0.19697-0.63636-0.19697-0.43561 0-0.69318 0.19318-0.25758 0.1894-0.34091 0.47728l-1.4924-0.12121q0.11364-0.53031 0.44697-0.91667 0.33333-0.39016 0.85985-0.59848 0.5303-0.21212 1.2273-0.21212 0.48485 0 0.92803 0.11363 0.44697 0.11364 0.79167 0.35228 0.34848 0.23863 0.54924 0.61363 0.20076 0.37121 0.20076 0.89015v3.9242h-1.5303v-0.80682h-0.04545q-0.14015 0.27272-0.375 0.48106-0.23485 0.20454-0.56439 0.32197-0.32954 0.11363-0.76136 0.11363zm0.46212-1.1136q0.35606 0 0.62879-0.14015 0.27273-0.14394 0.42803-0.38637t0.1553-0.54924v-0.61743q-0.07576 0.0492-0.20833 0.0909-0.12879 0.0379-0.29167 0.072-0.16288 0.0303-0.32576 0.0568-0.16288 0.0227-0.29545 0.0417-0.28409 0.0417-0.49621 0.13257-0.21212 0.0909-0.32955 0.24621-0.11742 0.15151-0.11742 0.37879 0 0.32955 0.23864 0.50378 0.24242 0.17046 0.61364 0.17046zm-7.1326-2.3598v3.3636h-1.6136v-5.8182h1.5379v1.0265h0.06818q0.19318-0.50758 0.64773-0.80303 0.45455-0.29924 1.1023-0.29924 0.60606 0 1.0568 0.26515 0.45076 0.26515 0.70076 0.75757 0.25 0.48864 0.25 1.1667v3.7046h-1.6136v-3.4167q0.0038-0.53409-0.27273-0.83333-0.27652-0.30303-0.76136-0.30303-0.32576 0-0.57576 0.14015-0.24621 0.14015-0.38636 0.40909-0.13636 0.26515-0.14015 0.64015zm-6.142 3.4735q-0.55682 0-0.99242-0.19319-0.43561-0.19696-0.68939-0.57954-0.25-0.38637-0.25-0.96212 0-0.48485 0.17803-0.8144 0.17803-0.32954 0.48485-0.5303t0.69697-0.30303q0.39394-0.10227 0.82576-0.14394 0.50758-0.053 0.81818-0.0985 0.31061-0.0492 0.45076-0.14394 0.14015-0.0947 0.14015-0.2803v-0.0227q0-0.35984-0.22727-0.55681-0.22348-0.19697-0.63636-0.19697-0.43561 0-0.69318 0.19318-0.25758 0.1894-0.34091 0.47728l-1.4924-0.12121q0.11364-0.53031 0.44697-0.91667 0.33333-0.39016 0.85985-0.59848 0.5303-0.21212 1.2273-0.21212 0.48485 0 0.92803 0.11363 0.44697 0.11364 0.79167 0.35228 0.34848 0.23863 0.54924 0.61363 0.20076 0.37121 0.20076 0.89015v3.9242h-1.5303v-0.80682h-0.04545q-0.14015 0.27272-0.375 0.48106-0.23485 0.20454-0.56439 0.32197-0.32954 0.11363-0.76136 0.11363zm0.46212-1.1136q0.35606 0 0.62879-0.14015 0.27273-0.14394 0.42803-0.38637t0.1553-0.54924v-0.61743q-0.07576 0.0492-0.20833 0.0909-0.12879 0.0379-0.29167 0.072-0.16288 0.0303-0.32576 0.0568-0.16288 0.0227-0.29545 0.0417-0.28409 0.0417-0.49621 0.13257-0.21212 0.0909-0.32955 0.24621-0.11742 0.15151-0.11742 0.37879 0 0.32955 0.23864 0.50378 0.24242 0.17046 0.61364 0.17046zm-11.841-6.7538h2.0227l2.1364 5.2121h0.09091l2.1364-5.2121h2.0227v7.7576h-1.5909v-5.0492h-0.06439l-2.0076 5.0114h-1.0833l-2.0076-5.0303h-0.06439v5.0682h-1.5909z"/>
 </g>
</svg>
