<?xml version="1.0" encoding="UTF-8" standalone="no"?>
<!-- Created with Inkscape (http://www.inkscape.org/) -->

<svg
   xmlns:dc="http://purl.org/dc/elements/1.1/"
   xmlns:cc="http://creativecommons.org/ns#"
   xmlns:rdf="http://www.w3.org/1999/02/22-rdf-syntax-ns#"
   xmlns:svg="http://www.w3.org/2000/svg"
   xmlns="http://www.w3.org/2000/svg"
   xmlns:sodipodi="http://sodipodi.sourceforge.net/DTD/sodipodi-0.dtd"
   xmlns:inkscape="http://www.inkscape.org/namespaces/inkscape"
   width="200px"
   height="115px"
   viewBox="0 0 200 115"
   version="1.1"
   id="SVGRoot"
   inkscape:version="0.92.4 (5da689c313, 2019-01-14)"
   sodipodi:docname="appdescription.svg">
  <defs
     id="defs121788">
    <clipPath
       id="_clipPath_7C8yofCPyIOyD0NQ5IxuDpIh5YpgBlJi">
      <rect
         y="0"
         x="0"
         id="rect83690"
         height="534"
         width="267" />
    </clipPath>
  </defs>
  <sodipodi:namedview
     id="base"
     pagecolor="#ffffff"
     bordercolor="#666666"
     borderopacity="1.0"
     inkscape:pageopacity="0.0"
     inkscape:pageshadow="2"
     inkscape:zoom="2.56"
     inkscape:cx="100"
     inkscape:cy="46.844768"
     inkscape:document-units="px"
     inkscape:current-layer="layer1"
     showgrid="false"
     inkscape:window-width="1360"
     inkscape:window-height="734"
     inkscape:window-x="0"
     inkscape:window-y="1"
     inkscape:window-maximized="1" />
  <metadata
     id="metadata121791">
    <rdf:RDF>
      <cc:Work
         rdf:about="">
        <dc:format>image/svg+xml</dc:format>
        <dc:type
           rdf:resource="http://purl.org/dc/dcmitype/StillImage" />
        <dc:title></dc:title>
      </cc:Work>
    </rdf:RDF>
  </metadata>
  <g
     inkscape:label="Layer 1"
     inkscape:groupmode="layer"
     id="layer1">
    <g
       style="isolation:isolate"
       transform="matrix(1.3333333,0,0,1.3333333,-102.15218,-127.0011)"
       id="g83697"
       clip-path="url(#_clipPath_7C8yofCPyIOyD0NQ5IxuDpIh5YpgBlJi)">
      <path
         inkscape:connector-curvature="0"
         id="path83695"
         style="fill:#1b2026;stroke:none;stroke-width:0.6245178;stroke-miterlimit:10"
         d="M 98.093455,95.967209 H 208.63312 c 5.17038,0 9.36776,4.197391 9.36776,9.367781 v 66.19889 c 0,5.17038 -4.19738,9.36776 -9.36776,9.36776 H 98.093455 c -5.170383,0 -9.367764,-4.19738 -9.367764,-9.36776 V 154.98416 L 77.539899,138.92077 88.725691,121.88471 v -16.54972 c 0,-5.17039 4.197381,-9.367781 9.367764,-9.367781 z" />
    </g>
    <g
       aria-label="Manage your assets"
       transform="translate(-3.6898674,-146.90836)"
       style="font-style:normal;font-variant:normal;font-weight:normal;font-stretch:normal;font-size:40px;line-height:1.25;font-family:inter;-inkscape-font-specification:inter;letter-spacing:0px;word-spacing:0px;isolation:isolate;fill:#ffffff;fill-opacity:1;stroke:none"
       id="flowRoot171365" />
    <g
       aria-label="Find thousands of products"
       transform="translate(-3.6898674,-172.32688)"
       style="font-style:normal;font-variant:normal;font-weight:normal;font-stretch:normal;font-size:40px;line-height:1.25;font-family:inter;-inkscape-font-specification:inter;letter-spacing:0px;word-spacing:0px;isolation:isolate;fill:#ffffff;fill-opacity:1;stroke:none"
       id="flowRoot171365-3" />
    <g
       aria-label="Local storage"
       transform="translate(-3.6898674,-122.38956)"
       style="font-style:normal;font-variant:normal;font-weight:normal;font-stretch:normal;font-size:40px;line-height:1.25;font-family:inter;-inkscape-font-specification:inter;letter-spacing:0px;word-spacing:0px;isolation:isolate;fill:#ffffff;fill-opacity:1;stroke:none"
       id="flowRoot171365-3-3" />
    <g
       aria-label="Recovery passphrases "
       transform="translate(-3.6898674,-97.514205)"
       style="font-style:normal;font-variant:normal;font-weight:normal;font-stretch:normal;font-size:40px;line-height:1.25;font-family:inter;-inkscape-font-specification:inter;letter-spacing:0px;word-spacing:0px;isolation:isolate;fill:#ffffff;fill-opacity:1;stroke:none"
       id="flowRoot171365-3-3-9">
      <path
         id="path122798"
         style="font-size:10.66666698px"
         d="m 153.37547,191.08234 -1.47727,0.0909 q -0.0379,-0.18939 -0.16288,-0.34091 -0.125,-0.1553 -0.32954,-0.24621 -0.20076,-0.0947 -0.48106,-0.0947 -0.375,0 -0.63258,0.15909 -0.25758,0.1553 -0.25758,0.41666 0,0.20834 0.16667,0.35228 0.16667,0.14394 0.57197,0.23106 l 1.05303,0.21212 q 0.84849,0.17424 1.26515,0.5606 0.41667,0.38637 0.41667,1.01516 0,0.57196 -0.33712,1.00378 -0.33334,0.43182 -0.91667,0.67425 -0.57954,0.23863 -1.33712,0.23863 -1.1553,0 -1.84091,-0.48106 -0.68182,-0.48485 -0.79924,-1.31818 l 1.58712,-0.0833 q 0.072,0.35227 0.34848,0.53787 0.27652,0.18182 0.70834,0.18182 0.42424,0 0.68182,-0.16288 0.26136,-0.16666 0.26515,-0.42803 -0.004,-0.21969 -0.18561,-0.35984 -0.18182,-0.14394 -0.5606,-0.2197 l -1.00758,-0.20076 q -0.85227,-0.17045 -1.26894,-0.59091 -0.41288,-0.42045 -0.41288,-1.07197 0,-0.5606 0.30303,-0.96591 0.30682,-0.4053 0.85985,-0.625 0.55682,-0.21969 1.30303,-0.21969 1.10227,0 1.73485,0.46591 0.63636,0.4659 0.74242,1.26893 z m -8.56439,4.27273 q -0.89773,0 -1.54545,-0.36363 -0.64394,-0.36743 -0.99243,-1.03788 -0.34848,-0.67425 -0.34848,-1.5947 0,-0.89773 0.34848,-1.57576 0.34849,-0.67803 0.98106,-1.05682 0.63637,-0.37878 1.49243,-0.37878 0.57575,0 1.07197,0.1856 0.5,0.18182 0.87121,0.54924 0.375,0.36743 0.58333,0.92425 0.20833,0.55303 0.20833,1.29545 v 0.44318 h -4.91287 v -1 h 3.39393 q 0,-0.34848 -0.15151,-0.61742 -0.15152,-0.26894 -0.42045,-0.42046 -0.26516,-0.1553 -0.61743,-0.1553 -0.36742,0 -0.65151,0.17046 -0.28031,0.16666 -0.4394,0.45075 -0.15909,0.28031 -0.16288,0.625 v 0.95076 q 0,0.43182 0.15909,0.74621 0.16288,0.3144 0.45834,0.48485 0.29545,0.17046 0.70075,0.17046 0.26894,0 0.49243,-0.0758 0.22348,-0.0758 0.38257,-0.22727 0.1591,-0.15152 0.24243,-0.37122 l 1.49242,0.0985 q -0.11363,0.53788 -0.46591,0.93939 -0.34848,0.39773 -0.90151,0.62121 -0.54924,0.2197 -1.26894,0.2197 z m -3.81061,-4.27273 -1.47727,0.0909 q -0.0379,-0.18939 -0.16288,-0.34091 -0.125,-0.1553 -0.32954,-0.24621 -0.20076,-0.0947 -0.48106,-0.0947 -0.375,0 -0.63258,0.15909 -0.25758,0.1553 -0.25758,0.41666 0,0.20834 0.16667,0.35228 0.16667,0.14394 0.57197,0.23106 l 1.05303,0.21212 q 0.84849,0.17424 1.26515,0.5606 0.41667,0.38637 0.41667,1.01516 0,0.57196 -0.33712,1.00378 -0.33334,0.43182 -0.91667,0.67425 -0.57954,0.23863 -1.33712,0.23863 -1.1553,0 -1.84091,-0.48106 -0.68182,-0.48485 -0.79924,-1.31818 l 1.58712,-0.0833 q 0.072,0.35227 0.34848,0.53787 0.27652,0.18182 0.70834,0.18182 0.42424,0 0.68182,-0.16288 0.26136,-0.16666 0.26515,-0.42803 -0.004,-0.21969 -0.18561,-0.35984 -0.18182,-0.14394 -0.5606,-0.2197 l -1.00758,-0.20076 q -0.85227,-0.17045 -1.26894,-0.59091 -0.41288,-0.42045 -0.41288,-1.07197 0,-0.5606 0.30303,-0.96591 0.30682,-0.4053 0.85985,-0.625 0.55682,-0.21969 1.30303,-0.21969 1.10227,0 1.73485,0.46591 0.63636,0.4659 0.74242,1.26893 z m -9.36931,4.26894 q -0.55682,0 -0.99243,-0.19318 -0.4356,-0.19697 -0.68939,-0.57954 -0.25,-0.38637 -0.25,-0.96212 0,-0.48485 0.17803,-0.8144 0.17803,-0.32954 0.48485,-0.5303 0.30681,-0.20076 0.69697,-0.30303 0.39394,-0.10227 0.82575,-0.14394 0.50758,-0.053 0.81819,-0.0985 0.3106,-0.0492 0.45075,-0.14394 0.14015,-0.0947 0.14015,-0.2803 v -0.0227 q 0,-0.35984 -0.22727,-0.55681 -0.22348,-0.19697 -0.63636,-0.19697 -0.43561,0 -0.69318,0.19318 -0.25758,0.18939 -0.34091,0.47727 l -1.49243,-0.12121 q 0.11364,-0.5303 0.44697,-0.91667 0.33334,-0.39015 0.85985,-0.59848 0.5303,-0.21212 1.22727,-0.21212 0.48485,0 0.92803,0.11363 0.44697,0.11364 0.79167,0.35228 0.34849,0.23863 0.54924,0.61363 0.20076,0.37121 0.20076,0.89015 v 3.92425 h -1.5303 v -0.80682 h -0.0455 q -0.14015,0.27272 -0.375,0.48106 -0.23485,0.20454 -0.56439,0.32197 -0.32955,0.11363 -0.76136,0.11363 z m 0.46212,-1.11363 q 0.35606,0 0.62878,-0.14015 0.27273,-0.14394 0.42803,-0.38637 0.15531,-0.24242 0.15531,-0.54924 v -0.61742 q -0.0758,0.0492 -0.20834,0.0909 -0.12878,0.0379 -0.29166,0.072 -0.16288,0.0303 -0.32576,0.0568 -0.16288,0.0227 -0.29545,0.0417 -0.2841,0.0417 -0.49622,0.13258 -0.21212,0.0909 -0.32954,0.24621 -0.11743,0.15151 -0.11743,0.37879 0,0.32954 0.23864,0.50378 0.24242,0.17046 0.61364,0.17046 z m -6.47538,1.00379 v -5.81819 h 1.56439 v 1.01516 h 0.0606 q 0.15909,-0.54167 0.53409,-0.81819 0.375,-0.2803 0.86364,-0.2803 0.12121,0 0.26136,0.0152 0.14015,0.0151 0.24621,0.0417 v 1.43182 q -0.11363,-0.0341 -0.31439,-0.0606 -0.20076,-0.0265 -0.36742,-0.0265 -0.35607,0 -0.63637,0.1553 -0.27651,0.15151 -0.43939,0.42424 -0.15909,0.27273 -0.15909,0.62879 v 3.29167 z m -5.05304,-3.36364 v 3.36364 h -1.61363 v -7.75758 h 1.56818 v 2.96591 h 0.0682 q 0.19697,-0.51515 0.63637,-0.80682 0.43939,-0.29545 1.10227,-0.29545 0.60606,0 1.05682,0.26515 0.45454,0.26136 0.70454,0.75379 0.25379,0.48863 0.25,1.17045 v 3.70455 h -1.61363 v -3.41667 q 0.004,-0.53788 -0.27273,-0.83712 -0.27273,-0.29924 -0.76515,-0.29924 -0.32955,0 -0.58334,0.14015 -0.25,0.14015 -0.39394,0.40909 -0.14015,0.26515 -0.14394,0.64015 z m -8.36363,5.54545 v -8 h 1.59091 v 0.97728 h 0.072 q 0.10606,-0.23485 0.30682,-0.47728 0.20454,-0.24621 0.5303,-0.40909 0.32954,-0.16666 0.81818,-0.16666 0.63636,0 1.17424,0.33333 0.53788,0.32954 0.85985,0.99621 0.32197,0.66288 0.32197,1.66288 0,0.97349 -0.31439,1.64394 -0.31061,0.66667 -0.84849,1.01136 -0.53409,0.34091 -1.19697,0.34091 -0.46969,0 -0.79924,-0.1553 -0.32576,-0.1553 -0.53409,-0.39015 -0.20833,-0.23864 -0.31818,-0.48106 h -0.0493 v 3.11363 z m 1.57954,-5.09091 q 0,0.51894 0.14394,0.90531 0.14394,0.38636 0.41667,0.60227 0.27273,0.21212 0.66288,0.21212 0.39394,0 0.66667,-0.21591 0.27272,-0.21969 0.41287,-0.60606 0.14394,-0.39015 0.14394,-0.89773 0,-0.50378 -0.14015,-0.88636 -0.14015,-0.38257 -0.41288,-0.59848 -0.27272,-0.21591 -0.67045,-0.21591 -0.39394,0 -0.66667,0.20833 -0.26894,0.20833 -0.41288,0.59091 -0.14394,0.38258 -0.14394,0.90151 z m -2.73863,-1.25 -1.47727,0.0909 q -0.0379,-0.18939 -0.16288,-0.34091 -0.125,-0.1553 -0.32955,-0.24621 -0.20076,-0.0947 -0.48106,-0.0947 -0.375,0 -0.63258,0.15909 -0.25757,0.1553 -0.25757,0.41666 0,0.20834 0.16667,0.35228 0.16666,0.14394 0.57196,0.23106 l 1.05304,0.21212 q 0.84848,0.17424 1.26515,0.5606 0.41666,0.38637 0.41666,1.01516 0,0.57196 -0.33712,1.00378 -0.33333,0.43182 -0.91666,0.67425 -0.57955,0.23863 -1.33713,0.23863 -1.1553,0 -1.8409,-0.48106 -0.68182,-0.48485 -0.79925,-1.31818 l 1.58712,-0.0833 q 0.072,0.35227 0.34849,0.53787 0.27651,0.18182 0.70833,0.18182 0.42424,0 0.68182,-0.16288 0.26136,-0.16666 0.26515,-0.42803 -0.004,-0.21969 -0.1856,-0.35984 -0.18182,-0.14394 -0.56061,-0.2197 l -1.00758,-0.20076 q -0.85227,-0.17045 -1.26894,-0.59091 -0.41287,-0.42045 -0.41287,-1.07197 0,-0.5606 0.30303,-0.96591 0.30681,-0.4053 0.85984,-0.625 0.55682,-0.21969 1.30303,-0.21969 1.10228,0 1.73485,0.46591 0.63637,0.4659 0.74243,1.26893 z m -6,0 -1.47727,0.0909 q -0.0379,-0.18939 -0.16288,-0.34091 -0.125,-0.1553 -0.32955,-0.24621 -0.20076,-0.0947 -0.48106,-0.0947 -0.375,0 -0.63258,0.15909 -0.25757,0.1553 -0.25757,0.41666 0,0.20834 0.16667,0.35228 0.16666,0.14394 0.57196,0.23106 l 1.05304,0.21212 q 0.84848,0.17424 1.26515,0.5606 0.41666,0.38637 0.41666,1.01516 0,0.57196 -0.33712,1.00378 -0.33333,0.43182 -0.91666,0.67425 -0.57955,0.23863 -1.33713,0.23863 -1.1553,0 -1.8409,-0.48106 -0.68182,-0.48485 -0.799247,-1.31818 l 1.587117,-0.0833 q 0.072,0.35227 0.34849,0.53787 0.27651,0.18182 0.70833,0.18182 0.42424,0 0.68182,-0.16288 0.26136,-0.16666 0.26515,-0.42803 -0.004,-0.21969 -0.1856,-0.35984 -0.18182,-0.14394 -0.56061,-0.2197 l -1.00758,-0.20076 q -0.85227,-0.17045 -1.26894,-0.59091 -0.41287,-0.42045 -0.41287,-1.07197 0,-0.5606 0.30303,-0.96591 0.30681,-0.4053 0.85984,-0.625 0.55682,-0.21969 1.30303,-0.21969 1.10228,0 1.73485,0.46591 0.63637,0.4659 0.74243,1.26893 z m -9.369317,4.26894 q -0.556818,0 -0.992424,-0.19318 -0.435606,-0.19697 -0.689394,-0.57954 -0.25,-0.38637 -0.25,-0.96212 0,-0.48485 0.17803,-0.8144 0.178031,-0.32954 0.484849,-0.5303 0.306818,-0.20076 0.69697,-0.30303 0.393939,-0.10227 0.825757,-0.14394 0.507576,-0.053 0.818182,-0.0985 0.310606,-0.0492 0.450758,-0.14394 0.140151,-0.0947 0.140151,-0.2803 v -0.0227 q 0,-0.35984 -0.227273,-0.55681 -0.223484,-0.19697 -0.636363,-0.19697 -0.435606,0 -0.693182,0.19318 -0.257576,0.18939 -0.340909,0.47727 l -1.492424,-0.12121 q 0.113636,-0.5303 0.446969,-0.91667 0.333334,-0.39015 0.859849,-0.59848 0.530303,-0.21212 1.227273,-0.21212 0.484848,0 0.92803,0.11363 0.44697,0.11364 0.791667,0.35228 0.348484,0.23863 0.549242,0.61363 0.200758,0.37121 0.200758,0.89015 v 3.92425 h -1.530304 v -0.80682 h -0.04545 q -0.140152,0.27272 -0.375,0.48106 -0.234849,0.20454 -0.564394,0.32197 -0.329545,0.11363 -0.761364,0.11363 z m 0.462122,-1.11363 q 0.35606,0 0.628787,-0.14015 0.272728,-0.14394 0.428031,-0.38637 0.155303,-0.24242 0.155303,-0.54924 v -0.61742 q -0.07576,0.0492 -0.208334,0.0909 -0.128787,0.0379 -0.291666,0.072 -0.162879,0.0303 -0.325758,0.0568 -0.162879,0.0227 -0.295454,0.0417 -0.284091,0.0417 -0.496213,0.13258 -0.212121,0.0909 -0.329545,0.24621 -0.117424,0.15151 -0.117424,0.37879 0,0.32954 0.238636,0.50378 0.242424,0.17046 0.613637,0.17046 z m -8.871213,3.1856 v -8 h 1.590909 v 0.97728 h 0.07197 q 0.106061,-0.23485 0.306818,-0.47728 0.204546,-0.24621 0.530303,-0.40909 0.329546,-0.16666 0.818182,-0.16666 0.636364,0 1.174243,0.33333 0.537879,0.32954 0.859848,0.99621 0.32197,0.66288 0.32197,1.66288 0,0.97349 -0.314394,1.64394 -0.310606,0.66667 -0.848485,1.01136 -0.534091,0.34091 -1.19697,0.34091 -0.469697,0 -0.799242,-0.1553 -0.325758,-0.1553 -0.534091,-0.39015 -0.208333,-0.23864 -0.318182,-0.48106 h -0.04924 v 3.11363 z m 1.579546,-5.09091 q 0,0.51894 0.143939,0.90531 0.14394,0.38636 0.416667,0.60227 0.272727,0.21212 0.662879,0.21212 0.393939,0 0.666666,-0.21591 0.272728,-0.21969 0.412879,-0.60606 0.14394,-0.39015 0.14394,-0.89773 0,-0.50378 -0.140152,-0.88636 -0.140151,-0.38257 -0.412879,-0.59848 -0.272727,-0.21591 -0.670454,-0.21591 -0.39394,0 -0.666667,0.20833 -0.268939,0.20833 -0.412879,0.59091 -0.143939,0.38258 -0.143939,0.90151 z m -9.312501,5.07955 q -0.306819,0 -0.575758,-0.0492 -0.265152,-0.0455 -0.439394,-0.11364 l 0.363636,-1.20833 q 0.428031,0.13257 0.719697,0.0682 0.295455,-0.0606 0.465909,-0.45455 l 0.0947,-0.24621 -2.087121,-5.98485 h 1.69697 l 1.204545,4.27273 h 0.06061 l 1.21591,-4.27273 1.708333,0.008 -2.261364,6.43939 q -0.162878,0.46591 -0.443182,0.81061 -0.276515,0.34848 -0.700757,0.53788 -0.424243,0.19318 -1.022727,0.19318 z M 73.9929,195.24144 v -5.81819 h 1.564394 v 1.01516 h 0.06061 q 0.159091,-0.54167 0.534091,-0.81819 0.375,-0.2803 0.863637,-0.2803 0.121212,0 0.261363,0.0152 0.140152,0.0151 0.246212,0.0417 v 1.43182 q -0.113636,-0.0341 -0.314394,-0.0606 -0.200757,-0.0265 -0.367424,-0.0265 -0.35606,0 -0.636363,0.1553 -0.276516,0.15151 -0.439394,0.42424 -0.159091,0.27273 -0.159091,0.62879 v 3.29167 z m -3.723486,0.11363 q -0.897728,0 -1.545455,-0.36363 -0.643939,-0.36743 -0.992424,-1.03788 -0.348485,-0.67425 -0.348485,-1.5947 0,-0.89773 0.348485,-1.57576 0.348485,-0.67803 0.98106,-1.05682 0.636364,-0.37878 1.492425,-0.37878 0.575757,0 1.071969,0.1856 0.5,0.18182 0.871213,0.54924 0.375,0.36743 0.583333,0.92425 0.208333,0.55303 0.208333,1.29545 v 0.44318 h -4.912879 v -1 h 3.39394 q 0,-0.34848 -0.151515,-0.61742 -0.151516,-0.26894 -0.420455,-0.42046 -0.265151,-0.1553 -0.617424,-0.1553 -0.367424,0 -0.651515,0.17046 -0.280303,0.16666 -0.439394,0.45075 -0.159091,0.28031 -0.162879,0.625 v 0.95076 q 0,0.43182 0.159091,0.74621 0.162879,0.3144 0.458333,0.48485 0.295455,0.17046 0.700758,0.17046 0.268939,0 0.492424,-0.0758 0.223485,-0.0758 0.382576,-0.22727 0.159091,-0.15152 0.242424,-0.37122 l 1.492424,0.0985 q -0.113636,0.53788 -0.465909,0.93939 -0.348485,0.39773 -0.901515,0.62121 -0.549242,0.2197 -1.268939,0.2197 z m -3.268939,-5.93182 -2.034091,5.81819 h -1.818182 l -2.034091,-5.81819 h 1.704546 l 1.208333,4.16288 h 0.06061 l 1.204546,-4.16288 z m -9.128789,5.93182 q -0.882575,0 -1.526515,-0.375 -0.640151,-0.37879 -0.988636,-1.05303 -0.348485,-0.67803 -0.348485,-1.57197 0,-0.90151 0.348485,-1.57576 0.348485,-0.67803 0.988636,-1.05303 0.64394,-0.37878 1.526515,-0.37878 0.882576,0 1.522728,0.37878 0.643939,0.375 0.992424,1.05303 0.348485,0.67425 0.348485,1.57576 0,0.89394 -0.348485,1.57197 -0.348485,0.67424 -0.992424,1.05303 -0.640152,0.375 -1.522728,0.375 z m 0.0076,-1.25 q 0.401515,0 0.670455,-0.22727 0.268939,-0.23106 0.405303,-0.62879 0.140151,-0.39773 0.140151,-0.9053 0,-0.50758 -0.140151,-0.9053 -0.136364,-0.39773 -0.405303,-0.62879 -0.26894,-0.23106 -0.670455,-0.23106 -0.405303,0 -0.681818,0.23106 -0.272727,0.23106 -0.412879,0.62879 -0.136364,0.39772 -0.136364,0.9053 0,0.50757 0.136364,0.9053 0.140152,0.39773 0.412879,0.62879 0.276515,0.22727 0.681818,0.22727 z m -6.278434,1.25 q -0.893939,0 -1.537878,-0.37879 -0.640152,-0.38257 -0.984849,-1.0606 -0.340909,-0.67803 -0.340909,-1.56061 0,-0.89394 0.344697,-1.56818 0.348485,-0.67803 0.988636,-1.05682 0.640152,-0.38257 1.522728,-0.38257 0.761363,0 1.333333,0.27651 0.57197,0.27652 0.905303,0.77652 0.333333,0.5 0.367424,1.17424 H 52.67661 q -0.06439,-0.43561 -0.340909,-0.70076 -0.272727,-0.26894 -0.715909,-0.26894 -0.375,0 -0.655303,0.20455 -0.276515,0.20075 -0.431818,0.58712 -0.155304,0.38636 -0.155304,0.9356 0,0.55682 0.151516,0.94697 0.155303,0.39016 0.435606,0.5947 0.280303,0.20455 0.655303,0.20455 0.276515,0 0.496212,-0.11364 0.223485,-0.11364 0.367424,-0.32955 0.147727,-0.21969 0.193182,-0.52651 h 1.522727 q -0.03788,0.66667 -0.363636,1.17424 -0.32197,0.50379 -0.890152,0.78788 -0.568181,0.28409 -1.344697,0.28409 z m -6.352272,0 q -0.897728,0 -1.545455,-0.36363 -0.643939,-0.36743 -0.992424,-1.03788 -0.348485,-0.67425 -0.348485,-1.5947 0,-0.89773 0.348485,-1.57576 0.348485,-0.67803 0.98106,-1.05682 0.636364,-0.37878 1.492425,-0.37878 0.575757,0 1.071969,0.1856 0.5,0.18182 0.871213,0.54924 0.375,0.36743 0.583333,0.92425 0.208333,0.55303 0.208333,1.29545 v 0.44318 h -4.912879 v -1 h 3.39394 q 0,-0.34848 -0.151515,-0.61742 -0.151515,-0.26894 -0.420455,-0.42046 -0.265151,-0.1553 -0.617424,-0.1553 -0.367424,0 -0.651515,0.17046 -0.280303,0.16666 -0.439394,0.45075 -0.159091,0.28031 -0.162879,0.625 v 0.95076 q 0,0.43182 0.159091,0.74621 0.162879,0.3144 0.458333,0.48485 0.295455,0.17046 0.700758,0.17046 0.268939,0 0.492424,-0.0758 0.223485,-0.0758 0.382576,-0.22727 0.159091,-0.15152 0.242424,-0.37122 l 1.492424,0.0985 q -0.113636,0.53788 -0.465909,0.93939 -0.348485,0.39773 -0.901515,0.62121 -0.549242,0.2197 -1.268939,0.2197 z m -9.558713,-0.11363 v -7.75758 h 3.060607 q 0.878788,0 1.5,0.31439 0.625,0.31061 0.950757,0.88258 0.329546,0.56818 0.329546,1.33712 0,0.77273 -0.333334,1.32955 -0.333333,0.55303 -0.965909,0.84848 -0.628788,0.29546 -1.522727,0.29546 h -2.049243 v -1.31819 h 1.784091 q 0.469697,0 0.780303,-0.12878 0.310607,-0.12879 0.462122,-0.38637 0.155303,-0.25757 0.155303,-0.64015 0,-0.38636 -0.155303,-0.65151 -0.151515,-0.26516 -0.465909,-0.40152 -0.310606,-0.14015 -0.784091,-0.14015 h -1.106061 v 6.41667 z m 4.189395,-3.53031 1.92803,3.53031 h -1.810606 l -1.886364,-3.53031 z m 62.785988,-21.23142 q -0.89773,0 -1.54545,-0.36363 -0.64394,-0.36743 -0.99243,-1.03787 -0.348482,-0.67426 -0.348482,-1.5947 0,-0.89774 0.348482,-1.57576 0.34849,-0.67804 0.98106,-1.05682 0.63637,-0.37879 1.49243,-0.37879 0.57576,0 1.07197,0.18561 0.5,0.18181 0.87121,0.54924 0.375,0.36743 0.58333,0.92424 0.20834,0.55304 0.20834,1.29546 v 0.44317 h -4.91288 v -1 h 3.39394 q 0,-0.34848 -0.15152,-0.61741 -0.15151,-0.26894 -0.42045,-0.42046 -0.26515,-0.1553 -0.61743,-0.1553 -0.36742,0 -0.65151,0.17045 -0.28031,0.16666 -0.4394,0.45075 -0.15909,0.28031 -0.16288,0.625 v 0.95076 q 0,0.43182 0.1591,0.74621 0.16287,0.3144 0.45833,0.48485 0.29545,0.17046 0.70076,0.17046 0.26894,0 0.49242,-0.0758 0.22349,-0.0758 0.38258,-0.22727 0.15909,-0.15152 0.24242,-0.37122 l 1.49243,0.0985 q -0.11364,0.53788 -0.46591,0.93939 -0.34849,0.39773 -0.90152,0.62121 -0.54924,0.2197 -1.26894,0.2197 z m -6.780305,2.15152 q -0.784091,0 -1.344697,-0.21212 -0.556819,-0.21213 -0.886364,-0.57197 -0.329546,-0.35984 -0.42803,-0.79925 l 1.492424,-0.20075 q 0.06818,0.15909 0.215909,0.29924 0.147727,0.14394 0.390151,0.23485 0.246213,0.0909 0.598485,0.0909 0.526516,0 0.867425,-0.25 0.344697,-0.25 0.344697,-0.82196 v -1.06441 h -0.06818 q -0.106061,0.24243 -0.318182,0.45834 -0.212121,0.2159 -0.545455,0.35227 -0.333333,0.13636 -0.795454,0.13636 -0.655303,0 -1.193182,-0.30303 -0.534091,-0.30682 -0.852273,-0.9356 -0.314394,-0.63258 -0.314394,-1.59849 0,-0.98864 0.32197,-1.65151 0.32197,-0.66288 0.856061,-0.99243 0.537878,-0.32954 1.17803,-0.32954 0.488636,0 0.818182,0.16666 0.329545,0.16288 0.530303,0.40909 0.204545,0.24243 0.314394,0.47728 h 0.06061 v -0.97728 h 1.602273 v 5.875 q 0,0.72728 -0.363637,1.21591 -0.363636,0.49243 -1.007576,0.74243 -0.640151,0.25 -1.473484,0.25 z m 0.03409,-3.56061 q 0.390152,0 0.659091,-0.19318 0.272728,-0.19697 0.416667,-0.56061 0.147727,-0.36742 0.147727,-0.87878 0,-0.51137 -0.143939,-0.88637 -0.143939,-0.37879 -0.416667,-0.58712 -0.272727,-0.20833 -0.662879,-0.20833 -0.397727,0 -0.670454,0.21591 -0.272727,0.21212 -0.412879,0.59092 -0.140151,0.37878 -0.140151,0.875 0,0.50378 0.140151,0.8712 0.143939,0.36363 0.412879,0.56439 0.272727,0.19697 0.670454,0.19697 z m -7.183712,1.40531 q -0.556818,0 -0.992424,-0.19319 -0.435606,-0.19697 -0.689394,-0.57954 -0.25,-0.38637 -0.25,-0.96212 0,-0.48485 0.17803,-0.8144 0.178031,-0.32954 0.484849,-0.5303 0.306818,-0.20076 0.69697,-0.30303 0.393939,-0.10227 0.825757,-0.14394 0.507576,-0.053 0.818182,-0.0985 0.310606,-0.0492 0.450758,-0.14394 0.140151,-0.0947 0.140151,-0.2803 v -0.0227 q 0,-0.35984 -0.227273,-0.55681 -0.223484,-0.19697 -0.636363,-0.19697 -0.435606,0 -0.693182,0.19318 -0.257576,0.18939 -0.340909,0.47728 l -1.492424,-0.12122 q 0.113636,-0.5303 0.446969,-0.91667 0.333334,-0.39015 0.859849,-0.59848 0.530303,-0.21211 1.227273,-0.21211 0.484848,0 0.92803,0.11363 0.44697,0.11363 0.791667,0.35228 0.348484,0.23863 0.549242,0.61363 0.200758,0.3712 0.200758,0.89015 v 3.92424 h -1.530304 v -0.80681 h -0.04545 q -0.140152,0.27272 -0.375,0.48106 -0.234849,0.20454 -0.564394,0.32197 -0.329545,0.11363 -0.761364,0.11363 z m 0.462122,-1.11363 q 0.35606,0 0.628787,-0.14016 0.272728,-0.14393 0.428031,-0.38637 0.155303,-0.24242 0.155303,-0.54923 v -0.61743 q -0.07576,0.0492 -0.208334,0.0909 -0.128787,0.0379 -0.291666,0.072 -0.162879,0.0303 -0.325758,0.0568 -0.162879,0.0227 -0.295454,0.0417 -0.284091,0.0417 -0.496213,0.13257 -0.212121,0.0909 -0.329545,0.24621 -0.117424,0.15151 -0.117424,0.37879 0,0.32954 0.238636,0.50378 0.242424,0.17046 0.613637,0.17046 z m -6.475381,1.00378 v -5.81818 h 1.564394 v 1.01516 h 0.06061 q 0.159091,-0.54168 0.534091,-0.81819 0.375,-0.2803 0.863637,-0.2803 0.121212,0 0.261363,0.0152 0.140152,0.0151 0.246213,0.0417 v 1.43181 q -0.113637,-0.0341 -0.314394,-0.0606 -0.200758,-0.0265 -0.367425,-0.0265 -0.35606,0 -0.636363,0.1553 -0.276515,0.15151 -0.439394,0.42424 -0.159091,0.27272 -0.159091,0.62879 v 3.29167 z m -3.912876,0.11363 q -0.882576,0 -1.526515,-0.375 -0.640151,-0.37878 -0.988636,-1.05302 -0.348485,-0.67804 -0.348485,-1.57198 0,-0.9015 0.348485,-1.57576 0.348485,-0.67802 0.988636,-1.05302 0.643939,-0.37879 1.526515,-0.37879 0.882576,0 1.522728,0.37879 0.643939,0.375 0.992424,1.05302 0.348485,0.67426 0.348485,1.57576 0,0.89394 -0.348485,1.57198 -0.348485,0.67424 -0.992424,1.05302 -0.640152,0.375 -1.522728,0.375 z m 0.0076,-1.25 q 0.401515,0 0.670455,-0.22726 0.268939,-0.23107 0.405303,-0.6288 0.140151,-0.39772 0.140151,-0.9053 0,-0.50758 -0.140151,-0.9053 -0.136364,-0.39773 -0.405303,-0.62879 -0.26894,-0.23106 -0.670455,-0.23106 -0.405303,0 -0.681818,0.23106 -0.272727,0.23106 -0.412879,0.62879 -0.136364,0.39772 -0.136364,0.9053 0,0.50757 0.136364,0.9053 0.140152,0.39773 0.412879,0.6288 0.276515,0.22726 0.681818,0.22726 z m -3.625027,-4.68182 v 1.21212 h -3.503788 v -1.21212 z m -2.708333,-1.39394 h 1.613636 v 5.42426 q 0,0.22348 0.06818,0.34848 0.06818,0.1212 0.189394,0.17045 0.125,0.0492 0.287879,0.0492 0.113636,0 0.227273,-0.0189 0.113636,-0.0227 0.174242,-0.0341 l 0.253788,1.20076 q -0.121212,0.0379 -0.340909,0.0871 -0.219697,0.053 -0.534091,0.0644 -0.583333,0.0227 -1.022727,-0.1553 -0.435606,-0.17803 -0.678031,-0.55303 -0.242424,-0.375 -0.238636,-0.94697 z m -1.545454,3.05303 -1.477273,0.0909 q -0.03788,-0.18939 -0.162879,-0.34091 -0.125,-0.1553 -0.329545,-0.24621 -0.200758,-0.0947 -0.481061,-0.0947 -0.375,0 -0.632576,0.15909 -0.257576,0.1553 -0.257576,0.41667 0,0.20833 0.166667,0.35228 0.166667,0.14394 0.57197,0.23106 l 1.05303,0.21211 q 0.848485,0.17424 1.265152,0.56061 0.416666,0.38637 0.416666,1.01516 0,0.57195 -0.337121,1.00378 -0.333333,0.43182 -0.916667,0.67425 -0.579545,0.23863 -1.337121,0.23863 -1.155303,0 -1.840909,-0.48106 -0.681818,-0.48485 -0.799242,-1.31819 l 1.587121,-0.0833 q 0.07197,0.35228 0.348485,0.53787 0.276515,0.18182 0.708333,0.18182 0.424243,0 0.681818,-0.16288 0.261364,-0.16666 0.265152,-0.42803 -0.0038,-0.21969 -0.185606,-0.35984 -0.181818,-0.14394 -0.560606,-0.2197 l -1.007576,-0.20076 q -0.852273,-0.17044 -1.26894,-0.59091 -0.412878,-0.42044 -0.412878,-1.07197 0,-0.5606 0.30303,-0.96591 0.306818,-0.4053 0.859849,-0.625 0.556818,-0.21969 1.30303,-0.21969 1.102273,0 1.734848,0.46591 0.636364,0.4659 0.742425,1.26893 z m -8.602273,-3.59848 v 7.75758 h -1.613637 v -7.75758 z m -6.142046,7.86743 q -0.556818,0 -0.992424,-0.19319 -0.435606,-0.19697 -0.689394,-0.57954 -0.25,-0.38637 -0.25,-0.96212 0,-0.48485 0.17803,-0.8144 0.178031,-0.32954 0.484849,-0.5303 0.306818,-0.20076 0.69697,-0.30303 0.393939,-0.10227 0.825757,-0.14394 0.507576,-0.053 0.818182,-0.0985 0.310606,-0.0492 0.450758,-0.14394 0.140151,-0.0947 0.140151,-0.2803 v -0.0227 q 0,-0.35984 -0.227273,-0.55681 -0.223484,-0.19697 -0.636363,-0.19697 -0.435606,0 -0.693182,0.19318 -0.257576,0.18939 -0.340909,0.47728 l -1.492424,-0.12122 q 0.113636,-0.5303 0.446969,-0.91667 0.333334,-0.39015 0.859849,-0.59848 0.530303,-0.21211 1.227273,-0.21211 0.484848,0 0.92803,0.11363 0.44697,0.11363 0.791667,0.35228 0.348484,0.23863 0.549242,0.61363 0.200758,0.3712 0.200758,0.89015 v 3.92424 h -1.530303 v -0.80681 h -0.04545 q -0.140152,0.27272 -0.375,0.48106 -0.234849,0.20454 -0.564394,0.32197 -0.329545,0.11363 -0.761364,0.11363 z m 0.462122,-1.11363 q 0.35606,0 0.628787,-0.14016 0.272728,-0.14393 0.428031,-0.38637 0.155303,-0.24242 0.155303,-0.54923 v -0.61743 q -0.07576,0.0492 -0.208333,0.0909 -0.128788,0.0379 -0.291667,0.072 -0.162879,0.0303 -0.325758,0.0568 -0.162879,0.0227 -0.295454,0.0417 -0.284091,0.0417 -0.496212,0.13257 -0.212122,0.0909 -0.329546,0.24621 -0.117424,0.15151 -0.117424,0.37879 0,0.32954 0.238636,0.50378 0.242424,0.17046 0.613637,0.17046 z m -5.763258,1.11741 q -0.893939,0 -1.537878,-0.37878 -0.640152,-0.38257 -0.984849,-1.06061 -0.340909,-0.67802 -0.340909,-1.56061 0,-0.89394 0.344697,-1.56817 0.348485,-0.67804 0.988636,-1.05683 0.640152,-0.38257 1.522728,-0.38257 0.761363,0 1.333333,0.27652 0.57197,0.27652 0.905303,0.77652 0.333333,0.5 0.367424,1.17424 h -1.522727 q -0.06439,-0.43561 -0.340909,-0.70076 -0.272727,-0.26894 -0.715909,-0.26894 -0.375,0 -0.655303,0.20455 -0.276515,0.20075 -0.431818,0.58712 -0.155304,0.38636 -0.155304,0.9356 0,0.55682 0.151516,0.94697 0.155303,0.39016 0.435606,0.5947 0.280303,0.20455 0.655303,0.20455 0.276515,0 0.496212,-0.11364 0.223485,-0.11364 0.367424,-0.32956 0.147727,-0.21969 0.193182,-0.5265 h 1.522727 q -0.03788,0.66667 -0.363636,1.17424 -0.32197,0.50379 -0.890152,0.78787 -0.568181,0.28409 -1.344697,0.28409 z m -6.541667,0 q -0.882575,0 -1.526515,-0.375 -0.640151,-0.37878 -0.988636,-1.05302 -0.348485,-0.67804 -0.348485,-1.57198 0,-0.9015 0.348485,-1.57576 0.348485,-0.67802 0.988636,-1.05302 0.64394,-0.37879 1.526515,-0.37879 0.882576,0 1.522728,0.37879 0.643939,0.375 0.992424,1.05302 0.348485,0.67426 0.348485,1.57576 0,0.89394 -0.348485,1.57198 -0.348485,0.67424 -0.992424,1.05302 -0.640152,0.375 -1.522728,0.375 z m 0.0076,-1.25 q 0.401515,0 0.670455,-0.22726 0.268939,-0.23107 0.405303,-0.6288 0.140151,-0.39772 0.140151,-0.9053 0,-0.50758 -0.140151,-0.9053 -0.136364,-0.39773 -0.405303,-0.62879 -0.26894,-0.23106 -0.670455,-0.23106 -0.405303,0 -0.681818,0.23106 -0.272727,0.23106 -0.412879,0.62879 -0.136364,0.39772 -0.136364,0.9053 0,0.50757 0.136364,0.9053 0.140152,0.39773 0.412879,0.6288 0.276515,0.22726 0.681818,0.22726 z m -8.668585,1.13637 v -7.75757 h 1.640152 v 6.4053 h 3.325758 v 1.35228 z m 142.268953,-54.09641 -1.47728,0.0909 q -0.0379,-0.18939 -0.16287,-0.34091 -0.125,-0.15531 -0.32955,-0.24621 -0.20076,-0.0947 -0.48106,-0.0947 -0.375,0 -0.63258,0.15909 -0.25757,0.1553 -0.25757,0.41666 0,0.20834 0.16666,0.35228 0.16667,0.14394 0.57197,0.23106 l 1.05303,0.21212 q 0.84849,0.17424 1.26516,0.5606 0.41666,0.38637 0.41666,1.01516 0,0.57196 -0.33712,1.00378 -0.33333,0.43182 -0.91667,0.67425 -0.57954,0.23863 -1.33712,0.23863 -1.1553,0 -1.84091,-0.48106 -0.68181,-0.48485 -0.79924,-1.31818 l 1.58712,-0.0833 q 0.072,0.35227 0.34849,0.53787 0.27651,0.18182 0.70833,0.18182 0.42424,0 0.68182,-0.16288 0.26136,-0.16667 0.26515,-0.42804 -0.004,-0.21969 -0.1856,-0.35983 -0.18182,-0.14394 -0.56061,-0.2197 l -1.00758,-0.20076 q -0.85227,-0.17045 -1.26894,-0.59091 -0.41287,-0.42045 -0.41287,-1.07197 0,-0.5606 0.30303,-0.96591 0.30681,-0.40531 0.85984,-0.625 0.55682,-0.2197 1.30303,-0.2197 1.10228,0 1.73485,0.46591 0.63637,0.46591 0.74243,1.26894 z m -5.78789,-1.65909 v 1.21212 h -3.50378 v -1.21212 z m -2.70833,-1.39394 h 1.61364 v 5.42425 q 0,0.22348 0.0682,0.34848 0.0682,0.12121 0.18939,0.17046 0.125,0.0492 0.28788,0.0492 0.11364,0 0.22727,-0.0189 0.11364,-0.0227 0.17425,-0.0341 l 0.25378,1.20076 q -0.12121,0.0379 -0.34091,0.0871 -0.21969,0.053 -0.53409,0.0644 -0.58333,0.0227 -1.02272,-0.1553 -0.43561,-0.17803 -0.67803,-0.55303 -0.24243,-0.375 -0.23864,-0.94697 z m -4.02841,7.32576 q -0.89394,0 -1.53788,-0.37879 -0.64015,-0.38257 -0.98485,-1.0606 -0.34091,-0.67803 -0.34091,-1.56061 0,-0.89394 0.3447,-1.56818 0.34848,-0.67803 0.98864,-1.05682 0.64015,-0.38257 1.52272,-0.38257 0.76137,0 1.33334,0.27651 0.57197,0.27652 0.9053,0.77652 0.33333,0.5 0.36742,1.17424 h -1.52272 q -0.0644,-0.43561 -0.34091,-0.70076 -0.27273,-0.26894 -0.71591,-0.26894 -0.375,0 -0.65531,0.20455 -0.27651,0.20075 -0.43181,0.58712 -0.15531,0.38636 -0.15531,0.9356 0,0.55682 0.15152,0.94697 0.1553,0.39016 0.4356,0.5947 0.28031,0.20455 0.65531,0.20455 0.27651,0 0.49621,-0.11364 0.22348,-0.11364 0.36742,-0.32955 0.14773,-0.21969 0.19319,-0.52651 h 1.52272 q -0.0379,0.66667 -0.36363,1.17424 -0.32197,0.50379 -0.89015,0.78788 -0.56819,0.28409 -1.3447,0.28409 z m -5.52273,-2.59091 v -3.34091 h 1.61364 v 5.81819 h -1.54925 v -1.05682 h -0.0606 q -0.19697,0.51136 -0.6553,0.82197 -0.45455,0.31059 -1.10985,0.31059 -0.58334,0 -1.02652,-0.26515 -0.44318,-0.26515 -0.69318,-0.75379 -0.24621,-0.48863 -0.25,-1.17045 v -3.70455 h 1.61364 v 3.41667 q 0.004,0.51516 0.27651,0.81439 0.27273,0.29925 0.73106,0.29925 0.29167,0 0.54546,-0.13257 0.25378,-0.13636 0.40909,-0.40151 0.15909,-0.26517 0.1553,-0.65531 z m -8.35796,2.57197 q -0.66287,0 -1.20075,-0.34091 -0.53409,-0.3447 -0.84849,-1.01136 -0.3106,-0.67045 -0.3106,-1.64394 0,-1 0.32197,-1.66288 0.32196,-0.66667 0.85606,-0.99621 0.53787,-0.33333 1.17803,-0.33333 0.48863,0 0.81439,0.16666 0.32955,0.16288 0.5303,0.40909 0.20455,0.24243 0.31061,0.47728 h 0.0492 v -2.91667 h 1.60985 v 7.75758 h -1.59091 v -0.93182 h -0.0682 q -0.11364,0.24242 -0.32197,0.48106 -0.20455,0.23485 -0.53409,0.39015 -0.32576,0.1553 -0.79546,0.1553 z m 0.51137,-1.28409 q 0.39015,0 0.65909,-0.21212 0.27273,-0.21591 0.41667,-0.60227 0.14772,-0.38637 0.14772,-0.90531 0,-0.51893 -0.14394,-0.90151 -0.14394,-0.38258 -0.41666,-0.59091 -0.27273,-0.20833 -0.66288,-0.20833 -0.39773,0 -0.67046,0.21591 -0.27272,0.21591 -0.41288,0.59848 -0.14015,0.38258 -0.14015,0.88636 0,0.50758 0.14015,0.89773 0.14394,0.38637 0.41288,0.60606 0.27273,0.21591 0.67046,0.21591 z m -6.56818,1.30303 q -0.88258,0 -1.52652,-0.375 -0.64015,-0.37879 -0.98863,-1.05303 -0.34849,-0.67803 -0.34849,-1.57197 0,-0.90151 0.34849,-1.57576 0.34848,-0.67803 0.98863,-1.05303 0.64394,-0.37878 1.52652,-0.37878 0.88257,0 1.52273,0.37878 0.64393,0.375 0.99242,1.05303 0.34848,0.67425 0.34848,1.57576 0,0.89394 -0.34848,1.57197 -0.34849,0.67424 -0.99242,1.05303 -0.64016,0.375 -1.52273,0.375 z m 0.008,-1.25 q 0.40152,0 0.67046,-0.22727 0.26894,-0.23106 0.4053,-0.62879 0.14015,-0.39773 0.14015,-0.9053 0,-0.50758 -0.14015,-0.90531 -0.13636,-0.39773 -0.4053,-0.62879 -0.26894,-0.23106 -0.67046,-0.23106 -0.4053,0 -0.68181,0.23106 -0.27273,0.23106 -0.41288,0.62879 -0.13637,0.39772 -0.13637,0.90531 0,0.50756 0.13637,0.9053 0.14015,0.39773 0.41288,0.62879 0.27651,0.22727 0.68181,0.22727 z m -6.80345,1.13637 v -5.81819 h 1.56439 v 1.01516 h 0.0606 q 0.15909,-0.54167 0.53409,-0.81819 0.375,-0.2803 0.86363,-0.2803 0.12122,0 0.26137,0.0152 0.14015,0.0151 0.24621,0.0417 v 1.43182 q -0.11364,-0.0341 -0.31439,-0.0606 -0.20076,-0.0265 -0.36743,-0.0265 -0.35606,0 -0.63636,0.1553 -0.27652,0.15151 -0.4394,0.42424 -0.15909,0.27273 -0.15909,0.62879 v 3.29167 z m -6.75,2.18181 v -8 h 1.59091 v 0.97728 h 0.072 q 0.10606,-0.23485 0.30681,-0.47728 0.20455,-0.24621 0.53031,-0.40909 0.32954,-0.16666 0.81818,-0.16666 0.63636,0 1.17424,0.33333 0.53788,0.32954 0.85985,0.9962 0.32197,0.66288 0.32197,1.66288 0,0.97349 -0.3144,1.64394 -0.3106,0.66667 -0.84848,1.01136 -0.53409,0.34091 -1.19697,0.34091 -0.4697,0 -0.79924,-0.1553 -0.32576,-0.1553 -0.53409,-0.39015 -0.20834,-0.23864 -0.31818,-0.48106 h -0.0493 v 3.11363 z m 1.57954,-5.09091 q 0,0.51893 0.14394,0.9053 0.14394,0.38636 0.41667,0.60227 0.27273,0.21212 0.66288,0.21212 0.39394,0 0.66666,-0.21591 0.27273,-0.21969 0.41288,-0.60606 0.14394,-0.39015 0.14394,-0.89773 0,-0.50378 -0.14015,-0.88636 -0.14015,-0.38257 -0.41288,-0.59848 -0.27273,-0.21591 -0.67045,-0.21591 -0.39394,0 -0.66667,0.20833 -0.26894,0.20833 -0.41288,0.59091 -0.14394,0.38258 -0.14394,0.90152 z m -5.03409,-2.90909 v 1.21212 h -3.59091 v -1.21212 z m -2.76894,5.81819 v -6.23865 q 0,-0.63257 0.24621,-1.04924 0.25,-0.41667 0.68182,-0.625 0.43182,-0.20833 0.98106,-0.20833 0.37121,0 0.67803,0.0568 0.31061,0.0568 0.46212,0.10227 l -0.28788,1.21213 q -0.0947,-0.0303 -0.23485,-0.0568 -0.13636,-0.0265 -0.2803,-0.0265 -0.35606,0 -0.49621,0.16667 -0.14015,0.16288 -0.14015,0.45833 v 6.20834 z m -4.27273,0.11363 q -0.88257,0 -1.52651,-0.375 -0.64015,-0.37879 -0.98864,-1.05303 -0.34848,-0.67803 -0.34848,-1.57197 0,-0.90151 0.34848,-1.57576 0.34849,-0.67803 0.98864,-1.05303 0.64394,-0.37878 1.52651,-0.37878 0.88258,0 1.52273,0.37878 0.64394,0.375 0.99243,1.05303 0.34848,0.67425 0.34848,1.57576 0,0.89394 -0.34848,1.57197 -0.34849,0.67424 -0.99243,1.05303 -0.64015,0.375 -1.52273,0.375 z m 0.008,-1.25 q 0.40152,0 0.67045,-0.22727 0.26894,-0.23106 0.40531,-0.62879 0.14015,-0.39773 0.14015,-0.9053 0,-0.50758 -0.14015,-0.90531 -0.13637,-0.39773 -0.40531,-0.62879 -0.26893,-0.23106 -0.67045,-0.23106 -0.4053,0 -0.68182,0.23106 -0.27273,0.23106 -0.41288,0.62879 -0.13636,0.39772 -0.13636,0.90531 0,0.50756 0.13636,0.9053 0.14015,0.39773 0.41288,0.62879 0.27652,0.22727 0.68182,0.22727 z m -6.27505,-3.02273 -1.47727,0.0909 q -0.0379,-0.18939 -0.16288,-0.34091 -0.125,-0.15531 -0.32954,-0.24621 -0.20076,-0.0947 -0.48106,-0.0947 -0.375,0 -0.63258,0.15909 -0.25758,0.1553 -0.25758,0.41666 0,0.20834 0.16667,0.35228 0.16667,0.14394 0.57197,0.23106 l 1.05303,0.21212 q 0.84849,0.17424 1.26515,0.5606 0.41667,0.38637 0.41667,1.01516 0,0.57196 -0.33712,1.00378 -0.33334,0.43182 -0.91667,0.67425 -0.57954,0.23863 -1.33712,0.23863 -1.1553,0 -1.84091,-0.48106 -0.68182,-0.48485 -0.79924,-1.31818 l 1.58712,-0.0833 q 0.072,0.35227 0.34848,0.53787 0.27652,0.18182 0.70834,0.18182 0.42424,0 0.68182,-0.16288 0.26136,-0.16667 0.26515,-0.42804 -0.004,-0.21969 -0.18561,-0.35983 -0.18182,-0.14394 -0.5606,-0.2197 l -1.00758,-0.20076 q -0.85227,-0.17045 -1.26894,-0.59091 -0.41288,-0.42045 -0.41288,-1.07197 0,-0.5606 0.30303,-0.96591 0.30682,-0.40531 0.85985,-0.625 0.55682,-0.2197 1.30303,-0.2197 1.10227,0 1.73485,0.46591 0.63636,0.46591 0.74242,1.26894 z m -9.46779,4.25379 q -0.66288,0 -1.20076,-0.34091 -0.53409,-0.3447 -0.84849,-1.01136 -0.3106,-0.67045 -0.3106,-1.64394 0,-1 0.32197,-1.66288 0.32197,-0.66667 0.85606,-0.99621 0.53788,-0.33333 1.17803,-0.33333 0.48863,0 0.81439,0.16666 0.32955,0.16288 0.5303,0.40909 0.20455,0.24243 0.31061,0.47728 h 0.0492 v -2.91667 h 1.60985 v 7.75758 h -1.59091 v -0.93182 h -0.0682 q -0.11364,0.24242 -0.32197,0.48106 -0.20454,0.23485 -0.53409,0.39015 -0.32576,0.1553 -0.79545,0.1553 z m 0.51136,-1.28409 q 0.39015,0 0.65909,-0.21212 0.27273,-0.21591 0.41667,-0.60227 0.14772,-0.38637 0.14772,-0.90531 0,-0.51893 -0.14394,-0.90151 -0.14393,-0.38258 -0.41666,-0.59091 -0.27273,-0.20833 -0.66288,-0.20833 -0.39773,0 -0.67046,0.21591 -0.27272,0.21591 -0.41287,0.59848 -0.14016,0.38258 -0.14016,0.88636 0,0.50758 0.14016,0.89773 0.14394,0.38637 0.41287,0.60606 0.27273,0.21591 0.67046,0.21591 z m -7.666671,-2.17424 v 3.36364 h -1.613637 v -5.81819 h 1.537879 v 1.02652 h 0.06818 q 0.193182,-0.50758 0.647727,-0.80303 0.454546,-0.29924 1.102272,-0.29924 0.60606,0 1.05682,0.26515 0.45076,0.26515 0.70076,0.75757 0.25,0.48864 0.25,1.16667 v 3.70455 h -1.61364 v -3.41667 q 0.004,-0.53409 -0.27272,-0.83333 -0.27652,-0.30303 -0.76137,-0.30303 -0.325758,0 -0.575758,0.14015 -0.246212,0.14015 -0.386364,0.40909 -0.136363,0.26515 -0.140151,0.64015 z m -6.142046,3.47348 q -0.556818,0 -0.992424,-0.19318 -0.435606,-0.19697 -0.689394,-0.57955 -0.25,-0.38637 -0.25,-0.96211 0,-0.48485 0.17803,-0.81441 0.178031,-0.32954 0.484849,-0.5303 0.306818,-0.20076 0.69697,-0.30303 0.393939,-0.10227 0.825757,-0.14394 0.507576,-0.053 0.818182,-0.0985 0.310606,-0.0492 0.450758,-0.14393 0.140151,-0.0947 0.140151,-0.28031 v -0.0227 q 0,-0.35984 -0.227273,-0.55682 -0.223484,-0.19697 -0.636363,-0.19697 -0.435606,0 -0.693182,0.19319 -0.257576,0.18939 -0.340909,0.47727 l -1.492424,-0.12121 q 0.113636,-0.5303 0.446969,-0.91667 0.333334,-0.39015 0.859849,-0.59848 0.530303,-0.21212 1.227273,-0.21212 0.484848,0 0.92803,0.11363 0.44697,0.11364 0.791667,0.35228 0.348484,0.23863 0.549242,0.61363 0.200758,0.37121 0.200758,0.89015 v 3.92425 h -1.530304 v -0.80682 h -0.04545 q -0.140152,0.27272 -0.375,0.48106 -0.234849,0.20454 -0.564394,0.32197 -0.329545,0.11363 -0.761364,0.11363 z m 0.462122,-1.11363 q 0.35606,0 0.628787,-0.14015 0.272728,-0.14394 0.428031,-0.38637 0.155303,-0.24242 0.155303,-0.54924 v -0.61742 q -0.07576,0.0492 -0.208334,0.0909 -0.128787,0.0379 -0.291666,0.072 -0.162879,0.0303 -0.325758,0.0568 -0.162879,0.0227 -0.295454,0.0417 -0.284091,0.0417 -0.496213,0.13258 -0.212121,0.0909 -0.329545,0.2462 -0.117424,0.15151 -0.117424,0.3788 0,0.32954 0.238636,0.50378 0.242424,0.17046 0.613637,0.17046 z m -3.280303,-3.15531 -1.477273,0.0909 q -0.03788,-0.18939 -0.162879,-0.34091 -0.125,-0.15531 -0.329545,-0.24621 -0.200758,-0.0947 -0.481061,-0.0947 -0.375,0 -0.632576,0.15909 -0.257576,0.1553 -0.257576,0.41666 0,0.20834 0.166667,0.35228 0.166667,0.14394 0.57197,0.23106 l 1.05303,0.21212 q 0.848485,0.17424 1.265152,0.5606 0.416666,0.38637 0.416666,1.01516 0,0.57196 -0.337121,1.00378 -0.333333,0.43182 -0.916667,0.67425 -0.579545,0.23863 -1.337121,0.23863 -1.155303,0 -1.840909,-0.48106 -0.681818,-0.48485 -0.799242,-1.31818 l 1.587121,-0.0833 q 0.07197,0.35227 0.348485,0.53787 0.276515,0.18182 0.708333,0.18182 0.424242,0 0.681818,-0.16288 0.261364,-0.16667 0.265152,-0.42804 -0.0038,-0.21969 -0.185606,-0.35983 -0.181818,-0.14394 -0.560606,-0.2197 l -1.007576,-0.20076 q -0.852273,-0.17045 -1.26894,-0.59091 -0.412878,-0.42045 -0.412878,-1.07197 0,-0.5606 0.30303,-0.96591 0.306818,-0.40531 0.859848,-0.625 0.556819,-0.2197 1.303031,-0.2197 1.102273,0 1.734848,0.46591 0.636364,0.46591 0.742425,1.26894 z m -7.734849,1.68182 v -3.34091 h 1.613636 v 5.81819 h -1.549242 v -1.05682 h -0.06061 q -0.19697,0.51136 -0.655303,0.82197 -0.454546,0.31059 -1.109849,0.31059 -0.583333,0 -1.026515,-0.26515 -0.443182,-0.26515 -0.693182,-0.75379 -0.246212,-0.48863 -0.25,-1.17045 v -3.70455 h 1.613637 v 3.41667 q 0.0038,0.51516 0.276515,0.81439 0.272727,0.29925 0.731061,0.29925 0.291666,0 0.545454,-0.13257 0.253788,-0.13636 0.409091,-0.40151 0.159091,-0.26517 0.155303,-0.65531 z m -7.643941,2.59091 q -0.882575,0 -1.526515,-0.375 -0.640151,-0.37879 -0.988636,-1.05303 -0.348485,-0.67803 -0.348485,-1.57197 0,-0.90151 0.348485,-1.57576 0.348485,-0.67803 0.988636,-1.05303 0.64394,-0.37878 1.526515,-0.37878 0.882576,0 1.522728,0.37878 0.643939,0.375 0.992424,1.05303 0.348485,0.67425 0.348485,1.57576 0,0.89394 -0.348485,1.57197 -0.348485,0.67424 -0.992424,1.05303 -0.640152,0.375 -1.522728,0.375 z m 0.0076,-1.25 q 0.401515,0 0.670455,-0.22727 0.268939,-0.23106 0.405303,-0.62879 0.140151,-0.39773 0.140151,-0.9053 0,-0.50758 -0.140151,-0.90531 -0.136364,-0.39773 -0.405303,-0.62879 -0.26894,-0.23106 -0.670455,-0.23106 -0.405303,0 -0.681818,0.23106 -0.272727,0.23106 -0.412879,0.62879 -0.136364,0.39772 -0.136364,0.90531 0,0.50756 0.136364,0.9053 0.140152,0.39773 0.412879,0.62879 0.276515,0.22727 0.681818,0.22727 z m -7.689417,-2.22727 v 3.36364 h -1.613637 v -7.75758 h 1.568182 v 2.96591 h 0.06818 q 0.19697,-0.51515 0.636364,-0.80682 0.439394,-0.29545 1.102272,-0.29545 0.606061,0 1.056819,0.26515 0.454545,0.26136 0.704545,0.75379 0.253788,0.48863 0.25,1.17045 v 3.70455 h -1.613636 v -3.41667 q 0.0038,-0.53788 -0.272728,-0.83712 -0.272727,-0.29924 -0.765151,-0.29924 -0.329546,0 -0.583333,0.14015 -0.25,0.14015 -0.39394,0.40909 -0.140151,0.26515 -0.143939,0.64015 z m -2.789774,-2.45455 v 1.21212 h -3.503788 v -1.21212 z m -2.708333,-1.39394 h 1.613636 v 5.42425 q 0,0.22348 0.06818,0.34848 0.06818,0.12121 0.189394,0.17046 0.125,0.0492 0.287879,0.0492 0.113636,0 0.227273,-0.0189 0.113636,-0.0227 0.174242,-0.0341 l 0.253788,1.20076 q -0.121212,0.0379 -0.340909,0.0871 -0.219697,0.053 -0.534091,0.0644 -0.583333,0.0227 -1.022727,-0.1553 -0.435606,-0.17803 -0.678031,-0.55303 -0.242424,-0.375 -0.238636,-0.94697 z m -7.492424,7.30682 q -0.662879,0 -1.200758,-0.34091 -0.534091,-0.3447 -0.848485,-1.01136 -0.310606,-0.67045 -0.310606,-1.64394 0,-1 0.32197,-1.66288 0.32197,-0.66667 0.856061,-0.99621 0.537878,-0.33333 1.17803,-0.33333 0.488636,0 0.814394,0.16666 0.329545,0.16288 0.530303,0.40909 0.204545,0.24243 0.310606,0.47728 h 0.04924 v -2.91667 h 1.609849 v 7.75758 h -1.590909 v -0.93182 h -0.06818 q -0.113636,0.24242 -0.32197,0.48106 -0.204545,0.23485 -0.534091,0.39015 -0.325757,0.1553 -0.795454,0.1553 z m 0.511364,-1.28409 q 0.390151,0 0.65909,-0.21212 0.272728,-0.21591 0.416667,-0.60227 0.147727,-0.38637 0.147727,-0.90531 0,-0.51893 -0.143939,-0.90151 -0.143939,-0.38258 -0.416667,-0.59091 -0.272727,-0.20833 -0.662878,-0.20833 -0.397728,0 -0.670455,0.21591 -0.272727,0.21591 -0.412879,0.59848 -0.140151,0.38258 -0.140151,0.88636 0,0.50758 0.140151,0.89773 0.14394,0.38637 0.412879,0.60606 0.272727,0.21591 0.670455,0.21591 z m -7.666667,-2.17424 v 3.36364 h -1.613637 v -5.81819 h 1.537879 v 1.02652 h 0.06818 q 0.193182,-0.50758 0.647727,-0.80303 0.454546,-0.29924 1.102273,-0.29924 0.606061,0 1.056818,0.26515 0.450758,0.26515 0.700758,0.75757 0.25,0.48864 0.25,1.16667 v 3.70455 h -1.613636 v -3.41667 q 0.0038,-0.53409 -0.272728,-0.83333 -0.276515,-0.30303 -0.761363,-0.30303 -0.325758,0 -0.575758,0.14015 -0.246212,0.14015 -0.386364,0.40909 -0.136363,0.26515 -0.140151,0.64015 z m -4.50947,3.36364 v -5.81819 h 1.613637 v 5.81819 z m 0.814394,-6.56819 q -0.359848,0 -0.617424,-0.23863 -0.257576,-0.23864 -0.257576,-0.57576 0,-0.33712 0.257576,-0.57576 0.257576,-0.24242 0.613636,-0.24242 0.363637,0 0.617425,0.23863 0.257576,0.23864 0.257576,0.57576 0,0.33712 -0.257576,0.57955 -0.253788,0.23863 -0.613637,0.23863 z m -7.013258,6.56819 v -7.75758 h 5.136364 v 1.35227 h -3.496212 v 1.84849 h 3.155303 v 1.35227 h -3.155303 v 3.20455 z m 103.810603,21.25941 -1.47727,0.0909 q -0.0379,-0.18939 -0.16288,-0.34091 -0.125,-0.1553 -0.32954,-0.24621 -0.20076,-0.0947 -0.48106,-0.0947 -0.375,0 -0.63258,0.15909 -0.25758,0.1553 -0.25758,0.41666 0,0.20834 0.16667,0.35228 0.16667,0.14394 0.57197,0.23106 l 1.05303,0.21212 q 0.84849,0.17424 1.26515,0.5606 0.41667,0.38637 0.41667,1.01516 0,0.57196 -0.33712,1.00378 -0.33334,0.43182 -0.91667,0.67425 -0.57954,0.23863 -1.33712,0.23863 -1.1553,0 -1.84091,-0.48106 -0.68182,-0.48485 -0.79924,-1.31818 l 1.58712,-0.0833 q 0.072,0.35227 0.34848,0.53787 0.27652,0.18181 0.70834,0.18181 0.42424,0 0.68182,-0.16288 0.26136,-0.16666 0.26515,-0.42803 -0.004,-0.21969 -0.18561,-0.35984 -0.18182,-0.14393 -0.5606,-0.21969 l -1.00758,-0.20077 q -0.85227,-0.17044 -1.26894,-0.59091 -0.41288,-0.42044 -0.41288,-1.07197 0,-0.56059 0.30303,-0.96591 0.30682,-0.4053 0.85985,-0.625 0.55682,-0.21969 1.30303,-0.21969 1.10227,0 1.73485,0.46591 0.63636,0.4659 0.74242,1.26893 z m -5.78787,-1.65909 v 1.21212 h -3.50379 v -1.21212 z m -2.70834,-1.39393 h 1.61364 v 5.42425 q 0,0.22348 0.0682,0.34848 0.0682,0.1212 0.1894,0.17046 0.125,0.0492 0.28787,0.0492 0.11364,0 0.22728,-0.0189 0.11363,-0.0227 0.17424,-0.0341 l 0.25379,1.20076 q -0.12121,0.0379 -0.34091,0.0871 -0.2197,0.053 -0.53409,0.0644 -0.58334,0.0227 -1.02273,-0.1553 -0.43561,-0.17804 -0.67803,-0.55304 -0.24242,-0.375 -0.23864,-0.94696 z m -4.10984,7.32576 q -0.89773,0 -1.54546,-0.36363 -0.64394,-0.36743 -0.99242,-1.03788 -0.34849,-0.67425 -0.34849,-1.5947 0,-0.89773 0.34849,-1.57576 0.34848,-0.67803 0.98106,-1.05682 0.63636,-0.37878 1.49242,-0.37878 0.57576,0 1.07197,0.1856 0.5,0.18182 0.87121,0.54924 0.375,0.36743 0.58334,0.92425 0.20833,0.55303 0.20833,1.29545 v 0.44318 h -4.91288 v -1 h 3.39394 q 0,-0.34848 -0.15151,-0.61742 -0.15152,-0.26894 -0.42046,-0.42046 -0.26515,-0.1553 -0.61742,-0.1553 -0.36743,0 -0.65152,0.17046 -0.2803,0.16666 -0.43939,0.45074 -0.15909,0.28031 -0.16288,0.625 v 0.95077 q 0,0.43181 0.15909,0.7462 0.16288,0.3144 0.45833,0.48485 0.29546,0.17046 0.70076,0.17046 0.26894,0 0.49242,-0.0758 0.22349,-0.0758 0.38258,-0.22727 0.15909,-0.15152 0.24242,-0.37122 l 1.49243,0.0985 q -0.11364,0.53788 -0.46591,0.93939 -0.34848,0.39773 -0.90152,0.62121 -0.54924,0.2197 -1.26893,0.2197 z m -3.81061,-4.27274 -1.47727,0.0909 q -0.0379,-0.18939 -0.16288,-0.34091 -0.125,-0.1553 -0.32955,-0.24621 -0.20076,-0.0947 -0.48106,-0.0947 -0.375,0 -0.63257,0.15909 -0.25758,0.1553 -0.25758,0.41666 0,0.20834 0.16667,0.35228 0.16666,0.14394 0.57197,0.23106 l 1.05303,0.21212 q 0.84848,0.17424 1.26515,0.5606 0.41667,0.38637 0.41667,1.01516 0,0.57196 -0.33713,1.00378 -0.33333,0.43182 -0.91666,0.67425 -0.57955,0.23863 -1.33712,0.23863 -1.15531,0 -1.84091,-0.48106 -0.68182,-0.48485 -0.79925,-1.31818 l 1.58713,-0.0833 q 0.072,0.35227 0.34848,0.53787 0.27652,0.18181 0.70833,0.18181 0.42425,0 0.68182,-0.16288 0.26137,-0.16666 0.26515,-0.42803 -0.004,-0.21969 -0.1856,-0.35984 -0.18182,-0.14393 -0.56061,-0.21969 l -1.00757,-0.20077 q -0.85228,-0.17044 -1.26894,-0.59091 -0.41288,-0.42044 -0.41288,-1.07197 0,-0.56059 0.30303,-0.96591 0.30682,-0.4053 0.85985,-0.625 0.55681,-0.21969 1.30303,-0.21969 1.10227,0 1.73485,0.46591 0.63636,0.4659 0.74242,1.26893 z m -6,0 -1.47727,0.0909 q -0.0379,-0.18939 -0.16288,-0.34091 -0.125,-0.1553 -0.32955,-0.24621 -0.20076,-0.0947 -0.48106,-0.0947 -0.375,0 -0.63257,0.15909 -0.25758,0.1553 -0.25758,0.41666 0,0.20834 0.16667,0.35228 0.16666,0.14394 0.57197,0.23106 l 1.05303,0.21212 q 0.84848,0.17424 1.26515,0.5606 0.41667,0.38637 0.41667,1.01516 0,0.57196 -0.33713,1.00378 -0.33333,0.43182 -0.91666,0.67425 -0.57955,0.23863 -1.33712,0.23863 -1.15531,0 -1.84091,-0.48106 -0.68182,-0.48485 -0.79925,-1.31818 l 1.58713,-0.0833 q 0.072,0.35227 0.34848,0.53787 0.27652,0.18181 0.70833,0.18181 0.42425,0 0.68182,-0.16288 0.26137,-0.16666 0.26515,-0.42803 -0.004,-0.21969 -0.1856,-0.35984 -0.18182,-0.14393 -0.56061,-0.21969 l -1.00757,-0.20077 q -0.85228,-0.17044 -1.26894,-0.59091 -0.41288,-0.42044 -0.41288,-1.07197 0,-0.56059 0.30303,-0.96591 0.30682,-0.4053 0.85985,-0.625 0.55681,-0.21969 1.30303,-0.21969 1.10227,0 1.73485,0.46591 0.63636,0.4659 0.74242,1.26893 z m -9.36932,4.26895 q -0.55682,0 -0.99242,-0.19319 -0.43561,-0.19696 -0.6894,-0.57954 -0.25,-0.38637 -0.25,-0.96212 0,-0.48485 0.17803,-0.8144 0.17803,-0.32954 0.48485,-0.5303 0.30682,-0.20076 0.69697,-0.30303 0.39394,-0.10227 0.82576,-0.14394 0.50757,-0.053 0.81818,-0.0985 0.31061,-0.0492 0.45076,-0.14394 0.14015,-0.0947 0.14015,-0.2803 v -0.0227 q 0,-0.35984 -0.22727,-0.55681 -0.22349,-0.19697 -0.63637,-0.19697 -0.4356,0 -0.69318,0.19318 -0.25757,0.1894 -0.34091,0.47728 l -1.49242,-0.12121 q 0.11363,-0.53031 0.44697,-0.91667 0.33333,-0.39016 0.85985,-0.59848 0.5303,-0.21212 1.22727,-0.21212 0.48485,0 0.92803,0.11363 0.44697,0.11364 0.79167,0.35228 0.34848,0.23863 0.54924,0.61363 0.20076,0.37121 0.20076,0.89015 v 3.92425 h -1.53031 v -0.80682 h -0.0455 q -0.14015,0.27272 -0.375,0.48106 -0.23485,0.20454 -0.5644,0.32197 -0.32954,0.11363 -0.76136,0.11363 z m 0.46212,-1.11363 q 0.35606,0 0.62879,-0.14015 0.27273,-0.14394 0.42803,-0.38637 0.1553,-0.24243 0.1553,-0.54924 v -0.61743 q -0.0757,0.0492 -0.20833,0.0909 -0.12879,0.0379 -0.29167,0.072 -0.16288,0.0303 -0.32575,0.0568 -0.16288,0.0227 -0.29546,0.0417 -0.28409,0.0417 -0.49621,0.13257 -0.21212,0.0909 -0.32955,0.24621 -0.11742,0.15151 -0.11742,0.37879 0,0.32955 0.23864,0.50378 0.24242,0.17046 0.61363,0.17046 z m -8.954546,1.00379 v -5.81819 h 1.564396 v 1.01516 h 0.0606 q 0.1591,-0.54167 0.5341,-0.81819 0.375,-0.2803 0.86363,-0.2803 0.12121,0 0.26137,0.0152 0.14015,0.0151 0.24621,0.0417 v 1.43182 q -0.11364,-0.0341 -0.3144,-0.0606 -0.20075,-0.0265 -0.36742,-0.0265 -0.35606,0 -0.63636,0.1553 -0.27652,0.15151 -0.4394,0.42424 -0.15909,0.27273 -0.15909,0.62879 v 3.29167 z m -2.893939,-2.47728 v -3.34092 h 1.613637 v 5.81819 h -1.549243 v -1.05682 h -0.06061 q -0.19697,0.51136 -0.655303,0.82197 -0.454546,0.3106 -1.109849,0.3106 -0.583333,0 -1.026515,-0.26515 -0.443182,-0.26515 -0.693182,-0.75379 -0.246212,-0.48863 -0.25,-1.17045 v -3.70455 h 1.613637 v 3.41667 q 0.0038,0.51515 0.276515,0.81439 0.272727,0.29925 0.731061,0.29925 0.291666,0 0.545454,-0.13258 0.253788,-0.13636 0.409091,-0.40151 0.159091,-0.26516 0.155303,-0.6553 z m -7.643941,2.59091 q -0.882575,0 -1.526515,-0.375 -0.640151,-0.37879 -0.988636,-1.05303 -0.348485,-0.67803 -0.348485,-1.57197 0,-0.90151 0.348485,-1.57576 0.348485,-0.67803 0.988636,-1.05303 0.64394,-0.37878 1.526515,-0.37878 0.882576,0 1.522728,0.37878 0.643939,0.375 0.992424,1.05303 0.348485,0.67425 0.348485,1.57576 0,0.89394 -0.348485,1.57197 -0.348485,0.67424 -0.992424,1.05303 -0.640152,0.375 -1.522728,0.375 z m 0.0076,-1.25 q 0.401515,0 0.670455,-0.22727 0.268939,-0.23107 0.405303,-0.62879 0.140151,-0.39773 0.140151,-0.90531 0,-0.50757 -0.140151,-0.9053 -0.136364,-0.39773 -0.405303,-0.62879 -0.26894,-0.23106 -0.670455,-0.23106 -0.405303,0 -0.681818,0.23106 -0.272727,0.23106 -0.412879,0.62879 -0.136363,0.39772 -0.136363,0.9053 0,0.50757 0.136363,0.90531 0.140152,0.39772 0.412879,0.62879 0.276515,0.22727 0.681818,0.22727 z m -7.681839,3.30682 q -0.306819,0 -0.575758,-0.0492 -0.265152,-0.0455 -0.439394,-0.11364 l 0.363636,-1.20833 q 0.428031,0.13257 0.719697,0.0682 0.295455,-0.0606 0.465909,-0.45455 l 0.0947,-0.24621 -2.087121,-5.98485 h 1.69697 l 1.204545,4.27273 h 0.06061 l 1.21591,-4.27273 1.708333,0.008 -2.261364,6.43939 q -0.162879,0.46591 -0.443182,0.81061 -0.276515,0.34847 -0.700757,0.53788 -0.424243,0.19318 -1.022727,0.19318 z m -7.198865,-2.05682 q -0.897728,0 -1.545455,-0.36363 -0.643939,-0.36743 -0.992424,-1.03788 -0.348485,-0.67425 -0.348485,-1.5947 0,-0.89773 0.348485,-1.57576 0.348485,-0.67803 0.98106,-1.05682 0.636364,-0.37878 1.492425,-0.37878 0.575757,0 1.071969,0.1856 0.5,0.18182 0.871213,0.54924 0.375,0.36743 0.583333,0.92425 0.208333,0.55303 0.208333,1.29545 v 0.44318 h -4.912879 v -1 h 3.39394 q 0,-0.34848 -0.151515,-0.61742 -0.151515,-0.26894 -0.420455,-0.42046 -0.265151,-0.1553 -0.617424,-0.1553 -0.367424,0 -0.651515,0.17046 -0.280303,0.16666 -0.439394,0.45074 -0.159091,0.28031 -0.162879,0.625 v 0.95077 q 0,0.43181 0.159091,0.7462 0.162879,0.3144 0.458333,0.48485 0.295455,0.17046 0.700758,0.17046 0.268939,0 0.492424,-0.0758 0.223485,-0.0758 0.382576,-0.22727 0.159091,-0.15152 0.242424,-0.37122 l 1.492424,0.0985 q -0.113636,0.53788 -0.465909,0.93939 -0.348485,0.39773 -0.901515,0.62121 -0.549242,0.2197 -1.268939,0.2197 z m -6.780303,2.15151 q -0.784091,0 -1.344697,-0.21212 -0.556819,-0.21213 -0.886364,-0.57196 -0.329546,-0.35985 -0.42803,-0.79926 l 1.492424,-0.20074 q 0.06818,0.15908 0.215909,0.29923 0.147727,0.14394 0.390152,0.23485 0.246212,0.0909 0.598484,0.0909 0.526516,0 0.867425,-0.25 0.344697,-0.25 0.344697,-0.82196 v -1.06441 h -0.06818 q -0.106061,0.24244 -0.318182,0.45834 -0.212121,0.2159 -0.545455,0.35227 -0.333333,0.13636 -0.795454,0.13636 -0.655303,0 -1.193182,-0.30303 -0.534091,-0.30682 -0.852273,-0.9356 -0.314394,-0.63257 -0.314394,-1.59849 0,-0.98864 0.32197,-1.65151 0.32197,-0.66288 0.856061,-0.99243 0.537878,-0.32954 1.17803,-0.32954 0.488636,0 0.818182,0.16666 0.329545,0.16288 0.530303,0.40909 0.204545,0.24243 0.314394,0.47728 h 0.06061 v -0.97728 h 1.602273 v 5.875 q 0,0.72728 -0.363637,1.21591 -0.363636,0.49243 -1.007575,0.74243 -0.640152,0.25 -1.473485,0.25 z m 0.03409,-3.56061 q 0.390151,0 0.65909,-0.19318 0.272728,-0.19697 0.416667,-0.56061 0.147727,-0.36742 0.147727,-0.87878 0,-0.51137 -0.143939,-0.88637 -0.143939,-0.37879 -0.416667,-0.58712 -0.272727,-0.20833 -0.662878,-0.20833 -0.397728,0 -0.670455,0.21592 -0.272727,0.21211 -0.412879,0.59091 -0.140151,0.37878 -0.140151,0.875 0,0.50378 0.140151,0.8712 0.14394,0.36363 0.412879,0.5644 0.272727,0.19696 0.670455,0.19696 z m -7.183712,1.40531 q -0.556818,0 -0.992424,-0.19319 -0.435606,-0.19696 -0.689394,-0.57954 -0.25,-0.38637 -0.25,-0.96212 0,-0.48485 0.17803,-0.8144 0.178031,-0.32954 0.484849,-0.5303 0.306818,-0.20076 0.69697,-0.30303 0.393939,-0.10227 0.825757,-0.14394 0.507576,-0.053 0.818182,-0.0985 0.310606,-0.0492 0.450758,-0.14394 0.140151,-0.0947 0.140151,-0.2803 v -0.0227 q 0,-0.35984 -0.227273,-0.55681 -0.223484,-0.19697 -0.636363,-0.19697 -0.435606,0 -0.693182,0.19318 -0.257576,0.1894 -0.340909,0.47728 l -1.492424,-0.12121 q 0.113636,-0.53031 0.446969,-0.91667 0.333334,-0.39016 0.859849,-0.59848 0.530303,-0.21212 1.227273,-0.21212 0.484848,0 0.92803,0.11363 0.44697,0.11364 0.791667,0.35228 0.348484,0.23863 0.549242,0.61363 0.200758,0.37121 0.200758,0.89015 v 3.92425 h -1.530303 v -0.80682 h -0.04545 q -0.140152,0.27272 -0.375,0.48106 -0.234849,0.20454 -0.564394,0.32197 -0.329545,0.11363 -0.761364,0.11363 z m 0.462122,-1.11363 q 0.35606,0 0.628787,-0.14015 0.272728,-0.14394 0.428031,-0.38637 0.155303,-0.24243 0.155303,-0.54924 v -0.61743 q -0.07576,0.0492 -0.208333,0.0909 -0.128788,0.0379 -0.291667,0.072 -0.162879,0.0303 -0.325758,0.0568 -0.162879,0.0227 -0.295454,0.0417 -0.284091,0.0417 -0.496212,0.13257 -0.212122,0.0909 -0.329546,0.24621 -0.117424,0.15151 -0.117424,0.37879 0,0.32955 0.238636,0.50378 0.242424,0.17046 0.613637,0.17046 z m -7.132576,-2.35985 v 3.36364 h -1.613637 v -5.81819 h 1.537879 v 1.02652 h 0.06818 q 0.193182,-0.50758 0.647727,-0.80303 0.454546,-0.29924 1.102273,-0.29924 0.606061,0 1.056818,0.26515 0.450758,0.26515 0.700758,0.75757 0.25,0.48864 0.25,1.16667 v 3.70455 h -1.613636 v -3.41667 q 0.0038,-0.53409 -0.272728,-0.83333 -0.276515,-0.30303 -0.761363,-0.30303 -0.325758,0 -0.575758,0.14015 -0.246212,0.14015 -0.386364,0.40909 -0.136363,0.26515 -0.140151,0.64015 z m -6.142046,3.47348 q -0.556818,0 -0.992424,-0.19319 -0.435606,-0.19696 -0.689394,-0.57954 -0.25,-0.38637 -0.25,-0.96212 0,-0.48485 0.17803,-0.8144 0.178031,-0.32954 0.484849,-0.5303 0.306818,-0.20076 0.69697,-0.30303 0.393939,-0.10227 0.825757,-0.14394 0.507576,-0.053 0.818182,-0.0985 0.310606,-0.0492 0.450758,-0.14394 0.140151,-0.0947 0.140151,-0.2803 v -0.0227 q 0,-0.35984 -0.227273,-0.55681 -0.223484,-0.19697 -0.636363,-0.19697 -0.435606,0 -0.693182,0.19318 -0.257576,0.1894 -0.340909,0.47728 l -1.492424,-0.12121 q 0.113636,-0.53031 0.446969,-0.91667 0.333334,-0.39016 0.859849,-0.59848 0.530303,-0.21212 1.227273,-0.21212 0.484848,0 0.92803,0.11363 0.44697,0.11364 0.791667,0.35228 0.348484,0.23863 0.549242,0.61363 0.200758,0.37121 0.200758,0.89015 v 3.92425 h -1.530303 v -0.80682 h -0.04545 q -0.140152,0.27272 -0.375,0.48106 -0.234849,0.20454 -0.564394,0.32197 -0.329545,0.11363 -0.761364,0.11363 z m 0.462122,-1.11363 q 0.35606,0 0.628787,-0.14015 0.272728,-0.14394 0.428031,-0.38637 0.155303,-0.24243 0.155303,-0.54924 v -0.61743 q -0.07576,0.0492 -0.208333,0.0909 -0.128788,0.0379 -0.291667,0.072 -0.162879,0.0303 -0.325758,0.0568 -0.162879,0.0227 -0.295454,0.0417 -0.284091,0.0417 -0.496212,0.13257 -0.212122,0.0909 -0.329546,0.24621 -0.117424,0.15151 -0.117424,0.37879 0,0.32955 0.238636,0.50378 0.242424,0.17046 0.613637,0.17046 z m -11.84091,-6.7538 h 2.022728 l 2.136363,5.21212 h 0.09091 l 2.136363,-5.21212 h 2.022728 v 7.75758 h -1.59091 v -5.04925 h -0.06439 l -2.007576,5.01137 h -1.083334 l -2.007575,-5.03031 h -0.06439 v 5.06819 h -1.59091 z" />
    </g>
  </g>
</svg>
