<svg id="SVGRoot" width="1366px" height="384px" version="1.1" viewBox="0 0 1366 384" xmlns="http://www.w3.org/2000/svg">
 <defs>
  <clipPath id="clipPath3383">
   <path d="m1012.9 0h-857.88v2099.6h857.88z"/>
  </clipPath>
  <clipPath id="clipPath3435">
   <path d="m6377 0h-1094.2v1807h1094.2z"/>
  </clipPath>
  <clipPath id="clipPath3495">
   <path d="m6519.6 1737h980.42v-1433.6h-980.42z"/>
  </clipPath>
  <clipPath id="clipPath3535">
   <path d="m7500 946.72h-1429.1v2890h1429.1z"/>
  </clipPath>
  <filter id="filter7027" color-interpolation-filters="sRGB">
   <feColorMatrix result="colormatrix1" type="luminanceToAlpha"/>
   <feFlood flood-color="rgb(255,81,245)" flood-opacity="0" result="flood1"/>
   <feComposite in2="colormatrix1" operator="in" result="composite1"/>
   <feFlood flood-color="rgb(29,182,239)" result="flood2"/>
   <feComposite in2="colormatrix1" operator="out" result="composite2"/>
   <feComposite in="composite2" in2="composite1" k2="1" k3="1" operator="arithmetic" result="composite3"/>
   <feColorMatrix in="composite3" result="colormatrix2" values="2 -1 0 0 0 0 2 -1 0 0 -1 0 2 0 0 0 0 0 1 0 "/>
   <feComposite in="colormatrix2" in2="composite3" operator="arithmetic" result="composite4"/>
   <feBlend in="composite4" in2="composite3" result="blend"/>
   <feComposite in2="SourceGraphic" operator="in" result="fbSourceGraphic"/>
   <feColorMatrix in="fbSourceGraphic" result="fbSourceGraphicAlpha" values="0 0 0 -1 0 0 0 0 -1 0 0 0 0 -1 0 0 0 0 1 0"/>
   <feColorMatrix in="fbSourceGraphic" result="colormatrix1" type="luminanceToAlpha"/>
   <feFlood flood-color="rgb(22,82,240)" result="flood1"/>
   <feComposite in2="colormatrix1" operator="in" result="composite1"/>
   <feFlood flood-color="rgb(22,82,240)" result="flood2"/>
   <feComposite in2="colormatrix1" operator="out" result="composite2"/>
   <feComposite in="composite2" in2="composite1" k2="1" k3="1" operator="arithmetic" result="composite3"/>
   <feColorMatrix in="composite3" result="colormatrix2" values="2 -1 0 0 0 0 2 -1 0 0 -1 0 2 0 0 0 0 0 1 0 "/>
   <feComposite in="colormatrix2" in2="composite3" operator="arithmetic" result="composite4"/>
   <feBlend in="composite4" in2="composite3" result="blend"/>
   <feComposite in2="fbSourceGraphic" operator="in"/>
  </filter>
 </defs>
 <rect x="-1.8865" y="-.74045" width="1369.6" height="390.51" fill="#111" style="paint-order:stroke fill markers"/>
 <g transform="matrix(.080008 0 0 -.080008 -2.1977 389.12)" filter="url(#filter7027)">
  <g>
   <path d="m4644.4 4610h-69.61v-360h-745.25v-300h-669.18v-994.61h-797.01v179.61h-102.05v207.59h-83.73v133.43c0 158.2-121.71 287.9-276.59 300.77v423.21h-50.64v-423.21c-154.88-12.87-276.59-142.57-276.59-300.77v-133.43h-83.73v-207.59h-102.06v-919.44h-337.94v270.63h-154.16v397.14h-548.44v-397.14h-347.4v-1336.3h4884.4v3100.1h-239.98v360" fill="#88d8f0"/>
   <path d="m7045.4 2785.4v467.75h-669.27v626.86h-123.42v185h-124.69v229.14h-553.97v-229.14h-124.68v-185h-123.43v-2730.1h2174.1v1635.5h-454.61" fill="#88d8f0"/>
   <path d="m2756.7 1149.9h-786.67c5.01 33.23 23.74 68.25 53.82 83.24s67.44 14.35 96.99-1.67c15.47 48.16 57.32 90.38 105.51 105.76 48.19 15.37 103.55 6.05 144.05-24.25 13.17 14.69 39.85 20.43 59.2 16.55 19.34-3.88 36.16-18.51 42.66-37.15 36.31 19.87 87.97 15.3 125.35-2.47 37.38-17.76 65.34-54.15 72.86-94.85 31.74 14.47 69.23-14.7 86.23-45.16" fill="#44b4be"/>
   <path d="m7358 1149.9h-6714.7c5.274 156.95 243.57 268.43 400.01 254.61 156.43-13.82 322.73-68.23 463.86 0.65 171.82 83.84 229.15 316.33 399.69 402.77 184.18 93.34 422.04-21.8 608.29 67.34 265.9 127.26 233.79 557.8 481.06 718.29 138.28 89.75 321.02 64.2 477.66 12.78 156.63-51.43 310.79-126.18 475.65-125.61 331.22 1.15 578.48 294.52 878.08 435.78 378.45 178.43 866.5 87.43 1155.2-215.43 264.61-277.56 380.78-712.39 730.4-869.96 115.66-52.12 244.17-66.22 367.34-96.59 123.16-30.38 249.32-83.01 321.51-187.31 72.19-104.32 64.27-331.3-44.05-397.32" fill="#5bc9f4"/>
   <path d="m6733.1 2733c-329.76-467.82-312.14-865.21-312.14-1017.7 0-157.67 116.93-287.97 268.8-309.07v-256.36h86.67v256.36c151.86 21.1 268.79 151.4 268.79 309.07 0 152.47 17.63 549.86-312.12 1017.7" fill="#58a2de"/>
   <path d="m7106 2427.4c-266.1-377.52-251.88-698.18-251.88-821.22 0-127.24 94.37-232.38 216.91-249.41v-206.87h69.94v206.87c122.55 17.03 216.91 122.17 216.91 249.41 0 123.04 14.22 443.7-251.88 821.22" fill="#508fd3"/>
   <path d="m2634.3 2906.5c-365.88-519.09-346.33-960-346.33-1129.2 0-174.95 129.75-319.52 298.25-342.93v-284.45h96.16v284.45c168.51 23.41 298.25 167.98 298.25 342.93 0 169.18 19.56 610.09-346.33 1129.2" fill="#58a2de"/>
   <path d="m2202.2 2332.8c-246.39-349.57-233.23-646.48-233.23-760.42 0-117.81 87.38-215.16 200.85-230.94v-191.55h64.76v191.55c113.48 15.78 200.85 113.13 200.85 230.94 0 113.94 13.17 410.85-233.23 760.42" fill="#508fd3"/>
   <path d="m3884.9 3265.8c-440.72-625.26-417.17-1156.4-417.17-1360.2 0-210.73 156.28-384.87 359.25-413.07v-342.63h115.83v342.63c202.98 28.2 359.26 202.34 359.26 413.07 0 203.79 23.56 734.9-417.17 1360.2" fill="#58a2de"/>
   <path d="m3435.3 2870c-358.28-508.31-339.13-940.07-339.13-1105.7 0-171.31 127.05-312.88 292.05-335.81v-278.54h94.17v278.54c165 22.93 292.05 164.5 292.05 335.81 0 165.66 19.15 597.42-339.14 1105.7" fill="#508fd3"/>
   <path d="m7500 1149.9h-7500v-1149.9h7500v1149.9" fill="#d1f0f6"/>
  </g>
  <g fill="#5bc9f4">
   <path d="m2476.9 546.67h-851.79c-8.49 0-15.38 6.879-15.38 15.379 0 8.488 6.89 15.379 15.38 15.379h851.79c8.49 0 15.38-6.891 15.38-15.379 0-8.5-6.89-15.379-15.38-15.379"/>
   <path d="m3622 711.05h-851.78c-8.5 0-15.39 6.879-15.39 15.371 0 8.488 6.89 15.379 15.39 15.379h851.78c8.49 0 15.38-6.891 15.38-15.379 0-8.492-6.89-15.371-15.38-15.371"/>
   <path d="m5820.3 597.85h-1199.7c-8.5 0-15.39 6.89-15.39 15.378 0 8.5 6.89 15.379 15.39 15.379h1199.7c8.5 0 15.38-6.879 15.38-15.379 0-8.488-6.88-15.378-15.38-15.378"/>
   <path d="m2651.2 916.12h-2379.2c-8.492 0-15.383 6.891-15.383 15.379 0 8.5 6.891 15.391 15.383 15.391h2379.2c8.49 0 15.38-6.891 15.38-15.391 0-8.488-6.89-15.379-15.38-15.379"/>
   <path d="m5324.4 916.12h-2608.9c-8.49 0-15.37 6.891-15.37 15.379 0 8.5 6.88 15.391 15.37 15.391h2608.9c8.5 0 15.38-6.891 15.38-15.391 0-8.488-6.88-15.379-15.38-15.379"/>
   <path d="m7500 916.12h-1567.5c-8.5 0-15.38 6.891-15.38 15.379 0 8.5 6.88 15.391 15.38 15.391h1567.5v-30.77"/>
   <path d="m7500 392.83h-1653.5c-8.49 0-15.38 6.887-15.38 15.379 0 8.488 6.89 15.379 15.38 15.379h1653.5v-30.758"/>
  </g>
  <g>
   <path d="m4460.7 945.75h-55.37v2408h55.37v-2408" fill="#fff"/>
   <path d="m3258 3147.6 1175 637.39 1175.1-637.39z" fill="#e9465c"/>
   <path d="m3551.9 3147.6 881.19 637.39 881.2-637.39z" fill="#fff"/>
   <path d="m3886.2 3147.6 546.85 637.39 546.84-637.39z" fill="#e9465c"/>
   <path d="m4240.1 3147.6 192.96 637.39 192.97-637.39z" fill="#fff"/>
   <path d="m3258 3147.6v-39.66c0-55.53 65.78-100.56 146.93-100.56 81.14 0 146.93 45.03 146.93 100.56v39.66h-293.86" fill="#bd2b61"/>
   <path d="m3551.9 3147.6v-39.66c0-55.53 65.78-100.56 146.93-100.56h40.48c81.15 0 146.93 45.03 146.93 100.56v39.66h-334.34" fill="#f0ebe7"/>
   <path d="m3886.2 3147.6v-39.66c0-55.53 65.79-100.56 146.93-100.56h60.02c81.15 0 146.94 45.03 146.94 100.56v39.66h-353.89" fill="#bd2b61"/>
   <path d="m5314.3 3147.6v-39.66c0-55.53 65.78-100.56 146.92-100.56 81.15 0 146.94 45.03 146.94 100.56v39.66h-293.86" fill="#bd2b61"/>
   <path d="m4979.9 3147.6v-39.66c0-55.53 65.79-100.56 146.94-100.56h40.48c81.15 0 146.94 45.03 146.94 100.56v39.66h-334.36" fill="#f0ebe7"/>
   <path d="m4626 3147.6v-39.66c0-55.53 65.79-100.56 146.93-100.56h60.02c81.14 0 146.92 45.03 146.92 100.56v39.66h-353.87" fill="#bd2b61"/>
   <path d="m4240.1 3147.6v-39.66c0-55.53 65.78-100.56 146.92-100.56h92.07c81.15 0 146.94 45.03 146.94 100.56v39.66h-385.93" fill="#f0ebe7"/>
   <path d="m4280.3 1486.1h-846.61v565.95h846.61v-565.95" fill="#d5555f"/>
  </g>
  <g fill="#9f2e46">
   <path d="m4610.1 1486.1h-329.76v565.95h329.76v-565.95"/>
   <path d="m3479.7 2019.4v-500.71h352.73v500.71h-352.73"/>
   <path d="m4247.7 2019.4h-382.68v-500.71h382.68v500.71"/>
  </g>
  <g>
   <path d="m3460.3 2019.4v-500.71h352.74v500.71h-352.74" fill="#f57a5d"/>
   <path d="m4228.4 2019.4h-382.7v-500.71h382.7v500.71" fill="#f57a5d"/>
   <path d="m3784.6 1757.6c0-7.72-6.26-13.98-13.97-13.98-7.72 0-13.97 6.26-13.97 13.98 0 7.71 6.25 13.97 13.97 13.97 7.71 0 13.97-6.26 13.97-13.97" fill="#fab850"/>
   <path d="m3776.2 1757.6c0-12.27-9.93-22.2-22.19-22.2s-22.2 9.93-22.2 22.2c0 12.25 9.94 22.2 22.2 22.2s22.19-9.95 22.19-22.2" fill="#fcd67f"/>
   <path d="m3891.4 1757.6c0-7.72-6.25-13.98-13.98-13.98-7.71 0-13.96 6.26-13.96 13.98 0 7.71 6.25 13.97 13.96 13.97 7.73 0 13.98-6.26 13.98-13.97" fill="#fab850"/>
   <path d="m3883.1 1757.6c0-12.27-9.94-22.2-22.2-22.2-12.27 0-22.2 9.93-22.2 22.2 0 12.25 9.93 22.2 22.2 22.2 12.26 0 22.2-9.95 22.2-22.2" fill="#fcd67f"/>
  </g>
  <g fill="#9f2e46">
   <path d="m4542.4 945.75h46.21l-37.15 540.32h-46.21l37.15-540.32"/>
   <path d="m4547.9 1050.9h-194.71v41.68h194.71c11.5 0 20.82-9.32 20.82-20.82v-0.04c0-11.49-9.32-20.82-20.82-20.82"/>
   <path d="m4365 945.75h-46.21l37.15 540.32h46.21l-37.15-540.32"/>
   <path d="m3719.4 1486.1h-46.21l5.37-77.99h46.21l-5.37 77.99"/>
  </g>
  <g>
   <path d="m3678.6 1408.1 31.79-462.33h46.21l-31.79 462.33h-46.21" fill="#d5555f"/>
   <path d="m3715.8 1050.9h-194.7v41.68h194.7c11.5 0 20.82-9.32 20.82-20.82v-0.04c0-11.49-9.32-20.82-20.82-20.82" fill="#9f2e46"/>
   <path d="m3486.7 945.75h46.21l31.79 462.33h-46.21l-31.79-462.33" fill="#d5555f"/>
   <path d="m3523.9 1486.1-5.36-77.99h46.21l5.36 77.99h-46.21" fill="#9f2e46"/>
   <path d="m1512.5 946.89h-495.39v646.89h495.39v-646.89" fill="#f4892d"/>
   <path d="m1512.5 946.89h280.24v646.89h-280.24v-646.89" fill="#d55e3e"/>
   <path d="m4211.4 1583 113.81-271.02h48.22l-126.05 300.12-35.98-29.1" fill="#e9465c"/>
   <path d="m4459.2 1612.1h-211.76l126.05-300.12h211.76l-126.05 300.12" fill="#f57e5a"/>
   <path d="m4274.4 1641 113.83-271.01h48.21l-126.04 300.11-36-29.1" fill="#3f244a"/>
   <path d="m4522.2 1670h-211.76l126.04-300.11h211.76l-126.04 300.11" fill="#52adc3"/>
   <path d="m4379.5 1600.2 113.83-271.01h48.21l-126.04 300.11-36-29.1" fill="#65cbc3"/>
   <path d="m4627.2 1629.2h-211.76l126.04-300.11h211.76l-126.04 300.11" fill="#cbede3"/>
   <path d="m4472.7 1569.7 113.82-271.02h48.22l-126.05 300.12-35.99-29.1" fill="#d7d1b8"/>
   <path d="m4720.4 1598.8h-211.76l126.05-300.12h211.75l-126.04 300.12" fill="#fff"/>
   <path d="m4978.6 1614.7c-142.21 44.45-293.54-34.8-338.01-177.02-1.29-4.18-0.79-8.5 1.1-12.09l346.24 181.32c-1.89 3.6-5.15 6.48-9.33 7.79" fill="#e9465c"/>
   <path d="m4989.1 1594.8c1.31 4.18 0.8 8.5-1.08 12.1l-346.24-181.32c1.88-3.61 5.14-6.48 9.32-7.79 142.22-44.46 293.55 34.8 338 177.01" fill="#bd2b61"/>
   <path d="m4705.1 1545.6c-9.11-9.33-17.58-19.35-25.33-30.04l28.8-54.98 32.21 16.87-35.68 68.15" fill="#fff"/>
   <path d="m4708.5 1460.6 28.79-54.98c13.2 0.27 26.26 1.52 39.12 3.71l-35.7 68.14-32.21-16.87" fill="#c6d7d9"/>
   <path d="m4950 1517-28.8 54.99-32.21-16.87 35.69-68.15c9.11 9.32 17.58 19.35 25.32 30.03" fill="#c6d7d9"/>
  </g>
  <g fill="#fff">
   <path d="m4892.4 1626.9c-13.19-0.28-26.26-1.53-39.11-3.71l35.69-68.14 32.21 16.87-28.79 54.98"/>
   <path d="m4875.7 1512.6-29.22 55.79c-1.01 1.94-0.26 4.34 1.67 5.36 1.95 1.02 4.35 0.26 5.36-1.68l29.22-55.79c1.02-1.94 0.27-4.35-1.67-5.36-1.94-1.02-4.34-0.27-5.36 1.68"/>
   <path d="m4855.8 1502.2-29.23 55.79c-1.01 1.94-0.26 4.34 1.68 5.36s4.34 0.26 5.35-1.68l29.23-55.79c1.02-1.94 0.27-4.35-1.68-5.36-1.94-1.02-4.33-0.27-5.35 1.68"/>
   <path d="m4835.9 1491.8-29.22 55.79c-1.02 1.94-0.26 4.33 1.67 5.35 1.94 1.03 4.35 0.27 5.36-1.67l29.22-55.8c1.02-1.93 0.26-4.34-1.67-5.35-1.94-1.02-4.35-0.27-5.36 1.68"/>
   <path d="m4816 1481.3-29.23 55.8c-1.02 1.94-0.27 4.34 1.68 5.35 1.94 1.02 4.33 0.27 5.35-1.67l29.23-55.8c1.01-1.93 0.26-4.34-1.68-5.35-1.95-1.02-4.34-0.27-5.35 1.67"/>
   <path d="m4796.1 1470.9-29.21 55.8c-1.02 1.94-0.27 4.34 1.67 5.35 1.94 1.02 4.34 0.27 5.36-1.67l29.22-55.8c1.01-1.93 0.26-4.34-1.67-5.35-1.95-1.02-4.35-0.26-5.37 1.67"/>
   <path d="m4776.2 1460.5-29.23 55.8c-1.01 1.94-0.26 4.34 1.68 5.35 1.95 1.02 4.34 0.27 5.35-1.67l29.23-55.8c1.02-1.94 0.27-4.34-1.68-5.35-1.94-1.02-4.33-0.26-5.35 1.67"/>
  </g>
  <g>
   <path d="m4694.8 945.75h-461.42v543.19h461.42v-543.19" fill="#f9b04d"/>
   <path d="m4606 1281.4h-372.6v207.51h461.42l-88.82-207.51" fill="#f4892d"/>
   <path d="m4096 1332h461.42l137.36 156.92h-461.42l-137.36-156.92" fill="#fabd70"/>
   <path d="m4694.8 945.75h461.44v543.19h-461.44v-543.19" fill="#f4892d"/>
   <path d="m4783.6 1281.4h372.6v207.51h-461.44l88.84-207.51" fill="#d55e3e"/>
   <path d="m5293.6 1332h-461.42l-137.38 156.92h461.44l137.36-156.92" fill="#fabd70"/>
   <path d="m4622.9 1104.9-82.04 72.66-59.78-99.71 66.45-58.84 26.95 5.14 48.42 80.75" fill="#f6f2fa"/>
   <path d="m4547.5 1019 26.95 5.14-15.59 13.81z" fill="#c6d7d9"/>
   <path d="m6549.7 946.72h563.01v662.76h-563.01v-662.76" fill="#f9b04d"/>
   <path d="m6860.8 1374-7.4 9.57-7.39-9.57-7.41 9.57-7.39-9.57-7.4 9.57-7.39-9.57-7.41 9.57-7.39-9.57-7.4 9.57-7.93-10.26v236.21h89.84v-236.21l-7.93 10.26-7.4-9.57" fill="#c3593d"/>
   <path d="m6599.1 1412.2h117.54v141.5h-117.54v-141.5" fill="#f6f2fa"/>
   <path d="m6549.7 946.72h-318.5v662.76h318.5v-662.76" fill="#f4892d"/>
   <path d="m6373.7 1425.9 4.19 9.57 4.18-9.57 4.19 9.57 4.18-9.57 4.19 9.57 4.18-9.57 4.19 9.57 4.18-9.57 4.19 9.57 4.48-10.26v184.29h-50.82v-184.29l4.48 10.26 4.19-9.57" fill="#81393b"/>
   <path d="m1969 946.72h-545.73v529.95h545.73v-529.95" fill="#f9b04d"/>
   <path d="m1969 946.72h308.72v529.95h-308.72v-529.95" fill="#f4892d"/>
  </g>
  <g fill="#5b3b4e">
   <path d="m2096.1 1007.3c0-1.48-0.7-2.67-1.57-2.67-0.86 0-1.57 1.19-1.57 2.67v4.73h-2.17v-4.73c0-3.51 1.68-6.36 3.74-6.36 2.07 0 3.75 2.85 3.75 6.36v26.47h16.84c-3.27 11.22-10.06 18.96-17.93 18.96s-14.67-7.74-17.93-18.96h16.84v-26.47"/>
   <path d="m2224 988.75h-48.25v76.14h48.25zm-51.33 0h-48.25v76.14h48.25zm-51.34 0h-48.25v76.14h48.25zm54.42 81.37h-105.75v-86.6h157.09v86.6h-51.34"/>
   <path d="m2134.6 1005.4h7.87v34h4.79l-8.73 17.79-8.72-17.79h4.79v-34"/>
   <path d="m2154.6 1005.4h7.87v34h4.79l-8.73 17.79-8.72-17.79h4.79v-34"/>
   <path d="m2167.2 1001.6h-37.47v-5.228h37.47v5.228"/>
   <path d="m2198.6 1020.5v-12.72c0-3.84-1.84-6.97-4.1-6.97h-3.42v-4.358h17.62v4.358h-3.43c-2.26 0-4.1 3.13-4.1 6.97v12.72c5.81 1.1 10.35 9.37 10.35 19.54v17.21h-23.27v-17.21c0-10.17 4.54-18.44 10.35-19.54"/>
  </g>
  <g>
   <path d="m1668.1 1253.1 7.02 9.08 7.02-9.08 7.02 9.08 7.03-9.08 7.02 9.08 7.02-9.08 7.02 9.08 7.02-9.08 7.02 9.08 7.53-9.74v224.21h-85.27v-224.21l7.52 9.74 7.03-9.08" fill="#c3593d"/>
   <path d="m2123.1 1253.1 3.85 9.08 3.86-9.08 3.85 9.08 3.85-9.08 3.85 9.08 3.86-9.08 3.85 9.08 3.85-9.08 3.86 9.08 4.12-9.74v224.21h-46.78v-224.21l4.13 9.74 3.85-9.08" fill="#c3593d"/>
   <path d="m6583.5 1609.5h345.47v335.47h-345.47v-335.47" fill="#f9b04d"/>
   <path d="m6583.5 1609.5h-195.43v335.47h195.43v-335.47" fill="#f4892d"/>
   <path d="m6774 1803.4-4.44 5.75-4.44-5.75-4.46 5.75-4.44-5.75-4.44 5.75-4.45-5.75-4.44 5.75-4.44-5.75-4.46 5.75-4.76-6.16v141.92h53.98v-141.92l-4.76 6.16-4.45-5.75" fill="#c3593d"/>
   <path d="m6486 1803.4-2.44 5.75-2.44-5.75-2.44 5.75-2.44-5.75-2.44 5.75-2.43-5.75-2.44 5.75-2.44-5.75-2.45 5.75-2.61-6.16v141.92h29.63v-141.92l-2.62 6.16-2.44-5.75" fill="#c3593d"/>
   <path d="m6388 1702.7 195.43-50.72v-42.49h-195.43v93.21" fill="#d55e3e"/>
   <path d="m6928.9 1609.5h-345.47v42.49z" fill="#f4892d"/>
  </g>
  <g fill="#5b3b4e">
   <path d="m6503 1647.8c0-0.93 0.45-1.69 0.99-1.69 0.55 0 0.99 0.76 0.99 1.69v3h1.39v-3c0-2.22-1.07-4.03-2.38-4.03s-2.37 1.81-2.37 4.03v16.76h-10.65c2.06 7.1 6.36 12 11.34 12s9.28-4.9 11.35-12h-10.66v-16.76"/>
   <path d="m6422.1 1684.3h30.55v-48.21h-30.55zm32.5 0h30.55v-48.21h-30.55zm32.5 0h30.55v-48.21h-30.55zm-66.94 3.31v-54.83h99.44v54.83h-99.44"/>
   <path d="m6478.7 1646.6h-4.98v21.53h-3.04l5.53 11.26 5.53-11.26h-3.04v-21.53"/>
   <path d="m6466 1646.6h-4.98v21.53h-3.03l5.52 11.26 5.52-11.26h-3.03v-21.53"/>
   <path d="m6458 1644.3h23.72v-3.32h-23.72v3.32"/>
   <path d="m6438.2 1656.2v-8.05c0-2.45 1.17-4.42 2.6-4.42h2.17v-2.76h-11.16v2.76h2.17c1.43 0 2.59 1.97 2.59 4.42v8.05c-3.68 0.7-6.55 5.93-6.55 12.37v10.89h14.74v-10.89c0-6.44-2.87-11.67-6.56-12.37"/>
  </g>
  <g fill="#5dac56">
   <path d="m1397 2101.5c17.16-41.11 48.88-86.34 86.29-126.24 18.76-19.97 38.28-38.04 56.73-55.03 18.51-16.94 35.96-32.94 52.21-48.22-2.2 22.18-11.12 46.85-24.73 70.08-13.55 23.35-31.38 45.3-50.06 65.19-37.41 39.9-80.51 74.46-120.44 94.22"/>
   <path d="m1746 2093.5c-62.16-37.09-130.85-122.91-153.42-191.69 62.16 37.09 130.85 122.91 153.42 191.69"/>
   <path d="m1582.7 2256.9c-36.08-96.49-36.08-252.95 0-349.45 36.08 96.5 36.08 252.96 0 349.45"/>
  </g>
  <g>
   <path d="m1468.7 2209.9c-4.1-24.56-4.4-52.78-0.65-82.24 3.72-29.46 11.49-60.12 22.75-89.47 11.29-29.32 26.07-57.3 43.04-81.67 16.95-24.38 36.07-45.13 55.56-60.63-9.25 49.02-28.46 105.51-49.71 161.1-21.45 55.51-45.03 110.31-70.99 152.91" fill="#9ac633"/>
   <path d="m1685.9 2194.9c-25.26-39.82-47.45-92.33-65.85-146.03-18.26-53.74-32.78-108.87-37.13-155.82 34.06 32.52 65.04 83.97 83.99 139.83 19.14 55.79 26.07 115.46 18.99 162.02" fill="#9ac633"/>
   <path d="m1705.4 1944.7h-240.52l53.63-174.24h133.27l53.62 174.24" fill="#3a476c"/>
   <path d="m1673.7 1944.7-24.34-79.08c-11.46-37.25-45.87-62.66-84.83-62.66h-55.97l10.01-32.5h133.27l53.62 174.24h-31.76" fill="#3f244a"/>
   <path d="m3745.6 942.17-26.91 37.687h530.71l26.9-37.687h-530.7" fill="#3f244a"/>
   <path d="m4408.9 1632-159.51-652.14 26.9-37.687 159.52 652.13-26.91 37.7" fill="#3e4c78"/>
   <path d="m3916.4 1632h-38.22l-159.51-652.14h530.71l159.51 652.14h-492.49" fill="#73769e"/>
   <path d="m3922.1 1576-132.13-540.21h22.05l132.14 540.21h-22.06" fill="#3e4c78"/>
   <path d="m4337.6 1576h-393.42l-132.14-540.21h393.42l132.14 540.21" fill="#caedee"/>
  </g>
  <g fill="#fff">
   <path d="m4144.3 1576-264.97-264.97-29.16-119.21 384.18 384.18h-90.05"/>
   <path d="m4335 1565.3-520.81-520.8-2.13-8.7h40.03l467.81 467.81 15.1 61.69"/>
   <path d="m4269.8 1298.8-262.99-262.99h124.97l97.56 97.56 40.46 165.43"/>
  </g>
  <path d="m934.98 2045 40.915-121.86 3e-3 -0.01c6.762-20.14 5.938-42.07-2.32-61.65l-9.457-22.44-44.324-761.52h-123.03l-10.051 571.53-40.567-571.53h-123.8l-28.317 783.5-4.73 45.64c-2.961 28.54 31.097 138.34 31.097 138.34h314.58" fill="#3a476c"/>
  <g fill="#3f244a">
   <path d="m786.72 1649.1 17.027 239.89 95.414 26.41-36.148-34.24c-5.332-5.06-12.211-8.16-19.532-8.83l-27.246-2.48 14.871-48.35c5.727-18.64 5.165-38.64-1.609-56.92l-42.777-115.48"/>
   <path d="m803.75 1889-99.641 34.2 39.165-37.34c6.781-6.45 16-9.71 25.328-8.92l34.504 2.93 0.644 9.13"/>
   <path d="m727.46 1076.4h19.777l0.078 1.08 56.942 802.3c0.051 0.64-0.438 1.2-1.082 1.25-0.598 0.1-1.203-0.44-1.246-1.09l-56.868-801.21h-17.601c-0.645 0-1.164-0.52-1.164-1.16 0-0.65 0.519-1.17 1.164-1.17"/>
   <path d="m924.46 1156.4c0.617 0 1.129 0.47 1.164 1.1l36.356 624.62c0.039 0.64-0.454 1.19-1.098 1.23-0.602 0.04-1.195-0.45-1.234-1.1l-36.352-624.61c-0.039-0.65 0.453-1.21 1.098-1.24h0.066"/>
   <path d="m805.72 1117h109.79c0.644 0 1.168 0.53 1.168 1.17 0 0.65-0.524 1.17-1.168 1.17h-109.79c-0.645 0-1.168-0.52-1.168-1.17 0-0.64 0.523-1.17 1.168-1.17"/>
   <path d="m627.6 1117h106.87c0.648 0 1.172 0.53 1.172 1.17 0 0.65-0.524 1.17-1.172 1.17h-106.87c-0.645 0-1.164-0.52-1.164-1.17 0-0.64 0.519-1.17 1.164-1.17"/>
   <path d="m632.46 1498.8c0.031 0 0.055 0 0.086 0.01 0.637 0.04 1.125 0.59 1.082 1.24l-24.137 360.91c-0.043 0.64-0.68 1.2-1.242 1.08-0.641-0.04-1.129-0.59-1.086-1.24l24.137-360.91c0.039-0.61 0.554-1.09 1.16-1.09"/>
   <path d="m644.15 1117h0.028c0.648 0.02 1.156 0.56 1.14 1.2l-8.269 343.98c-0.02 0.63-0.602 1.04-1.195 1.13-0.649-0.01-1.161-0.55-1.141-1.19l8.273-343.98c0.012-0.63 0.532-1.14 1.164-1.14"/>
   <path d="m817.79 1077.5h82.539l10.922-21.21c9.898-19.21 27.484-33.31 48.391-38.79 23.554-6.18 42.385-23.118 51.285-45.118h-213.97c4.227 57.638 20.836 105.12 20.836 105.12"/>
  </g>
  <g>
   <path d="m1010.9 972.42c1.99-4.953 3.5-10.141 4.44-15.543l1.76-10.16h-221.14c0 8.711 0.352 17.301 0.965 25.703h213.97" fill="#fff"/>
   <path d="m641.81 1077.5h76.312l9.867-28.82c3.656-10.69 9.024-20.71 15.891-29.69 10.449-13.67 17.305-29.678 20.094-46.608h-149.84c5.301 61.538 27.68 105.12 27.68 105.12" fill="#3f244a"/>
   <path d="m763.98 972.42c0.257-1.563 0.531-3.121 0.714-4.703l2.489-21h-154.18c0 8.863 0.414 17.429 1.129 25.703h149.84" fill="#fff"/>
   <path d="m817.01 1904.9c0.16 0 0.324 0.03 0.476 0.1 0.379 0.18 0.637 0.53 0.688 0.94l8.976 77.83c1.793 15.55-1.191 31.04-8.632 44.81l-4.375 8.08c-0.301 0.58-1.02 0.78-1.582 0.48-0.567-0.31-0.778-1.02-0.469-1.58l4.371-8.1c7.211-13.34 10.105-28.36 8.371-43.43l-8.75-75.83c-13.606 10.45-21.16 27.32-19.816 44.5l4.777 60.74c0.051 0.64-0.434 1.2-1.07 1.25-0.629 0.1-1.207-0.43-1.254-1.08l-4.778-60.74c-1.465-18.65 7.114-36.95 22.395-47.75 0.199-0.14 0.433-0.22 0.672-0.22" fill="#3f244a"/>
   <path d="m1152.7 2339.6 3-11.54c-42.2-5.55-89.87-37.77-119.1-68.7l15.72-7.63 106.31 65.12-5.93 22.75" fill="#bd2b61"/>
   <path d="m1381.6 2473c-4.01 4.83-11.26 5.4-16.4 1.78-19.06-13.37-46.32-26.79-46.32-26.79 16.68 8.91 40.57 32.53 53.07 45.53 1.34 1.4 2.08 3.26 2.08 5.19v4.84c0 9.89-12.43 15.2-18.94 7.76l-0.15-0.18c-16.93-20.11-42.07-39.4-42.07-39.4 12.64 14.11 24.73 27.84 33.1 38.47 3.36 4.27 3.87 10.33 0.76 14.78-4.69 6.73-14.13 6.95-19.29 0.99-24.4-28.2-68.18-59.31-68.18-59.31 0.79 10.94 8.51 23.53 16.02 33.39 7.97 10.45 7.57 25.02-1.19 34.82l-0.16 0.17c-36.09-26.27-54.45-58.24-63.32-105.1l-43.79-144.77-11.17 42.84c-42.2-5.55-82.25-26.11-111.48-57.04l53.97-128.4c11.95-28.43 39.78-46.93 70.62-46.93 40.44 0 73.91 31.43 76.46 71.79l13.95 221.14s66.07 10.66 110.79 30.75c4.14 1.85 6.68 6.42 5.56 10.82-1.42 5.59-7.39 8.38-12.57 6.21-17.65-7.38-43.12-12.1-43.12-12.1 21.62 7.6 45.9 21.89 59.4 31.17 5.7 3.92 7.01 11.96 2.37 17.58" fill="#fab590"/>
   <path d="m1166.8 2285.2-29.08-96.15-2.57 28.86c-2.54 28.44 7.68 56.54 27.9 76.71l1.03 1.02 2.72-10.44" fill="#f7957c"/>
   <path d="m1157.8 2319.8-2.16 8.28c-42.2-5.55-82.25-26.11-111.48-57.04l10.71-25.48c24 35.94 61.23 62.86 102.93 74.24" fill="#3f244a"/>
   <path d="m1152.7 2339.6-20.73 79.48c-12.67 48.61-57.62 81.73-107.79 79.43l-36.685-1.69 25.415-151.31 16.35-59.45 7.34-26.7c29.23 30.93 76.9 63.15 119.1 68.7l-3 11.54" fill="#e9465c"/>
   <path d="m1012.9 2345.5 16.35 53.64v-0.01c4.88-37.52 4.88-75.53 0-113.05v-0.03l-16.35 59.45" fill="#bd2b61"/>
   <path d="m1247.4 2409.1c-0.43 0-0.84 0.21-1.08 0.6-0.37 0.59-0.18 1.37 0.41 1.74 8.3 5.12 14.49 13.86 16.56 23.4 2.07 9.53 0.05 20.06-5.4 28.16-0.39 0.57-0.23 1.36 0.35 1.76 0.57 0.38 1.36 0.23 1.75-0.35 5.82-8.66 7.99-19.91 5.78-30.1-2.21-10.2-8.83-19.55-17.71-25.02-0.2-0.13-0.43-0.19-0.66-0.19" fill="#f7957c"/>
   <path d="m668.41 2302.8-82.519-210.36c-12.821-32.67-5.059-69.83 19.753-94.65l0.012-0.01 334.4 25.67 100.2 388.33-16.24 86.66-66.082-3.03-20.5-1.42-90.485 4.87h-44.273l-134.27-196.06" fill="#e9465c"/>
   <path d="m886.59 2411.8c-24.641 0-46.317 16.28-53.192 39.93l-13.695 47.15h27.246l16.539 83.9h99.727l-25.781-88.77 20.5 1.42-20.063-49.17c-8.5-20.84-28.773-34.46-51.281-34.46" fill="#fab590"/>
   <path d="m861.33 2571.8c23.566-72.46 65.023-66.37 81.512-59.2l20.375 70.16h-99.727l-2.16-10.96" fill="#3f244a"/>
   <path d="m655.28 2244.9c71.516-57.4 160.54 15.57 160.54 15.57-108.97 32.11-160.54-15.57-160.54-15.57" fill="#bd2b61"/>
   <path d="m973.1 2021-205.88 15.35c-45.942 3.43-82.524 39.84-86.168 85.77l-12.645 159.53 145.82 7.51 8.282-150.29 164.65-54.71c15.982-5.31 29.242-16.69 36.912-31.68l31.74-62.01c2.41-4.71 3.15-10.1 2.1-15.27l-8.02-39.58c-0.84-4.14-3.15-7.84-6.51-10.41l-13.38-10.26c-8.17-6.27-19.49-6.44-27.85-0.42l-10.242 7.37-3.887 49.62-14.929 49.48" fill="#fab590"/>
   <path d="m816.57 2246.8-2.332 42.37-145.82-7.51 4.34-54.76c40.973 29.1 96.484 36.81 143.82 19.9" fill="#3f244a"/>
   <path d="m802.68 2498.9h-47.95c-59.613 0-107.28-49.54-105-109.1l5.55-144.85s51.571 47.68 160.54 15.57l-13.136 238.38" fill="#e9465c"/>
   <path d="m822.52 2138.9-55.454 18.42 18.461-1.43c14.743-1.15 28.657 6.95 34.934 20.34l2.059-37.33" fill="#f7957c"/>
   <path d="m1006.3 2680.4c0-22.56-2.24-45.07-6.692-67.19l-6.918-34.38c-6.09-30.26-32.676-52.03-63.539-52.03-17.398 0-34.062 6.99-46.25 19.41l-8.379 8.53c-32.929 33.54-51.379 78.66-51.379 125.66 0 50.58 41.004 91.58 91.578 91.58 50.579 0 91.579-41 91.579-91.58" fill="#fab590"/>
   <path d="m851.44 2578.5c3.836 4.16 7.008 8.92 9.27 14.11 6.082 13.95 4.965 33.33-2.098 46.81 21.914 19.02 35.875 46.92 37.953 75.85 25.719-6.22 54.852-8.29 81.25-6.56 15.395 1.01 31.28 3.6 44.03 12.28 12.75 8.67 21.49 24.82 17.39 39.69-2.29 8.3-8.48 15.43-16.38 18.86-7.89 3.43-17.33 3.1-24.962-0.89 1.348 7.87-2.539 17.41-8.535 22.69-5.996 5.29-14.789 7.19-22.433 4.86-9.11-2.78-15.641-10.69-23.996-15.27-9.282-5.09-20.352-5.78-30.907-5.02-10.562 0.75-21.019 2.85-31.605 2.92s-21.672-2.16-29.781-8.96c-8.106-6.8-12.246-19.02-7.45-28.46-18.14 2.79-38.679-10.78-44.746-28.11-4.644-13.29-1.953-27.94 1.551-41.58 9.492-36.99 31.344-70.75 51.449-103.22" fill="#883651"/>
   <path d="m840.88 2617.5c-6.992 5.56-16.133 9.05-24.918 7.4-8.789-1.64-16.637-9.38-16.543-18.32 0.078-8.07 6.086-14.83 12.418-19.84 6.949-5.5 14.746-9.93 23.031-13.08 5.863-2.23 12.578-3.78 18.27-1.14 20.41 9.46-2.547 37.26-12.258 44.98" fill="#fab590"/>
   <path d="m846.44 2582.8c-1.844 0-4.333 0.59-7.418 1.77-7.188 2.73-13.899 6.53-19.942 11.31-5.047 4-7.957 7.93-7.984 10.81-0.031 2.77 3.379 6.05 7.011 6.73 0.743 0.14 1.524 0.2 2.321 0.2 4.164 0 8.972-1.92 13.187-5.27 8.844-7.03 17.203-20.75 15.996-24.41-0.019 0-0.371-0.37-1.382-0.84-0.434-0.2-1.036-0.3-1.786-0.3h-3e-3" fill="#f7957c"/>
   <path d="m930.57 2671.7c-10.804 0-20.375-5.17-26.457-13.15h52.907c-6.078 7.98-15.649 13.15-26.45 13.15" fill="#883651"/>
   <path d="m987.88 2668.9c-6.094 0-11.496-4.07-14.926-10.35h29.861c-3.435 6.28-8.833 10.35-14.935 10.35" fill="#883651"/>
   <path d="m937.98 2638c0-4.09-3.32-7.41-7.418-7.41-4.101 0-7.421 3.32-7.421 7.41 0 4.1 3.32 7.43 7.421 7.43 4.098 0 7.418-3.33 7.418-7.43" fill="#3f244a"/>
   <path d="m992.12 2638c0-3.28-1.898-5.94-4.242-5.94-2.34 0-4.238 2.66-4.238 5.94 0 3.29 1.898 5.95 4.238 5.95 2.344 0 4.242-2.66 4.242-5.95" fill="#3f244a"/>
   <path d="m976.16 2600.5h-27.539c2.399-4.65 7.817-8.12 13.035-8.47 5.215-0.35 11.52 4.18 14.504 8.47" fill="#f7957c"/>
   <path d="m972.71 2580.8c-21.457-4.28-43.516-5.5-65.313-3.63 6.055-12.1 19.415-21.06 32.934-20.64 13.523 0.42 27.086 11.81 32.379 24.27" fill="#fff"/>
   <path d="m2700.1 2223h-560.4l120.66 336.98h319.08l120.66-336.98" fill="#fddc6f"/>
   <path d="m2700.1 2223-120.66 336.98h-96.41l41.26-146.07c20.03-70.88-33.23-141.26-106.88-141.26h-259.93l-17.78-49.65h560.4" fill="#f57e5a"/>
   <path d="m2447.8 1030.8h-55.84v1192.2h55.84v-1192.2" fill="#c6d7d9"/>
   <path d="m2447.8 2223-56.11-56.11v56.11z" fill="#93a2b0"/>
   <path d="m2392 1030.8-193.51-44.59h442.85l-193.5 44.59h-55.84" fill="#c6d7d9"/>
   <path d="m2198.5 986.25v-39.359h442.85v39.359h-442.85" fill="#93a2b0"/>
   <path d="m2485.7 1944.6v278.39h-5.88v-278.39c-3.84-2.76-6.63-10.61-6.63-19.97 0-11.65 4.29-21.1 9.57-21.1 5.29 0 9.57 9.45 9.57 21.1 0 9.36-2.79 17.21-6.63 19.97" fill="#c6d7d9"/>
   <path d="m1077.4 1770.5h-350.63v64.28h350.63v-64.28" fill="#73769e"/>
   <path d="m1077.4 1834.7h-350.63v64.28h350.63v-64.28" fill="#73769e"/>
   <path d="m1077.4 1770.5h221.58v64.28h-221.58v-64.28" fill="#3e4c78"/>
   <path d="m1077.4 1834.7h221.58v64.28h-221.58v-64.28" fill="#3e4c78"/>
   <path d="m846.35 1822h-54.606v25.52h54.606v-25.52" fill="#fab850"/>
   <path d="m974.82 1822h-54.605v25.52h54.605v-25.52" fill="#fab850"/>
   <path d="m934.35 1785h-103.37c-12.707 0-23.05 10.34-23.05 23.05v32.37h19.757v-32.37c0-1.82 1.481-3.29 3.293-3.29h103.37c1.808 0 3.289 1.47 3.289 3.29v32.37h19.757v-32.37c0-12.71-10.343-23.05-23.046-23.05" fill="#3e4c78"/>
   <path d="m1428.5 2009.6h-225.84l48.63 135.8h128.58l48.63-135.8" fill="#d94e39"/>
   <path d="m1426.9 1858c0 24.86-8.15 47.82-21.93 66.34-11.41 15.36-29.58 24.21-48.71 24.21h-81.51c-19.13 0-37.29-8.85-48.7-24.21-13.78-18.52-21.93-41.48-21.93-66.34 0-28.48 10.69-54.44 28.27-74.12 7.69-8.61 18.74-13.45 30.27-13.45h105.7c11.53 0 22.58 4.84 30.27 13.45 17.58 19.68 28.27 45.64 28.27 74.12" fill="#d94e39"/>
   <path d="m1417.6 1902.7c0.77-5.29 1.23-10.68 1.23-16.19 0-28.47-10.69-54.43-28.27-74.12-7.69-8.6-18.74-13.44-30.27-13.44h-124.5c-5.84 0-11.56 1.25-16.78 3.59 3.85-6.68 8.35-12.93 13.45-18.64 7.69-8.61 18.74-13.45 30.27-13.45h105.7c11.53 0 22.58 4.84 30.27 13.45 17.58 19.68 28.27 45.64 28.27 74.12 0 15.9-3.36 31-9.37 44.68" fill="#923f3c"/>
   <path d="m1250.3 1888c-2.77 0-5.57 0.8-8.03 2.48-6.49 4.44-8.15 13.31-3.71 19.8 0.73 1.06 1.47 2.11 2.25 3.15 4.7 6.31 13.61 7.61 19.93 2.92 6.31-4.7 7.62-13.62 2.92-19.92-0.55-0.75-1.08-1.49-1.59-2.24-2.76-4.03-7.23-6.19-11.77-6.19" fill="#fff"/>
   <path d="m1246.9 1805c-4.96 0-9.78 2.6-12.4 7.22-7.9 13.93-12.07 29.78-12.07 45.83 0 4.14 0.27 8.3 0.81 12.36 1.03 7.8 8.22 13.28 15.98 12.25 7.8-1.03 13.28-8.19 12.25-15.99-0.37-2.82-0.56-5.73-0.56-8.62 0-11.14 2.89-22.12 8.37-31.79 3.88-6.84 1.47-15.53-5.37-19.4-2.22-1.26-4.63-1.86-7.01-1.86" fill="#fff"/>
   <path d="m1274.8 1948.6h81.51l35.36 30.18h-152.22l35.35-30.18" fill="#d94e39"/>
   <path d="m1365.3 1978.8c-17.04-15.02-39.02-23.4-61.87-23.4h-36.62l7.94-6.78h81.52l35.35 30.18h-26.32" fill="#923f3c"/>
   <path d="m1428.5 2009.6-48.63 135.8h-38.85l16.63-58.87c8.07-28.56-13.39-56.92-43.07-56.92h-104.76l-7.16-20.01h225.84" fill="#923f3c"/>
   <path d="m1326.8 1978.8h-22.5v30.86h22.5v-30.86" fill="#d94e39"/>
   <path d="m1326.8 2009.6-22.61-22.62v22.62z" fill="#923f3c"/>
   <path d="m1987.6 2596.3h-636.24v264.07h636.24v-264.07" fill="#f9b04d"/>
  </g>
  <g fill="#3e4c78">
   <path d="m1463.3 2860.4h-16.66v271.31h16.66v-271.31"/>
   <path d="m1875.7 2860.4h16.67v271.31h-16.67v-271.31"/>
   <path d="m1514.4 2692.3 7.79 17.51c7.43-4.92 17.99-8.28 27.7-8.28 9.84 0 13.68 2.76 13.68 6.83 0 13.33-47.73 3.61-47.73 34.79 0 14.99 12.23 27.23 37.17 27.23 10.92 0 22.19-2.52 30.47-7.32l-7.32-17.63c-8.03 4.31-15.95 6.48-23.27 6.48-9.95 0-13.55-3.36-13.55-7.56 0-12.83 47.61-3.24 47.61-34.18 0-14.64-12.23-27.11-37.17-27.11-13.8 0-27.47 3.72-35.38 9.24"/>
   <path d="m1647.2 2718.5-10.79 26.87-10.8-26.87zm6.96-17.51h-35.5l-6.6-16.31h-24.23l37.06 83.96h23.39l37.18-83.96h-24.71l-6.59 16.31"/>
   <path d="m1692.2 2768.7h23.75v-65.13h40.06v-18.83h-63.81v83.96"/>
   <path d="m1832.8 2703.1v-18.35h-67.4v83.96h65.84v-18.35h-42.33v-14.15h37.3v-17.76h-37.3v-15.35h43.89"/>
  </g>
  <g>
   <path d="m496.85 1770.5h-48.532v1366.1h48.532v-1366.1" fill="#fff"/>
   <path d="m2081.1 1770.5h48.53v1366.1h-48.53v-1366.1" fill="#fff"/>
   <path d="m2233.8 1669.1h-1889.6v101.38h1889.6v-101.38" fill="#f57a5d"/>
   <path d="m518.69 946.72h-103.14v722.36h103.14v-722.36" fill="#d5555f"/>
   <path d="m2059.3 946.72h103.14v722.36h-103.14v-722.36" fill="#f57a5d"/>
   <path d="m518.69 1565h-103.14v104.08h103.14v-104.08" fill="#9f2e46"/>
   <path d="m2059.3 1565h103.14v104.08h-103.14v-104.08" fill="#9f2e46"/>
   <path d="m927.69 3622.1-82.05-568.04h295.56l27.35 568.04h-240.86" fill="#59a7e0"/>
   <path d="m445.96 3622.1-191.45-568.04h295.57l136.75 568.04h-240.86" fill="#59a7e0"/>
   <path d="m686.82 3622.1-136.75-568.04h295.56l82.05 568.04h-240.87" fill="#fff"/>
   <path d="m1409.4 3622.1 27.35-568.04h295.57l-82.05 568.04h-240.87" fill="#59a7e0"/>
   <path d="m1168.6 3622.1-27.35-568.04h295.56l-27.35 568.04h-240.86" fill="#fff"/>
   <path d="m2132 3622.1h-240.87l136.75-568.04h295.56l-191.44 568.04" fill="#59a7e0"/>
   <path d="m1650.3 3622.1 82.05-568.04h295.56l-136.75 568.04h-240.86" fill="#fff"/>
   <path d="m254.51 3054.1v-15.92c0-65.04 66.168-117.77 147.78-117.77 81.621 0 147.78 52.73 147.78 117.77v15.92h-295.57" fill="#508fd3"/>
   <path d="m550.08 3054.1v-15.92c0-65.04 66.16-117.77 147.78-117.77 81.622 0 147.79 52.73 147.79 117.77v15.92h-295.56" fill="#f0ebe7"/>
   <path d="m845.64 3054.1v-15.92c0-65.04 66.16-117.77 147.78-117.77 81.618 0 147.78 52.73 147.78 117.77v15.92h-295.56" fill="#508fd3"/>
   <path d="m1141.2 3054.1v-15.92c0-65.04 66.17-117.77 147.78-117.77 81.62 0 147.79 52.73 147.79 117.77v15.92h-295.57" fill="#f0ebe7"/>
   <path d="m1436.8 3054.1v-15.92c0-65.04 66.16-117.77 147.78-117.77 81.61 0 147.78 52.73 147.78 117.77v15.92h-295.56" fill="#508fd3"/>
   <path d="m1732.3 3054.1v-15.92c0-65.04 66.16-117.77 147.78-117.77s147.78 52.73 147.78 117.77v15.92h-295.56" fill="#f0ebe7"/>
   <path d="m2027.9 3054.1v-15.92c0-65.04 66.16-117.77 147.78-117.77s147.79 52.73 147.79 117.77v15.92h-295.57" fill="#508fd3"/>
   <path d="m3135.3 1323.5h-468.7v76.61h468.7v-76.61" fill="#d5555f"/>
   <path d="m3135.3 1323.5h285.77v76.61h-285.77v-76.61" fill="#9f2e46"/>
   <path d="m3113.6 944h-45.97v302.87h45.97v-302.87" fill="#d5555f"/>
   <path d="m3159.6 944h-45.97v302.87h45.97v-302.87" fill="#be3955"/>
   <path d="m3285.9 944h-45.97v302.87h45.97v-302.87" fill="#9f2e46"/>
   <path d="m3331.9 944h-45.97v302.87h45.97v-302.87" fill="#be3955"/>
   <path d="m2801.8 944h-45.97v302.87h45.97v-302.87" fill="#d5555f"/>
  </g>
  <g fill="#9f2e46">
   <path d="m2847.7 944h-45.97v302.87h45.97v-302.87"/>
   <path d="m2974 944h-45.97v302.87h45.97v-302.87"/>
   <path d="m3020 944h-45.97v302.87h45.97v-302.87"/>
  </g>
  <g>
   <path d="m3113.6 1323.5h-357.84v-38.3h357.84v38.3" fill="#be3955"/>
   <path d="m2755.8 1285.2v-38.31h357.84v38.31h-357.84" fill="#d5555f"/>
   <path d="m3331.8 1285.2v38.3h-218.17v-38.3h218.17" fill="#9f2e46"/>
   <path d="m3113.6 1285.2v-38.31h218.17v38.31h-218.17" fill="#be3955"/>
   <path d="m2899 1706.6c0-76.16-28.45-137.91-63.55-137.91-35.09 0-63.54 61.75-63.54 137.91 0 76.17 28.45 119.89 63.54 119.89 35.1 0 63.55-43.72 63.55-119.89" fill="#9ac633"/>
   <path d="m2866.3 1749.2c-9.65-12.42-15.61-27.34-19.83-42.5-12.15-43.65-10.31-91.02 4.83-133.7 27.45 15.24 47.74 69.28 47.74 133.6 0 24.43-2.95 45.46-8.08 62.83-9.61-4.59-18.08-11.76-24.66-20.23" fill="#5dac56"/>
   <path d="m2945 1658.5c-10.67-53.55-39.31-92.96-63.98-88.05s-36.03 52.29-25.37 105.84c10.66 53.54 36.78 80.29 61.45 75.38s38.56-39.63 27.9-93.17" fill="#9ac633"/>
   <path d="m2972.9 1523.6h-230.16v57.24h230.16v-57.24" fill="#3a476c"/>
   <path d="m2914.3 1400.1h-112.86l-48.54 123.49h209.95l-48.55-123.49" fill="#3a476c"/>
   <path d="m2752.9 1523.6h209.95l-14-35.6z" fill="#3f244a"/>
   <path d="m3262.9 1420.2h-233.68v-20.06h233.68v20.06" fill="#e7e7e1"/>
   <path d="m3370.9 1488h-449.7l16.73-26.94c15.79-25.43 43.59-40.89 73.52-40.89h269.21c29.92 0 57.72 15.46 73.51 40.89l16.73 26.94" fill="#fff"/>
   <path d="m3319.5 1488h-356.64c6.05 18.47 31.41 31.86 50.8 30.71 7.63-0.45 15.08-2.87 22.72-2.88 16.69-0.04 31.04 11.06 44.21 21.32 13.17 10.24 28.35 20.67 44.94 18.96 15.44-1.59 27.71-13.3 38.05-24.88 10.34-11.57 20.89-24.25 35.67-28.99 13.08-4.21 27.33-1.43 40.58 2.27 13.24 3.7 26.57 8.34 40.31 7.76s35.09-11.21 39.36-24.27" fill="#f57a5d"/>
   <path d="m1937.5 1685.1-80.34-487.51c-4.16-25.22-4.83-50.89-1.99-76.3l39.03-349.85h166.86l3.82 102.97c3.64 97.872-6.59 195.76-30.38 290.75l97.24 299.44 46.49-338.5c-7.41-97.61-3.29-195.76 12.29-292.41l10.03-62.25h165.53l-37.2 365.81 33.36 295.98c9.31 82.56 3.85 166.12-16.1 246.77l-3.31 13.37-405.33-8.27" fill="#3698ac"/>
   <path d="m2131.7 1464.6 19.75 60.84 122.53 9.83-4.24-3.72c-17.27-15.17-38.53-25.09-61.26-28.56-26.38-4.04-47.15-24.6-51.45-50.94l-12.82-78.52-12.51 91.07" fill="#3a476c"/>
   <path d="m1954.7 1547-6.66-5.34-63.62-347.24c-3.54-19.34-4.19-39.05-1.91-58.58l38.87-334.25c0.17-1.418 1.37-2.469 2.77-2.469 0.11 0 0.22 0.012 0.33 0.019 1.53 0.18 2.62 1.563 2.45 3.102l-38.88 334.25c-2.21 18.97-1.58 38.12 1.86 56.93l64.79 353.58" fill="#51adbf"/>
   <path d="m1966.9 1629.2c1.52-0.28 2.52-1.74 2.25-3.25l-14.46-78.93 65.9 52.92-1.4 43.95 50.24 43.93-131.95-2.68-28.86-175.1 39.41 31.64 15.62 85.27c0.29 1.52 1.76 2.48 3.25 2.25" fill="#3a476c"/>
   <path d="m1969.1 1625.9c0.27 1.51-0.73 2.97-2.25 3.25-1.49 0.23-2.96-0.73-3.25-2.25l-15.62-85.27 6.66 5.34 14.46 78.93" fill="#3698ac"/>
   <path d="m2072.4 702.97h-184.53l-5.98 68.461h184.54l5.97-68.461" fill="#7dd3c7"/>
   <path d="m2379.8 702.97h-184.53l-5.97 68.461h184.53l5.97-68.461" fill="#7dd3c7"/>
  </g>
  <g fill="#51adbf">
   <path d="m2144.7 1546.9h0.06zm-107.4 1.6 52.31-30.89 52.3 30.89v105.82h-104.61zm52.31-36.93c-0.5 0-0.99 0.14-1.43 0.39l-55.09 32.54c-0.85 0.51-1.38 1.43-1.38 2.4v110.21c0 1.54 1.25 2.78 2.79 2.78h110.2c1.55 0 2.79-1.24 2.79-2.78v-110.21c0-0.97-0.52-1.89-1.37-2.4l-55.1-32.54c-0.44-0.25-0.93-0.39-1.41-0.39"/>
   <path d="m2337.9 1566.8h0.06zm-72.53 1.41 34.87-25.72 34.87 25.72v89.85h-69.74zm34.87-31.98c-0.58 0-1.17 0.19-1.66 0.55l-37.66 27.78c-0.72 0.52-1.13 1.35-1.13 2.24v94.05c0 1.54 1.24 2.79 2.79 2.79h75.32c1.54 0 2.79-1.25 2.79-2.79v-94.05c0-0.89-0.42-1.72-1.13-2.24l-37.67-27.78c-0.48-0.36-1.07-0.55-1.65-0.55"/>
   <path d="m2205.1 1538.7c-0.19 0-0.37 0.02-0.56 0.06-1.51 0.3-2.49 1.78-2.18 3.29 9.23 45.64 9.61 93.97 1.08 139.77-0.29 1.51 0.71 2.96 2.22 3.25 1.48 0.27 2.97-0.72 3.26-2.24 8.66-46.48 8.28-95.55-1.09-141.89-0.27-1.32-1.44-2.24-2.73-2.24"/>
  </g>
  <g>
   <path d="m2031.4 2305.7 10.78-40.46h124.15l-48.13 82.31-86.8-41.85" fill="#d5555f"/>
   <path d="m2040.8 2291.9c-60.39-4.26-112.81 41.22-117.08 101.62l-3.25 45.94c-4.26 60.4 41.23 112.81 101.63 117.08 60.39 4.27 112.8-41.23 117.07-101.62l3.25-45.95c4.27-60.39-41.23-112.8-101.62-117.07" fill="#d5555f"/>
   <path d="m2126 2334.5c-22.39-19.48-58.1-19.98-82.74-3.45-19.7 13.22-30.65 37.98-32.99 62.5-1.02 10.73-9.7 19.13-20.43 20.17l-13.18 1.29 6.28-75.8-8.53 7.87c-6.21 5.72-10.19 13.46-11.25 21.84l-4.63 36.55c-8.84 6.03-14.51 15.71-15.47 26.37l-2.67 29.42c-21.22 3.63-41.35 24.26-42.59 45.75-1.23 21.5 13.84 42.85 34.51 48.89 5.52 27.7 28.02 50.24 55.07 58.34 27.05 8.11 58.28 0.13 78.13-19.96 14.25 9.93 32.55 10.02 47.22 0.73 14.68-9.28 22.93-27.75 20.05-44.88 9.61 2.47 19.45-1.94 27.05-8.31 7.6-6.38 12.31-15.81 13.96-25.59 2.95-17.52-4.04-36.38-17.72-47.72 14.08-12.36 22.33-34.08 20.38-52.71-0.75-7.11-2.88-14.22-7.16-19.94s-10.91-9.91-18.05-10.23c5.31-9.46 5.82-22.78 1.16-32.57-4.67-9.79-14.27-17.07-24.96-18.91-0.18 0.75-1.27-0.4-1.44 0.35" fill="#3f244a"/>
   <path d="m2007.3 2395c0-19.3-15.63-34.93-34.92-34.93s-34.93 15.63-34.93 34.93c0 19.29 15.64 34.92 34.93 34.92s34.92-15.63 34.92-34.92" fill="#d5555f"/>
   <path d="m2150.1 2277.6-168.5-10.63-44.12-581.85 405.33 8.27-14.97 274.31c-3.81 69.73-14.92 138.87-33.16 206.29-17.45 64.5-77.89 107.82-144.58 103.61" fill="#fff"/>
   <path d="m2016.4 2149-57.24-178.02 6.85 90.45z" fill="#e7e7e1"/>
   <path d="m1947.4 1842.9 93.22-92.85-6.1-23.24 34.95-39.07-131.95-2.68 9.88 157.84" fill="#e7e7e1"/>
   <path d="m1947.4 1677.3 11.16-20.22-28.74-10.55c-14.97-5.5-23.35-21.43-19.39-36.88-8.97-8.79-13.31-21.26-11.75-33.72l4.08-32.54c8.51 0 15.82 6.03 17.43 14.38l1.4 7.24 60.86 30.19c19.21 9.55 32.83 27.54 36.78 48.63l9.41 13.68c8.13 11.83 7.79 27.52-0.84 38.98l-32.28 42.88-48.12-62.07" fill="#d5555f"/>
   <path d="m2008.8 1721.7c-3.92-37.73-50.3-64.58-50.3-64.58l-11.16 20.22 48.12 62.07 13.34-17.71" fill="#3f244a"/>
   <path d="m1981.6 2266.9c-34.11-2.15-64.42-22.51-79.31-53.27l-116.34-240.27c-15.64-32.31-12.86-70.5 7.31-100.2l144.22-212.39c34.7 16.35 62.21 44.82 77.36 80.06l1.57 3.63-127.87 182.27 127.87 222.25-34.81 117.92" fill="#fff"/>
   <path d="m2038 675.07-2.1 27.899h-109.63v-6.328c0-10.239-4.03-20.09-11.22-27.391l-24.72-25.141c-9.21-9.347-21.06-15.679-33.96-18.109l-2.06-0.391c-17.76-3.359-32.9-13.937-42.3-28.66h248.31l-22.32 78.121" fill="#3a476c"/>
   <path d="m1812 596.95c-3.78-5.898-6.65-12.469-8.36-19.519h262.24l-5.57 19.519h-248.31" fill="#fff"/>
   <path d="m1926.3 702.97h109.63l2.1-27.899-111.73 21.571v6.328" fill="#3f244a"/>
   <path d="m2342.1 684.83v18.137h-98.34v-11.227c0-10.992-2.3-21.863-6.75-31.91l-12.49-28.203c-3.33-7.52-9.26-13.59-16.69-17.117-7.63-3.614-13.55-9.91-16.82-17.563h167.65l-16.56 87.883" fill="#3a476c"/>
   <path d="m2191 596.95c-0.78-1.82-1.45-3.707-1.91-5.679l-3.22-13.84h176.45l-3.67 19.519h-167.65" fill="#fff"/>
   <path d="m2243.8 702.97h98.34v-18.137l3.07-16.25-101.41 28.457v5.93" fill="#3f244a"/>
   <path d="m3477.8 2042.2-34.97 22.08 36.02 103.54z" fill="#3f244a"/>
   <path d="m3478.9 2167.8-75.63 74.43c-12.88 12.67-29.23 21.24-46.99 24.62l-79.41 15.11-94.78-8.11h-130.9l-46.32-10.08c-29.44-6.4-53.82-26.89-65.19-54.79l-50.85-124.89 111.62-33.48v-160.51c0-5.25-0.97-10.45-2.88-15.33l-5.05-12.97c-8.5-21.79 2.34-46.33 24.17-54.73h330.8c21.83 8.4 32.67 32.94 24.18 54.73l-5.06 12.97c-1.91 4.88-2.88 10.08-2.88 15.33l-1.27 231.03 75.02-72.4 41.42 119.07" fill="#e2d9ca"/>
  </g>
  <g fill="#cebea2">
   <path d="m3051.2 2273.8c21.31-71.04 130.52-171.93 130.52-171.93 73.44 70.45 95.16 180.04 95.16 180.04l-94.78-8.11h-130.9"/>
   <path d="m3000.4 2050.6v82.18l-21.3 38.06 5.57-29.88c1.01-5.4 0.96-10.94-0.12-16.31l-5.95-29.27c-2.36-11.58-12.69-19.8-24.5-19.49l-41.62 1.08 87.92-26.37"/>
   <path d="m3362.4 2121.1v39.83l57.9-55.47c7.74-7.41 20.17-6.6 26.88 1.76l18.69 23.28-28.45-81.8-75.02 72.4"/>
  </g>
  <g>
   <path d="m3099.9 2363.4v-33.06l61.59-24.02 55.04 22.35v34.73h-116.63" fill="#f7957c"/>
   <path d="m3161.2 2356.5-61.36 6.86c14.84-43.77 49.66-46.05 61.36-46.05s46.51 2.28 61.36 46.05l-61.36-6.86" fill="#3f244a"/>
   <path d="m3075.3 2438.1c0-16.38-13.27-29.65-29.64-29.65-16.38 0-29.65 13.27-29.65 29.65 0 16.36 13.27 29.64 29.65 29.64 16.37 0 29.64-13.28 29.64-29.64" fill="#f7957c"/>
   <path d="m3062 2438.1c0-9.07-7.35-16.41-16.4-16.41-9.07 0-16.41 7.34-16.41 16.41 0 9.06 7.34 16.4 16.41 16.4 9.05 0 16.4-7.34 16.4-16.4" fill="#f46f7c"/>
   <path d="m3247.2 2438.1c0-16.38 13.27-29.65 29.65-29.65 16.37 0 29.64 13.27 29.64 29.65 0 16.36-13.27 29.64-29.64 29.64-16.38 0-29.65-13.28-29.65-29.64" fill="#f7957c"/>
   <path d="m3260.4 2438.1c0-9.07 7.35-16.41 16.41-16.41s16.4 7.34 16.4 16.41c0 9.06-7.34 16.4-16.4 16.4s-16.41-7.34-16.41-16.4" fill="#f46f7c"/>
   <path d="m3161.2 2615.2c-58.61 0-106.12-47.52-106.12-106.12v-43.56c0-43.33 17.4-84.85 48.3-115.23 15.42-15.15 36.18-23.66 57.82-23.66 21.63 0 42.39 8.51 57.81 23.66 30.9 30.38 48.3 71.9 48.3 115.23v43.56c0 58.6-47.51 106.12-106.11 106.12" fill="#fac1a4"/>
  </g>
  <g fill="#9f2e46">
   <path d="m3224.2 2550.1c6.38-50.17 40.01-116.43 40.01-116.43 8.18 29.73 19.17 95.38 12.32 125.44-2.9 12.72-8.97 25.39-19.8 32.66-10.33 6.94-26.4 6.95-33.52-3.27-6.4-9.17-0.42-27.3 0.99-38.4"/>
   <path d="m3098.3 2550.1c-6.39-50.17-40.01-116.43-40.01-116.43-8.18 29.73-19.18 95.38-12.32 125.44 2.89 12.72 8.96 25.39 19.79 32.66 10.33 6.94 26.41 6.95 33.53-3.27 6.39-9.17 0.42-27.3-0.99-38.4"/>
   <path d="m3237.5 2561.9c-2.62-20.89-15.1-39.75-31.51-52.94-16.4-13.19-36.48-21.15-56.94-26.09-45.81-11.05-95.04-7.52-138.8 9.99 12.97 3.9 20.93 18.98 25.35 31.78 4.43 12.8 5.55 26.5 9.13 39.56 8.55 31.17 31.83 57.93 61.5 70.72s65.12 11.33 93.64-3.86c23.51-12.52 40.94-42.73 37.63-69.16"/>
  </g>
  <g>
   <path d="m3122.2 2459.9c0-4.96-4.01-8.97-8.97-8.97-4.95 0-8.97 4.01-8.97 8.97 0 4.95 4.02 8.97 8.97 8.97 4.96 0 8.97-4.02 8.97-8.97" fill="#3f244a"/>
   <path d="m3200.3 2459.9c0-4.96 4.02-8.97 8.97-8.97s8.97 4.01 8.97 8.97c0 4.95-4.02 8.97-8.97 8.97s-8.97-4.02-8.97-8.97" fill="#3f244a"/>
   <path d="m3211.3 2496.5c-10.92 0.34-20.77-4.6-27.16-12.48l53.52-1.65c-5.9 8.26-15.42 13.79-26.36 14.13" fill="#9f2e46"/>
   <path d="m3176.8 2420.7c-10.05 2.38-20.72 2.1-30.62-0.8 2.62-5.56 8.71-9.15 14.85-9.29 6.14-0.13 12.9 4.66 15.77 10.09" fill="#f7957c"/>
  </g>
  <g fill="#be3955">
   <path d="m3211.7 2564.4c-8.28-8.25-18.14-16.98-29.53-24.86-11.37-7.91-24.22-14.96-37.73-20.43-13.53-5.42-27.68-9.25-41.35-11.43-13.68-2.22-26.84-2.76-38.53-2.56 11.01-3.85 24.65-6.19 39.3-5.74 14.64 0.41 30.2 3.59 44.73 9.43 14.52 5.86 27.94 14.36 38.77 24.21 10.87 9.83 19.08 20.98 24.34 31.38"/>
   <path d="m3181.7 2558.9c-16.82-8.09-38.98-16.51-62.21-20.33-23.21-4.02-46.9-3.35-65.45-1.24 8.5-3.83 19.02-6.92 30.58-8.35 11.54-1.44 24.09-1.22 36.35 0.84 12.25 2.08 24.17 5.99 34.6 11.15 10.45 5.14 19.37 11.52 26.13 17.93"/>
   <path d="m3183.8 2617.3c-9.25-10.71-21.57-23.82-35.63-34.96-13.97-11.23-29.48-20.34-41.96-27 13.93 2.38 31.55 9.96 46.16 21.75 14.73 11.64 26.03 27.14 31.43 40.21"/>
  </g>
  <g>
   <path d="m3215.9 2400.2c-34.37-5.65-69.79-4.79-103.84 2.5 2.19-23.95 22.32-46.68 46.34-47.96 24.02-1.27 52.77 21.88 57.5 45.46" fill="#fff"/>
   <path d="m3420.8 2482.4h47.16c9.77 0 17.81-7.67 18.25-17.44l4.29-94.71 71.05-268.33c8.2-30.95-11.7-62.35-43.2-68.15-32.56-6-62.99 17.92-64.86 50.98l-15.76 278.66-19 11.36c-5.84 3.49-9.41 9.8-9.41 16.6v79.56c0 6.34 5.14 11.47 11.48 11.47" fill="#fac1a4"/>
   <path d="m3395.1 2403.2h0.04c7.84 0 14.19 6.35 14.19 14.19v53.51h-10.15c-10.08 0-18.26-8.18-18.26-18.27v-35.24c0-7.84 6.35-14.19 14.18-14.19" fill="#f7957c"/>
   <path d="m3429.7 1328.4c-4.75 9.55-7.83 19.83-9.11 30.42l-44.79 371.46c-3.31 27.46-13.03 53.76-28.37 76.78h-330.8c-15.35-23.02-25.06-49.32-28.37-76.78l-44.79-371.46c-1.28-10.59-4.35-20.87-9.11-30.42-13.7-27.56-12.95-60.1 2.01-87l20.06-36.07h145.43l5.68 3.78c27.22 18.16 44.82 47.6 47.9 80.18l26.59 281.34 26.59-281.34c3.08-32.58 20.68-62.02 47.9-80.18l5.67-3.78h145.44l20.06 36.07c14.97 26.9 15.71 59.44 2.01 87" fill="#355d7c"/>
   <path d="m3182.1 1570.6 134.7 14.97-60.78-20.58c-24.38-8.24-51.06-6.22-73.92 5.61" fill="#3f244a"/>
   <path d="m2956.5 1205.3h145.43l-6.08-60.89h-145.11l5.76 60.89" fill="#2e809d"/>
   <path d="m3070.9 1031.8c5.75 30.39 8.65 61.25 8.65 92.18v20.47h-113.66v-154.23h97.14l7.87 41.579" fill="#fac1a4"/>
   <path d="m2965.9 990.19v-138h71.03l26.11 138h-97.14" fill="#fff"/>
   <path d="m2891.7 764.41c-2.72-7.199-4.18-14.918-4.18-22.828h168.96l-4.03 22.828h-160.75" fill="#fff"/>
  </g>
  <g fill="#3f244a">
   <path d="m3037 852.19h-71.03l-25.62-35.601c-4.2-5.828-9.34-10.918-15.2-15.051l-10.19-7.18c-10.7-7.539-18.69-18.027-23.2-29.949h160.75l-15.51 87.781"/>
   <path d="m2965.9 1144.4h113.65l-113.65-25.37z"/>
   <path d="m3182.1 1570.6-134.71 14.97 60.79-20.58c24.38-8.24 51.06-6.22 73.92 5.61"/>
  </g>
  <g>
   <path d="m3407.7 1205.3h-145.44l6.09-60.89h145.11l-5.76 60.89" fill="#2e809d"/>
   <path d="m3293.2 1031.8c-5.75 30.39-8.64 61.25-8.64 92.18v20.47h113.65v-154.23h-97.15l-7.86 41.579" fill="#fac1a4"/>
   <path d="m3398.2 990.19v-138h-71.03l-26.12 138h97.15" fill="#fff"/>
   <path d="m3472.4 764.41c2.72-7.199 4.17-14.918 4.17-22.828h-168.95l4.04 22.828h160.74" fill="#fff"/>
   <path d="m3327.2 852.19h71.03l25.62-35.601c4.2-5.828 9.33-10.918 15.2-15.051l10.19-7.18c10.7-7.539 18.69-18.027 23.2-29.949h-160.74l15.5 87.781" fill="#3f244a"/>
   <path d="m3398.2 1144.4h-113.65l113.65-25.37z" fill="#3f244a"/>
   <path d="m3164.4 1807 17.64-236.43c17.89 29.81 26.81 64.14 25.7 98.89l-4.39 137.54h-38.95" fill="#2e809d"/>
   <path d="m3167 1722.8 75.14 116.68-24.42 15.72-75.14-116.67c-1.82-2.84-1-6.61 1.82-8.42l14.18-9.13c2.83-1.82 6.6-1.01 8.42 1.82" fill="#fff"/>
   <path d="m3217.7 1855.2 24.42-15.72-11.87-18.43-26.92 11.83 14.37 22.32" fill="#93a2b0"/>
   <path d="m3446.8 1719.7c27.29-2.83 51.72 17 54.55 44.29 1.65 15.89-4.53 30.68-15.26 40.93l-55.85-80.32c5.09-2.48 10.6-4.29 16.56-4.9" fill="#fff"/>
   <path d="m3279.1 1937-61.17 33.95c-5.89 3.26-13.32 1.13-16.57-4.77l-35.39-64.13c-3.09-5.61-1.32-12.66 4.07-16.12l21.89-14.1c47.35-30.49 87.8-70.05 119.28-116.09l90.9 136.51c-42.96 8.42-84.51 23.38-123.01 44.75" fill="#fff"/>
   <path d="m3460.3 1884.9c-19.63 1.07-39.07 3.66-58.26 7.42l-90.9-136.51c15.14-22.15 28.24-45.77 38.97-70.64l22.93-53.13 175.8 248.1-88.54 4.76" fill="#e9465c"/>
   <path d="m3186.5 1958.5c-15.57 0-28.18-12.62-28.18-28.19 0-9.06 4.35-17.04 11-22.2l26.81 48.59c-3.02 1.1-6.23 1.8-9.63 1.8" fill="#c6d7d9"/>
   <path d="m3373.1 1625.9c-1.22 0-2.45 0.37-3.52 1.12-2.74 1.94-3.39 5.75-1.45 8.49l175.8 248.1c1.95 2.75 5.75 3.39 8.49 1.45 2.75-1.95 3.39-5.74 1.45-8.49l-175.8-248.1c-1.18-1.67-3.06-2.57-4.97-2.57" fill="#f57e5a"/>
   <path d="m3000.4 2050.6-15.21-71.04 170.47-140.03 57.84 9.13-10.15-15.75 37.11-16.3c10.98-4.82 14.42-18.74 6.94-28.11l-35.59-44.63c-7.07-8.86-20.42-9.21-27.94-0.73l-49.52 55.81-202.8 95.53c-25.16 11.85-39.09 39.25-33.85 66.57l21.86 113.79 80.84-24.24" fill="#fac1a4"/>
   <path d="m2919.6 2074.8 80.84-24.24-6.03-28.15-76.19 45.23 1.38 7.16" fill="#3f244a"/>
   <path d="m3237.7 2337.2-76.21-30.95-79.35 30.95-6.85-30.95-24.1-32.47 10.25-16.33c25.51-40.67 56.53-77.62 92.18-109.78l29.49-26.62 21.42 28.49c28.33 37.67 51.41 78.99 68.62 122.87l3.72 9.48-29.65 28.92-9.52 26.39" fill="#e9465c"/>
  </g>
  <g fill="#bd2b61">
   <path d="m3219 2232.7c-20.54 6.57-46.22 16.12-70.05 29.44-23.94 13.14-45.65 29.85-62.1 43.79 11.2-18.39 32.02-39.01 57.13-52.76 24.97-14 53.49-20.71 75.02-20.47"/>
   <path d="m3242.8 2297.7c-10.43-5.13-23.6-12.04-37.09-18.27-13.47-6.28-27.25-11.86-37.9-16.52 11.57 1.08 26.42 5.07 40.22 11.51 13.84 6.38 26.48 15.14 34.77 23.28"/>
   <path d="m3186.2 2201c-13.37 7.96-30.21 18.41-45.7 30.7-15.57 12.2-29.67 26.12-40.53 37.26 6.8-13.97 19.75-30.41 35.95-43.07 16.1-12.79 35.09-21.54 50.28-24.89"/>
  </g>
  <g>
   <path d="m3451 2212.8h-23.34v161.19h23.34v-161.19" fill="#d5555f"/>
   <path d="m3451 2374h-23.34v-5.4l23.34-23.21v28.61" fill="#3f244a"/>
   <path d="m3695.8 2977.8h-512.97v-334.22h512.97v334.22" fill="#fff"/>
  </g>
  <g fill="#3a476c">
   <path d="m3293.8 2895.1c28.13 0 42.59-16.83 42.59-46.27v-5.79h-27.34v7.63c0 13.14-5.26 18.14-14.46 18.14s-14.46-5-14.46-18.14c0-13.41 5.78-23.4 24.71-39.96 24.19-21.3 31.82-36.55 31.82-57.58 0-29.45-14.73-46.27-43.12-46.27s-43.12 16.82-43.12 46.27v11.3h27.34v-13.14c0-13.14 5.79-17.88 14.99-17.88s14.98 4.74 14.98 17.88c0 13.41-5.78 23.4-24.71 39.96-24.19 21.29-31.81 36.54-31.81 57.58 0 29.44 14.46 46.27 42.59 46.27"/>
   <path d="m3380.8 2767.3h27.87l-13.67 93.07h-0.53zm65.99-58.37h-29.18l-5 33.39h-35.49l-4.99-33.39h-26.56l29.45 184.04h42.33l29.44-184.04"/>
   <path d="m3460.2 2893h28.92v-157.75h47.58v-26.29h-76.5v184.04"/>
   <path d="m3578.2 2815.4h39.69v-26.29h-39.69v-53.9h49.95v-26.29h-78.87v184.04h78.87v-26.29h-49.95v-51.27"/>
  </g>
  <g>
   <path d="m3451 2482.4h-23.34v161.18h23.34v-161.18" fill="#d5555f"/>
   <path d="m3451 2620.2h-23.34v23.33h23.34v-23.33" fill="#3f244a"/>
   <path d="m5116.5 1695.9-95.07-390.27c-12.16-49.92-14.94-101.65-8.19-152.57l46.53-350.75h183.36l-7.96 117.17c-6.74 99.281-22.8 197.7-47.95 293.96l161.16 358.5h24.67l-30.97-285.38c-4.54-41.92-2.67-84.29 5.58-125.66l71.43-358.59h189.12l-20.86 169.7c-10.59 86.22-34.05 170.37-69.59 249.65l61.06 274.21c19.34 86.85 18.71 176.97-1.86 263.54l-448.95-18.08-11.51-45.43" fill="#4b649b"/>
   <path d="m5348.4 1571.9h38.34c28.59 0 56.67 7.67 81.3 22.2h-138.15l-47.06-168.05 65.57 145.85" fill="#3f244a"/>
   <path d="m5384.5 1652.9c-43.5 4.57-85.12 19.59-127.54 30.26-42.42 10.68-93.65 10.91-140.52 12.76l11.51 45.43 448.95 18.08c3.54-14.89 6.45-29.89 8.8-44.96-55.36-46.01-129.52-69.09-201.2-61.57" fill="#3f244a"/>
  </g>
  <g fill="#6686b7">
   <path d="m5060.7 740.63h202.17l-8.61 61.672h-202.17l8.61-61.672"/>
   <path d="m5420.3 740.63h202.18l-8.62 61.672h-202.17l8.61-61.672"/>
   <path d="m5394.4 1554-37.12-270.96c-4.09-29.77-3-60.02 3.2-89.43l78.33-371.63c6.21 24.328 6.64 49.778 1.24 74.301l-66 299.93c-6.39 29.04-7.78 58.97-4.11 88.5l29.22 234.72c1.47 11.74-0.18 23.65-4.76 34.57"/>
   <path d="m5129.6 1680.5-98.11-413.34c-5.81-24.48-7.12-49.82-3.84-74.77l48.5-370.33c6.25 28.559 7.35 57.989 3.24 86.93l-39.99 281.71c-3.7 26.05-2.4 52.56 3.82 78.13l88.07 361.86c4 16.45 3.42 33.68-1.69 49.81"/>
  </g>
  <g>
   <path d="m5008.6 689.52 6.94 2.91c10.84 4.539 20.64 11.23 28.82 19.66l27.69 28.539h143.07l17.25-82.637h-262.19c9.35 13.84 22.6 24.899 38.42 31.528" fill="#3a476c"/>
   <path d="m5232.4 657.99 6.18-29.601h-281.21c2.42 10.73 6.83 20.73 12.84 29.601h262.19" fill="#fff"/>
   <path d="m5072.1 740.63h143.07l5.93-28.41-162.79 14.203 13.79 14.207" fill="#3f244a"/>
   <path d="m5378.2 689.52 6.94 2.91c10.84 4.539 20.64 11.23 28.82 19.66l27.68 28.539h143.08l17.25-82.637h-262.21c9.36 13.84 22.61 24.899 38.44 31.528" fill="#3a476c"/>
   <path d="m5602 657.99 6.18-29.601h-281.21c2.41 10.73 6.83 20.73 12.82 29.601h262.21" fill="#fff"/>
   <path d="m5441.7 740.63h143.08l5.93-28.41-162.79 14.203 13.78 14.207" fill="#3f244a"/>
   <path d="m5058.1 2190.4c59.74 13.73 97.06 73.29 83.33 133.05l-8.54 37.15c-13.72 59.75-73.29 97.07-133.04 83.34s-97.06-73.29-83.34-133.04l8.54-37.16c13.73-59.75 73.29-97.06 133.05-83.34" fill="#fac1a4"/>
   <path d="m4911.7 2274.4c0-20.09 16.29-36.39 36.39-36.39 20.08 0 36.38 16.3 36.38 36.39s-16.3 36.38-36.38 36.38c-20.1 0-36.39-16.29-36.39-36.38" fill="#fac1a4"/>
   <path d="m5137.5 2240.4c33.01 23.92 57.08 60.72 62.94 101.06 5.85 40.34-7.48 83.62-36.98 111.74-29.51 28.13-74.96 39.27-113.31 25.46-9.53 12.68-21.53 24.4-35.61 31.68s-33.49 6.87-43.7-5.25c-7.97-9.47-9.43-24.49-20.26-30.48-14.64-8.1-31 7-47.4 10.29-23 4.61-44.16-15.52-53.19-37.18-15.01-35.96-7.81-80.18 17.81-109.54 25.64-29.36 68.47-42.46 106.14-32.45 6.98-19.74 16.18-40.57 31.3-55.05 16.31-15.61 39.59-22.22 62.16-22.65 22.58-0.43 51.82-0.86 70.1 12.37" fill="#f4892d"/>
   <path d="m4856.2 2052.1-33.3-30.01-115.74 127.04c12.85 15.82 21.85 34.4 26.29 54.3l8.67 38.82c-10.39 0-20.09-5.23-25.8-13.91l-21.69-32.96-43.32 94.05c-2.01 4.38-7.01 6.51-11.56 4.93-4.56-1.58-7.16-6.34-6.05-11.02l12.21-50.96-40.1 52.02c-3.18 4.13-8.91 5.32-13.46 2.78-4.89-2.72-6.8-8.78-4.36-13.82l28.32-58.24-49.21 34.61c-3.92 2.75-9.29 2.08-12.4-1.56-3.17-3.69-2.95-9.19 0.48-12.62l44.48-44.49-38.96 17.14c-3.91 1.73-8.46-0.29-9.81-4.34-1.06-3.18 0.17-6.65 3-8.44l104.98-66.64 116.66-205.49c17.14-30.19 57.65-37.05 83.79-14.2l78.9 69.02-82.02 73.99" fill="#fac1a4"/>
   <path d="m4856.2 2052.1-13.18-11.89c-4.09-70.34 55.84-96.53 55.84-96.53l39.36 34.43-82.02 73.99" fill="#3f244a"/>
   <path d="m5259.7 2267.4-209.53-19.13c-48.73-4.45-93.13-29.89-121.61-69.69l-83.41-116.57 0.15-1.13c7.38-51.08 44.8-92.67 94.82-105.35l72.76 96.61 51.43-138.44c22.66-61.01 38.76-124.29 48-188.71l4.18-29.09 94.98 8.9c39.49 3.7 79.32 1.19 118.04-7.44 84.57-18.84 173.05-8.21 250.74 30.14l21.37 10.54-40.31 138.78c-27.51 94.69-69.01 184.75-123.14 267.19l-35.84 54.59c-31.19 47.51-86.03 73.97-142.63 68.8" fill="#f46a9a"/>
   <path d="m5012.9 2052.1-22.69-13.92c-29.1-17.83-47.76-48.65-50.07-82.69l72.76 96.61" fill="#f14984"/>
   <path d="m6322.1 2068c-20.01 62.78-83.8 105.17-119.86 118.64h-109.75l-15.48-11.99c-69.66-53.98-108.13-138.89-102.82-226.84l11.32-187.11-19.82-258.34h330.45l-55.47 309.06 81.43 256.58" fill="#457fca"/>
   <path d="m6216 2092.4-3.24-3.49c-19.6-21.23-32-48.1-35.45-76.79l-23.13-192.36c-6.73-55.99 2.23-112.75 25.88-163.95l70.91-153.49h45.16l-55.47 309.06 81.43 256.58-106.09 24.44" fill="#3160b5"/>
   <path d="m6319.9 2422.4 26.02-60.05c2.47-5.71-1.11-12.21-7.25-13.18l-28.28-4.43 9.51 77.66" fill="#f79484"/>
   <path d="m6067.9 2379.6v33.28c0 72.21 58.54 130.75 130.75 130.75 72.22 0 130.75-58.54 130.75-130.75v-33.28c0-68.03-51.95-123.88-118.34-130.13l-8.84-62.84h-109.75l14.1 100.17c-23.88 23.69-38.67 56.51-38.67 92.8" fill="#fac1a4"/>
   <path d="m6217.7 2349.9c17.39 0 31.49 14.1 31.49 31.5v36.85c23.61 8.17 43.87 19.19 65.47 31.73 21.61 12.54 41.15 29.81 52.38 52.12 11.22 22.31 13.13 50.11 1.18 72.05-11.94 21.94-39.02 35.79-63.04 28.93-18-5.14-31.55-20.11-48.73-27.53-23.62-10.2-50.63-5.03-76.33-5.9-66.04-2.23-128.06-50.1-146.96-113.42-18.89-63.32 6.76-137.34 60.78-175.4 11.3-7.97 24.72-14.66 38.41-12.77 16.18 2.22 28.72 16.23 34.11 31.63 5.4 15.4 4.99 32.15 4.5 48.46 14.22 3.09 32.18 1.75 46.74 1.75" fill="#472042"/>
   <path d="m6135.3 2363.3c0-26.47 21.47-47.94 47.94-47.94 26.48 0 47.94 21.47 47.94 47.94 0 26.48-21.46 47.95-47.94 47.95-26.47 0-47.94-21.47-47.94-47.95" fill="#fac1a4"/>
   <path d="m6154.8 2363.3c0-15.7 12.73-28.43 28.43-28.43 15.71 0 28.43 12.73 28.43 28.43s-12.72 28.43-28.43 28.43c-15.7 0-28.43-12.73-28.43-28.43" fill="#f79484"/>
   <path d="m6475 1852.4 132.54-15.46c-2.14 16.41-14.35 29.7-30.5 33.23l-24.78 5.41c11.51 21.08 30.21 37.33 52.7 45.76l15.56 5.84c6.32 2.37 6.93 11.07 1 14.3l-6.08 3.32c-11.82 6.45-25.06 9.83-38.52 9.83h-0.76c-32.35 0-63.69-11.26-88.65-31.85l-32.72-26.99 20.21-43.39" fill="#fac1a4"/>
   <path d="m6497.9 1885.6c7.05-11.08 10.92-24.09 11.44-37.21l-34.31 4-20.21 43.39 17.35 14.31c10.35-5.98 19.3-14.4 25.73-24.49" fill="#f79484"/>
   <path d="m6316.8 1870.9 138.63 37.4c23.97-19.92 35.78-50.94 31.12-81.76l-0.21-1.45-175.93-72.31 6.39 118.12" fill="#457fca"/>
   <path d="m6330 1874.4 11.73-108.8-31.32-12.87 6.39 118.12 13.2 3.55" fill="#3160b5"/>
   <path d="m6442 535.56h-174.33l5.96 56.273h173.99l-5.62-56.273" fill="#46587f"/>
   <path d="m6142.2 591.83-4.51-56.273h-175.93l6.09 56.273h174.35" fill="#46587f"/>
   <path d="m6014 1019-31.38 285.14c-4.43 40.17-5.49 80.64-3.17 120.99l4.45 77.25h348.67l139.25-398.43c13.72-39.26 18.69-81.04 14.56-122.42l-38.84-389.66h-173.99l46.34 436.63-127.03 220.2-15.61-218.61-35.11-438.22h-174.35l46.21 427.13" fill="#3a476c"/>
   <path d="m6192.9 1248.7-40.87 77.14-117.38 8.55 24.02-16.64c11.19-7.74 24.47-11.89 38.08-11.89 28.28 0 53.5-17.78 63.01-44.41l4.74-13.3c3.21-8.97 4.46-18.52 3.67-28.01l-9.71-117.28c-4.28-51.55-3.3-103.41 2.92-154.76l5.61-46.457 25.91 347.06" fill="#3f244a"/>
   <path d="m5983.9 1502.3-1.47-25.41h275.65l19.02-43.44v-43.39c0-28.99 26.31-50.86 54.8-45.57l52.42 9.75-51.75 148.06h-348.67" fill="#3f244a"/>
   <path d="m6453.2 497.49 73.65-27.797c10.53-3.992 18.96-12.16 23.25-22.582l9.91-24.078h-242.49l23.5 85.578h96.15c4.29-4.839 9.7-8.738 16.03-11.121" fill="#3a476c"/>
   <path d="m6426.9 535.56c0-10.168 3.83-19.661 10.29-26.95h-96.15l7.41 26.95h78.45" fill="#3f244a"/>
   <path d="m6110.3 508.61 19.16-29.648c11.24-17.402 20.13-36.211 26.44-55.93h-169.98l20.8 85.578h103.58" fill="#3a476c"/>
   <path d="m6013.2 535.56h79.64l17.4-26.95h-103.58l6.54 26.95" fill="#3f244a"/>
   <path d="m6326 2041.9-15.62-289.12 66.56-264.67-77.65-28.54-97.16 239.57c-12.22 30.13-17.86 62.52-16.54 95.01l10.28 253.91c1.51 37.22 33.88 65.6 70.97 62.24 34.92-3.17 61.06-33.39 59.16-68.4" fill="#457fca"/>
   <path d="m6370.6 1485.7 27.27-94.01c1.88-6.45 2-13.26 0.39-19.78l-3.07-12.32c-6.77-27.25-36.75-41.51-62.17-29.59-19.88 9.33-30 31.72-23.87 52.79l2.03 6.98-6.23 71.82 65.65 24.11" fill="#fac1a4"/>
   <path d="m6370.6 1485.7-65.65-24.11 2.44-28.14 67.31 38.15-4.1 14.1" fill="#3f244a"/>
  </g>
  <g clip-path="url(#clipPath3383)">
   <path d="m676.85 1537.4c-9.403 16.14-23.836 28.75-41.086 35.9l-89.746 37.18h-105.67l-5.989-3.1c-73.152-37.83-116.77-115.57-110.92-197.72l7.586-106.71c2.089-48.24-4.594-96.46-19.719-142.31l-27.278-82.69h326.02l66.805 459.45" fill="#feefcc"/>
   <path d="m594.73 1542.3c-27.497-27.49-41.129-65.91-37.11-104.59l24.313-233.92c2.175-20.98 8.336-41.35 18.136-60.02l15.305-29.15 61.477 422.82-82.121 4.86" fill="#fccd50"/>
   <path d="m610.04 1078 66.805-390.28h-206.3l-20.375 50.148v-50.148h-191.23l-19.695 114.74c-12.531 73.012-3.34 148.09 26.438 215.91l26.175 59.63h318.18" fill="#59a7e0"/>
   <path d="m450.17 687.67h-24.098v35.289c0 9.301-1.812 18.508-5.332 27.109l-12.765 31.2c-5.137 12.562-16.817 21.218-30.328 22.5l-21.176 1.992c-12.547 1.179-24.559 5.668-34.828 12.976l-6.664 4.754h100.39l34.801-85.672v-50.148" fill="#508fd3"/>
   <path d="m291.86 1078h318.18l8.867-51.82-331.89 40.79 4.839 11.03" fill="#508fd3"/>
   <path d="m573.79 436.36 3.34 24.973-89.348 226.34h175.56l37.227-178.89c4.851-23.312 7.296-47.07 7.296-70.89v-265.91h-134.1l-1.449 11.879c-10.211 83.879-9.719 168.73 1.476 252.5" fill="#d5555f"/>
   <path d="m707.86-29.43h-109.57l-24.523 201.41h134.1v-201.41" fill="#fff"/>
   <path d="m663.34 687.67h-175.56l14.485-36.692 163.61 24.489-2.539 12.203" fill="#3f244a"/>
   <path d="m308.34 184.76c-18.11 95.238-16.645 193.17 4.305 287.84l2.332 10.519-41.145 204.55h166.15v-515.69h-129.21l-2.426 12.782" fill="#d5555f"/>
   <path d="m439.98 171.98v-201.41h-90.914l-38.3 201.41h129.21" fill="#fff"/>
   <g fill="#3f244a">
    <path d="m439.98 687.67h-166.15l8.063-40.09 158.08 21.738v18.352"/>
    <path d="m706.77 694.68 47.707 132.85-17.703 6.36-47.714-132.85 17.71-6.359"/>
    <path d="m777.18 694.68 47.707 132.85-17.703 6.36-47.715-132.85 17.711-6.359"/>
    <path d="m625.97 456.98h209.72c20.777 0 37.617 16.84 37.617 37.622v119.76c0 60.762-49.258 110.02-110.02 110.02h-64.906c-60.77 0-110.02-49.258-110.02-110.02v-119.76c0-20.782 16.839-37.622 37.617-37.622"/>
   </g>
   <path d="m697.1 456.98h209.71c20.778 0 37.622 16.84 37.622 37.622v119.76c0 60.762-49.258 110.02-110.02 110.02h-64.906c-60.762 0-110.02-49.258-110.02-110.02v-119.76c0-20.782 16.84-37.622 37.617-37.622" fill="#3a476c"/>
   <path d="m744.91 607.02h142.24v19.98h-142.24v-19.98" fill="#93a2b0"/>
   <path d="m754.02 665.99 18.516 3.258-25.293 143.71c-0.637 3.629 0.356 7.328 2.727 10.148 2.371 2.832 5.851 4.45 9.535 4.45h31.113c18.965 0 34.395-15.43 34.395-34.399v-125.53h18.808v125.53c0 29.328-23.867 53.211-53.203 53.211h-31.113c-9.258 0-17.985-4.07-23.938-11.16s-8.445-16.391-6.847-25.512l25.3-143.71" fill="#93a2b0"/>
   <path d="m573.64 1489.5c-3.711 32.71 19.625 62.29 52.296 66.3 34.004 4.16 64.586-20.95 67.11-55.12l7.625-103.12-115.45-10.13-11.585 102.07" fill="#feefcc"/>
   <path d="m700.68 1397.6 14.383-194.61 92.48-293.11 22.41-91.097c1.207-4.891 0.399-10.063-2.246-14.364l-8.758-14.218c-7.082-11.508-21.316-16.379-33.965-11.629l-32.464 12.219c-13.008 4.89-18.453 20.332-11.395 32.3l4.504 7.629-0.504 1.43c-9.402 26.73-11.129 55.562-4.98 83.223l-113.58 230.52c-11.972 24.3-19.652 50.49-22.711 77.4l-18.625 164.18 115.45 10.13" fill="#d5555f"/>
   <path d="m700.68 1397.6-115.45-10.13 3.145-27.71 112.93 29.31-0.633 8.53" fill="#3f244a"/>
   <path d="m420.13 1785.5v32.04c0 69.53 56.359 125.89 125.89 125.89 69.531 0 125.89-56.36 125.89-125.89v-32.04c0-65.5-50.023-119.27-113.94-125.3l-11.953-49.76h-105.67l17.011 85.71c-22.984 22.8-37.23 54.41-37.23 89.35" fill="#d5555f"/>
   <path d="m661.87 1928.5c4.645 17.68 2.832 37.14-6.656 52.83-16.172 26.74-52.305 39.38-81.621 28.57-11.832 14.41-31.422 22.02-49.871 19.39-18.457-2.65-35.129-15.44-42.446-32.59-21.047 13.9-50.855 12.85-70.89-2.47-20.032-15.33-28.824-43.83-20.918-67.79-29.406-4.74-51.321-43.88-38.711-70.86-26.238-4.57-49.547-23.37-59.567-48.04-10.019-24.68-6.418-54.41 9.215-75.97-19.504-23.5-28.058-55.72-22.777-85.8 5.277-30.08 24.289-57.46 50.625-72.92-4.266-28.16 19.051-53.84 45.039-65.49 54.242-24.33 125.06-1.76 155.23 49.47 8.836-9.63 27.43-10.92 38.297-3.67 9.215 6.15 13.832 17.04 17.965 27.32 4.785 11.91 9.574 23.83 14.363 35.74 4.227 10.51 8.465 21.06 10.903 32.13 5.883 26.73 0.484 55.76-14.602 78.6 17.051 8.75 31.781 22.17 37.578 40.44 3.676 11.6 4.27 24.11 1.95 36.06 13.105 12.74 24.57 27.18 33.91 42.9 15.437 25.97 12.027 58.95-7.016 82.15" fill="#3f244a"/>
  </g>
  <g clip-path="url(#clipPath3435)">
   <path d="m5461.8 731.24c-41.31 136.78-78.84 280.19-73.8 402.34l0.15 3.8 2.51 2.87c75.8 86.51 321.54 212.5 331.97 217.83l9.82-19.25c-2.49-1.27-246.88-126.56-323.01-209.99-3.96-118.14 32.73-257.84 73.05-391.35l-20.69-6.25" fill="#334572"/>
   <path d="m5853.1 574.49-331.53-101.52c-15.21-4.66-31.33 3.902-35.98 19.113l-69.26 226.14c-4.66 15.222 3.9 31.332 19.11 35.992l331.52 101.52c15.22 4.668 31.33-3.89 35.99-19.109l69.26-226.14c4.66-15.218-3.9-31.332-19.11-35.988" fill="#334572"/>
   <path d="m5452.9 721.88 317.75 97.312 7.31-23.89-317.74-97.309-7.32 23.887" fill="#73769e"/>
   <path d="m5349 1166.8c-7.13 0-13.19-5.22-14.24-12.28l-15.3-102.27c-1.15-7.73 4.08-14.98 11.79-16.31l44.96-7.81 16.21 138.67h-43.42" fill="#fac1a4"/>
   <path d="m5419.4 1145.6-26.98 21.21-16.21-138.67 24.36 6.09c5.61 1.4 9.84 6.03 10.73 11.76l13.44 86.07c0.8 5.15-1.24 10.33-5.34 13.54" fill="#f79484"/>
   <g fill="#fac1a4">
    <path d="m5390.4 1149.3-7.66-65.52c15.68-2.32 30.74 6.99 35.69 22.03l4.26 12.95-11.36-72.76 22.81 6.29c9.49 2.63 19.61 1.65 28.43-2.72l161.59-80.241v118.85l-141.01 17.33c-15.72 1.93-28.82 12.97-33.39 28.13-4.24 14.06-15.85 24.67-30.24 27.63l-9.78 2c-9.3 1.91-18.24-4.55-19.34-13.97"/>
    <path d="m5665 1423.2 19.21-100.84 105.92 81.04-19.48 58.83-105.65-39.03"/>
    <path d="m5553.8 1464.4c0.21-25.9 4.52-54.94 25.17-70.58 16.88-12.79 40.05-12.87 61.04-10.09 48.2 6.39 95.34 25.56 131.21 58.38 35.86 32.82 59.57 79.85 59.97 128.48 0.39 48.61-24.15 97.77-65.71 122.98-41.5 25.18-96.02 20.85-137.52-2.67-37.75-21.39-53.18-87.43-62.51-126.02-7.95-32.85-11.94-66.67-11.65-100.48"/>
   </g>
   <path d="m5616.6 1494.1c-18.61 15.37-28.12 42.39-22.43 65.85-21.86 19.79-32.18 51.52-26.11 80.38 12.39 59.02 79.59 97.23 139.9 96.18 60.3-1.04 117.94-42.16 138.55-98.84 14.54-39.97 11.41-84.72-1.32-125.29-6.58-20.96-16.25-41.96-33.46-55.62-21.07-16.75-49.74-19.73-76.65-20.12-20.12-0.28-40.75 0.61-59.38 8.23-23.55 9.65-51.62 24.9-59.1 49.23" fill="#3a476c"/>
   <path d="m5846.5 1637.7c-15.33 42.15-51.15 75.67-93.31 90.52-18.56-23.46-29.88-52.75-28.98-82.54 1.11-36.81 22.51-73.35 55.99-88.7 23.54-10.79 52.33-9.38 74.86 2.77 2.69 26.39 0.48 53.1-8.56 77.95" fill="#3f244a"/>
   <path d="m5933 1688.3c0-56.19-45.55-101.75-101.75-101.75-56.19 0-101.75 45.56-101.75 101.75 0 56.2 45.56 101.75 101.75 101.75 56.2 0 101.75-45.55 101.75-101.75" fill="#3a476c"/>
   <path d="m5624.8 1567.4c10.81 11.03 29.58 15.91 41.85 6.55 11.55-8.83 12.72-25.79 10.52-40.16-2.32-15.14-7.24-29.88-14.48-43.38-4.34-8.09-10.11-16.21-18.77-19.2-25.88-8.91-36.1 22.44-38.38 41.18-2.33 19.16 5.75 41.22 19.26 55.01" fill="#fac1a4"/>
   <path d="m5660.8 1550.4c-0.16 4.08-3.48 7.63-7.4 8.73-3.93 1.1-8.24 0.04-11.69-2.14-3.45-2.19-6.12-5.4-8.39-8.8-7.61-11.38-11.09-25.46-9.71-39.08 0.54-5.24 2.6-11.33 7.69-12.69 2.72-0.75 5.71 0.18 7.95 1.91 2.22 1.74 3.78 4.2 4.96 6.77 3.14 6.82 3.89 14.71 2.09 22.01-1.24 5.04-4.37 10.32-9.47 11.25 1.27 3.45 3.25 6.79 5.33 9.83 2.07 3.04 5.04 5.64 8.61 6.51 3.58 0.87 7.99-1.23 10.03-4.3" fill="#f79484"/>
   <path d="m5684.2 1322.3-120.11-173.78c-22.51-32.57-19.77-76.32 6.62-105.82l16.16-18.08c11.74-13.13 17.92-30.3 17.22-47.898l-3.5-88.601c-0.99-24.95 13.19-48.02 35.89-58.391l4.5-2.051 240.1 70.832 3.29 3.649c16.85 18.808 20.51 46 9.21 68.59l-6.49 12.992v239.14c0 52.19-20.45 102.3-56.95 139.58l-40.02 40.88-105.92-81.04" fill="#52adc3"/>
   <path d="m5790.1 1403.4-83.51-119.97c-7.16-10.27-22.05-11.12-30.31-1.72l-11.31 12.85 19.21 27.8 105.92 81.04" fill="#fff"/>
   <path d="m5722.8 1233.7 164.3-249.91v62.978z" fill="#3f244a"/>
   <path d="m5739.2 1207.5 223.55-242.91 118.86 102.05-216.77 252.54c-31.42 36.61-87.15 39.32-121.98 5.92-33.02-31.67-34.65-83.94-3.66-117.6" fill="#52adc3"/>
   <path d="m5979 978.49 67.51-69.156 106.25-347.56-18.92-141.37c20.19 0 37.89 13.543 43.16 33.032l14.47 53.422 81.04-42.332 44.86-36.028c5.6-4.512 13.76-3.73 18.42 1.738 4.05 4.77 4.22 11.719 0.41 16.68l-29.48 38.32-8.28 45.891c-2.16 11.981-9.65 22.309-20.35 28.09l-61.41 33.168-69.55 350.59c-2.81 14.172-9.05 27.453-18.17 38.66l-60.16 73.971-89.8-77.112" fill="#fac1a4"/>
   <path d="m6068.8 1055.6-71.2-96.17-18.6 19.058z" fill="#3f244a"/>
   <path d="m5368.6 165.28c54.95-15.16 124.57-4.672 180.05 8.449 55.48 13.122 109.86 31.731 166.44 38.79 59.8 7.46 120.44 1.82 180.62 4.89 60.19 3.082 138.1 30.11 181.26 71.719-120.59 98.863-638.34 33.133-688.76-55.117l-19.61-36.012v-32.719" fill="#472042"/>
   <path d="m5654.2 270.03h-190.28l-14.42-97.25-55.96-581.78c-2.21-22.879-13.89-43.789-32.21-57.66l-69.03-52.238c12.9-7.524 29.8-7.602 44.41-3.172 17.2 5.211 32.28 15.57 48.04 24.211 31.49 17.257 66.61 27.73 102.37 30.941l-4.02 15.496c-2.93 11.332-3.21 23.164-1.02 34.641 18.25 95.89 64.04 185.27 98.35 276.9 36.5 97.5 59.44 207.83 20.37 304.33l53.4 105.58" fill="#fac1a4"/>
   <path d="m5463.9 270.03-14.42-97.25-1.49-15.551c25.05 14.211 54.44 21.801 83.37 23.829 25.41 1.793 50.76-0.161 76.04-3.508l46.78 92.48h-190.28" fill="#3f244a"/>
   <path d="m5800.6 373.15-134.56-134.56 58.57-78.942 371.82-450.98c14.62-17.723 21.14-40.774 17.98-63.531l-11.87-85.75c14.44 3.8 26.45 15.699 33.65 29.16 8.48 15.847 11.82 33.828 16.86 51.078 10.07 34.473 27.49 66.723 50.51 94.273l-13.81 8.118c-10.08 5.941-18.65 14.101-25.22 23.781-54.89 80.699-85.71 176.28-126.25 265.33-43.12 94.762-104.92 189-200.79 229.61l-36.89 112.41" fill="#fac1a4"/>
   <path d="m5813.6 163.99c36.22 8.114 69.46 26.051 98.04 49.903-22.21 19.14-46.74 35.238-74.15 46.851l-36.89 112.41-134.56-134.56 58.14-78.36c30.02-2.808 60.12-2.8 89.42 3.758" fill="#3f244a"/>
   <path d="m6077 289.13c-38.12 23.91-88.69 12.961-128.68-7.66-40-20.61-75.74-50.078-118.52-64.039-51.44-16.789-107.45-9.321-160.46 1.511-53.02 10.829-106.43 24.961-160.39 21-53.98-3.941-117.69-25.5-140.32-74.66-19.25 53.59-5 114.19 21.98 164.33 26.97 50.141 65.69 92.762 99.54 138.54 75.8 102.52 128.14 234.08 150.81 359.55l240.1 70.832c88.04-75.211 140.83-189.37 143.62-305.11 1.2-49.781-6.59-99.402-6.28-149.19 0.31-49.789 27.48-116.23 58.6-155.1" fill="#ae2b55"/>
   <path d="m5962.9 629.39c-52.99-130.74-144.91-245.42-260.99-325.58 48.79-25.61 113.8-17.407 156.31 17.652 29.84 24.59 47.92 62.168 50.59 100.63 1.98 28.551 11.05 56.461 29.52 78.34 9.83 11.652 17.95 24.808 23.83 38.422 11.86 27.429 7.46 61.418 0.74 90.539" fill="#472042"/>
  </g>
  <g clip-path="url(#clipPath3495)">
   <path d="m6627.1 1292.3h371.54v-319.59h-198.8l-172.74 319.59" fill="#3e4c78"/>
   <path d="m7866.7 1290.3 62.94 183.9c22.79 66.58-26.69 135.81-97.05 135.81h-636.77l-109.43-319.71-35.99-252.38h729.1l87.2 252.38" fill="#3e4c78"/>
   <path d="m7702.3 1290.3 62.94 183.9c22.79 66.58-26.69 135.81-97.06 135.81h-563.44c-43.86 0-82.87-27.87-97.06-69.37l-16.56-48.36c-45.98-134.35-79.23-272.73-99.26-413.32l-5.86-41.04h729.1l87.2 252.38" fill="#73769e"/>
   <path d="m6799.8 972.73c29.08 89.87 112.77 150.76 207.22 150.76h363.92l-51.93-150.76h-519.21" fill="#3e4c78"/>
   <path d="m7885.4 1287.3c-8.13 2.79-16.39 4.29-24.57 4.83l0.3 0.81h-356.77l-137.01-370.66h34.46l-40.95-139.36h384.38c40.57 0 76.66 25.789 89.78 64.168l109.43 319.7c16.97 49.59-9.47 103.54-59.05 120.51" fill="#3e4c78"/>
   <path d="m7527 1287.3c-49.62 16.99-103.54-9.47-120.51-59.05l-87.47-255.54h-519.21l-87.47 255.54c-16.97 49.59-70.93 76.03-120.5 59.05-49.58-16.97-76.03-70.92-59.06-120.51l109.44-319.7c13.13-38.379 49.21-64.168 89.77-64.168h654.86c40.56 0 76.64 25.789 89.77 64.168l109.42 319.7c16.98 49.59-9.46 103.54-59.04 120.51" fill="#93a2af"/>
   <path d="m6717 716.05-65.64-293.02h23.52l111.96 293.02h-69.84" fill="#d5555f"/>
   <path d="m6674.9 423.03h13.23l142.91 293.02h-44.18l-111.96-293.02" fill="#9f2e46"/>
   <path d="m6812.4 782.94h-80.41l-14.99-66.89h69.84l25.56 66.89" fill="#3a476c"/>
   <path d="m6812.4 782.94-25.56-66.89h44.18l32.63 66.89h-51.25" fill="#3f244a"/>
   <path d="m7278.5 782.94h-41.5l32.63-66.89h35.02l-26.15 66.89" fill="#3f244a"/>
   <path d="m7383.6 716.05-14.98 66.89h-90.16l26.15-66.89h78.99" fill="#3a476c"/>
   <path d="m7269.6 716.05 142.92-293.02h6.66l-114.56 293.02h-35.02" fill="#9f2e46"/>
   <path d="m7383.6 716.05h-78.99l114.56-293.02h30.08l-65.65 293.02" fill="#d5555f"/>
   <path d="m7074 716.05-65.65-293.02h36.74l142.92 293.02h-114.01" fill="#9f2e46"/>
   <path d="m7088.9 782.94-14.98-66.89h114.01l32.63 66.89h-131.66" fill="#3f244a"/>
  </g>
  <g clip-path="url(#clipPath3535)">
   <path d="m6518 1770.5h-48.54v1366.1h48.54v-1366.1" fill="#fff"/>
   <path d="m8254.9 1669.1h-1889.6v101.38h1889.6v-101.38" fill="#d5555f"/>
   <path d="m6539.8 946.72h-103.14v722.36h103.14v-722.36" fill="#d5555f"/>
   <path d="m6539.8 1565h-103.14v104.08h103.14v-104.08" fill="#9f2e46"/>
   <path d="m6948.8 3622.1-82.05-568.04h295.56l27.35 568.04h-240.86" fill="#fab850"/>
   <path d="m6467.1 3622.1-191.44-568.04h295.56l136.75 568.04h-240.87" fill="#fab850"/>
   <path d="m6707.9 3622.1-136.75-568.04h295.56l82.05 568.04h-240.86" fill="#fff"/>
   <path d="m7430.5 3622.1 27.34-568.04h295.57l-82.05 568.04h-240.86" fill="#fab850"/>
   <path d="m7189.6 3622.1-27.35-568.04h295.56l-27.34 568.04h-240.87" fill="#fff"/>
   <path d="m6275.6 3054.1v-15.92c0-65.04 66.16-117.77 147.78-117.77s147.78 52.73 147.78 117.77v15.92h-295.56" fill="#f79447"/>
   <path d="m6571.2 3054.1v-15.92c0-65.04 66.16-117.77 147.78-117.77s147.78 52.73 147.78 117.77v15.92h-295.56" fill="#f0ebe7"/>
   <path d="m6866.7 3054.1v-15.92c0-65.04 66.17-117.77 147.78-117.77 81.62 0 147.78 52.73 147.78 117.77v15.92h-295.56" fill="#f79447"/>
   <path d="m7162.3 3054.1v-15.92c0-65.04 66.17-117.77 147.79-117.77 81.61 0 147.78 52.73 147.78 117.77v15.92h-295.57" fill="#f0ebe7"/>
   <path d="m7457.9 3054.1v-15.92c0-65.04 66.16-117.77 147.77-117.77 81.63 0 147.79 52.73 147.79 117.77v15.92h-295.56" fill="#f79447"/>
  </g>
 </g>
 <flowRoot fill="black" font-family="inter" font-size="40px" letter-spacing="0px" word-spacing="0px" style="line-height:1.25" xml:space="preserve"><flowRegion><rect x="-1.8865" y="-2.7405" width="605.58" height="209.41"/></flowRegion><flowPara/></flowRoot>
 <g fill="#fff">
  <path d="m719.06 217.62c-0.6897-4.9141-3.1036-8.7075-7.4143-11.208-1.9829-1.1208-4.1381-1.8967-6.3797-2.845 0.2586-0.17243 0.4311-0.34487 0.6034-0.43107 10.777-5.5176 9.8283-22.157 1.983-27.847-3.1899-2.3277-6.7246-3.7934-10.432-4.6555-2.6725-0.60349-5.3452-1.0346-8.1039-1.4656 0-4.8279 0.086-11.466 0.086-16.811h-10.001c-0.086 5.259-0.086 11.725-0.1724 16.467h-8.1041c0-4.7417 0.086-11.208 0.086-16.467h-10.087c-0.086 5.3452-0.086 11.984-0.1724 16.725-6.8969-0.0863-13.535-0.0863-20.432-0.17244 0 3.7072-0.086 7.1557-0.086 10.777 1.4657 0 2.759 0 3.9659 0.0863 1.2932 0 2.5864 0 3.7933 0.0863 3.5348 0.25864 5.3452 2.2415 5.3452 5.69-0.086 14.398-0.2587 28.881-0.4311 43.279 0 3.1899-1.3793 4.3969-4.4831 4.3969h-6.7245c-0.6898 4.052-1.3794 7.9316-2.0692 11.984 6.8108 0.0861 13.536 0.17242 20.432 0.25862 0 5.1728-0.086 11.725-0.086 17.156h10.087c0.086-5.4314 0.086-11.811 0.1725-16.898 2.845 0.0863 5.4314 0.17242 8.104 0.25864 0 5.1728-0.086 11.466-0.086 16.725h10.087c0.086-5.4314 0.086-11.811 0.1725-16.811 0.3449-0.0861 0.6034-0.0861 0.8621-0.17242 4.828-0.77592 9.742-1.207 14.398-2.3277 6.1211-1.5518 10.949-5.0865 13.535-11.121 1.8966-4.6555 2.3277-9.5696 1.5518-14.656zm-47.848-36.899c6.2935 0 12.415-0.51728 18.105 2.0691 3.7933 1.638 5.6899 4.7417 5.4314 8.4488-0.2587 3.9658-2.5002 6.8108-6.5523 8.104-5.5175 1.8105-11.294 1.7242-17.243 1.4656 0.1726-6.5521 0.1726-13.104 0.2588-20.088zm21.984 50.348c-5.6039 2.5002-11.466 2.5002-17.415 2.5864-1.638 0-3.276-0.0863-5.0865-0.0863 0.086-7.5005 0.1725-14.829 0.2585-22.329 7.6731 0 15.26-0.60349 22.415 2.5864 3.7073 1.638 5.8626 4.483 5.8626 8.7075s-2.3277 6.897-6.0349 8.535z" stroke-width=".86213"/>
  <polygon transform="matrix(.52256 0 0 .52256 748.61 268.83)" points="64.6 71.5 84.3 64.3 89.2 45.9 89 45.5 69.6 52.6 83.6 0 44 0 25.7 68.6 10.5 74.2 5.4 93.1 20.7 87.6 9.9 128 115.3 128 122 102.8 56.3 102.8"/>
  <g transform="matrix(.90775 0 0 .90775 736.78 22.707)">
   <polygon points="104.9 72.9 65.7 96.4 65.7 128" fill="#fff"/>
   <polygon points="65.7 45.6 103.4 62.7 65.7 0"/>
   <polygon points="103.1 66.2 65.7 49.2 65.7 88.1"/>
   <polygon points="62.4 45.6 24.7 62.7 62.4 0"/>
   <polygon points="24.9 66.2 62.4 49.2 62.4 88.1"/>
   <polygon points="23.1 72.9 62.3 96.4 62.3 128" fill="#fff"/>
  </g>
  <g transform="matrix(.71992 0 0 .71992 1018.2 295.72)">
   <path d="m3 99.8c2-5.8 3.8-11.2 5.8-16.7 0.2-0.5 1.2-1 1.8-1 3.3-0.1 6.6 0 9.9 0h64.6c1.7 0 2.5-0.5 3-2.2 3.6-10.6 7.3-21.2 11-31.8 0.2-0.6 0.3-1.1 0.6-2h-78.3c2-5.9 3.9-11.4 5.9-16.9 0.2-0.4 1-0.8 1.5-0.8 2-0.1 3.9 0 5.9 0 26.5 0 53 0.2 79.6-0.1 7.9-0.1 16.3 6 12.9 17.6-2.5 8.7-5.8 17.1-8.7 25.6-1 2.9-2 5.9-3 8.7-3.7 10.2-11.2 16.3-21.5 19.2-0.9 0.3-1.9 0.3-2.9 0.3h-85.9c-0.6 0.1-1.3 0.1-2.2 0.1z"/>
   <path d="m52.6 55.6c-2 5.6-3.9 10.9-5.9 16-0.1 0.4-0.9 0.7-1.4 0.7h-44.5c-0.2 0-0.4-0.1-0.8-0.3 1.9-5.2 3.7-10.3 5.7-15.4 0.2-0.5 1-1 1.5-1h45.4z"/>
  </g>
  <g transform="matrix(.85262 0 0 .85262 949.9 153.45)">
   <path d="m85.7 10c-0.1-3.8 3.3-7.4 7.7-7.2 3.8 0.2 7 3.5 7 7.5 0 4.1-3.4 7.3-7.6 7.2-4-0.1-7.2-3.4-7.1-7.5z"/>
   <path d="m101.3 106.5c4.1 0 7.3 3.2 7.3 7.3s-3.3 7.4-7.4 7.4c-4 0-7.3-3.3-7.3-7.3 0-4.2 3.3-7.4 7.4-7.4z"/>
   <path d="m7.3 76.5c-4.2 0-7.3-3.3-7.3-7.5 0-4 3.3-7.2 7.4-7.1 4.1 0 7.3 3.3 7.3 7.5-0.1 3.9-3.4 7.1-7.4 7.1z"/>
   <path d="m88.8 29.6c0-3.5 2.8-6.3 6.3-6.3 3.4 0 6.2 2.8 6.3 6.2 0 3.4-2.8 6.3-6.3 6.4-3.5 0-6.3-2.8-6.3-6.3z"/>
   <path d="m23.1 51.4c3.5 0 6.4 2.8 6.4 6.2s-2.9 6.3-6.3 6.3c-3.5 0-6.3-2.8-6.3-6.3 0-3.4 2.7-6.2 6.2-6.2z"/>
   <path d="m111.4 38.1c-3.4 0-6.3-2.8-6.2-6.2 0-3.5 2.9-6.3 6.3-6.3 3.4 0.1 6.2 2.9 6.2 6.3 0.1 3.5-2.8 6.2-6.3 6.2z"/>
   <path d="m83.4 112.2c-3.5 0-6.3-2.9-6.3-6.3s2.8-6.2 6.3-6.3c3.4-0.1 6.3 2.9 6.3 6.3s-2.9 6.3-6.3 6.3z"/>
   <path d="m23.2 42.3c0 3.5-2.8 6.3-6.3 6.2-3.4 0-6.2-2.8-6.2-6.3 0-3.4 2.8-6.3 6.2-6.3s6.3 2.9 6.3 6.4z"/>
   <path d="m73.1 125.2c-3.5 0-6.2-2.8-6.2-6.3s2.8-6.2 6.2-6.2c3.5 0 6.3 2.8 6.3 6.3s-2.8 6.2-6.3 6.2z"/>
   <path d="m54.6 108.9c0-3 2.4-5.3 5.3-5.3 3 0 5.4 2.5 5.3 5.5 0 3-2.4 5.3-5.4 5.3-2.9 0-5.3-2.4-5.2-5.5z"/>
   <path d="m114.8 48.4c0 3-2.4 5.4-5.4 5.4-2.9 0-5.3-2.4-5.3-5.4s2.4-5.4 5.4-5.4c2.9 0 5.3 2.4 5.3 5.4z"/>
   <path d="m37.5 35.8c0 3-2.4 5.3-5.3 5.3-3 0-5.4-2.4-5.3-5.4 0-3 2.3-5.3 5.3-5.3 3.1 0 5.4 2.3 5.3 5.4z"/>
   <path d="m43.8 51.1c0 3-2.3 5.4-5.3 5.4s-5.4-2.3-5.4-5.3c0-3.1 2.3-5.4 5.4-5.4 3 0 5.3 2.3 5.3 5.3z"/>
   <path d="m24.7 21.8c0-3 2.4-5.3 5.4-5.3s5.3 2.4 5.3 5.4-2.3 5.3-5.3 5.4c-3.1-0.1-5.5-2.5-5.4-5.5z"/>
   <path d="m87.7 46.1c0-3 2.4-5.4 5.3-5.4 3 0 5.4 2.4 5.4 5.4s-2.4 5.3-5.4 5.3c-3 0.1-5.3-2.3-5.3-5.3z"/>
   <path d="m70.1 90.5c2.9 0 5.3 2.4 5.3 5.4s-2.4 5.4-5.4 5.3c-3 0-5.3-2.4-5.3-5.4 0-2.9 2.4-5.3 5.4-5.3z"/>
   <path d="m54.3 117.9c0 3-2.3 5.3-5.3 5.3s-5.4-2.4-5.4-5.3c0-3 2.4-5.4 5.4-5.4s5.3 2.4 5.3 5.4z"/>
   <path d="m122.5 58.8c-2.9 0-5.3-2.5-5.3-5.3 0-3 2.5-5.4 5.5-5.4 2.9 0 5.4 2.5 5.3 5.4 0 2.9-2.5 5.3-5.5 5.3z"/>
   <path d="m55.4 98.2c0 2.5-2.1 4.6-4.6 4.6-2.6 0-4.6-2.1-4.6-4.6 0-2.6 2.1-4.6 4.7-4.6 2.5 0 4.5 2 4.5 4.6z"/>
   <path d="m46.2 28.7c2.6 0 4.6 2 4.6 4.6 0 2.5-2.1 4.6-4.6 4.6s-4.7-2.1-4.6-4.7c0-2.4 2.1-4.5 4.6-4.5z"/>
   <path d="m56.4 85.1c0-2.6 2-4.6 4.5-4.6 2.6 0 4.7 2 4.7 4.6 0 2.5-2 4.6-4.6 4.6-2.6-0.1-4.6-2-4.6-4.6z"/>
   <path d="m39.9 111.6c-2.6 0-4.7-2-4.7-4.5s2-4.6 4.6-4.6 4.7 2 4.6 4.6c0 2.5-1.9 4.5-4.5 4.5z"/>
   <path d="m92.7 59.5c0 2.5-2 4.5-4.5 4.5-2.6 0-4.6-2-4.6-4.6s2-4.6 4.6-4.6 4.5 2 4.5 4.7z"/>
   <path d="m43.9 23.9c-2.6 0-4.6-1.9-4.6-4.5s2.1-4.7 4.6-4.7 4.6 2.1 4.6 4.6c0 2.6-2 4.6-4.6 4.6z"/>
   <path d="m104.6 66.2c-2.6 0-4.5-2-4.5-4.6 0-2.5 2-4.5 4.6-4.6 2.6 0 4.6 2 4.5 4.7 0 2.7-2 4.6-4.6 4.5z"/>
   <path d="m52.3 53.2c-2.5 0-4.5-2.1-4.5-4.6s2.2-4.5 4.7-4.5 4.5 2.1 4.5 4.6-2.1 4.5-4.7 4.5z"/>
   <path d="m117.7 71.3c-2.6-0.1-4.6-2.2-4.5-4.8 0.1-2.5 2.2-4.5 4.7-4.4 2.6 0.1 4.6 2.2 4.5 4.9-0.1 2.5-2.2 4.4-4.7 4.3z"/>
   <path d="m64.4 53.2c-2.2 0-3.9-1.7-3.9-3.9s1.8-3.9 4-3.9 3.9 1.7 3.9 3.9c-0.1 2.2-1.8 3.9-4 3.9z"/>
   <path d="m107.3 76.8c0-2.2 1.7-3.9 3.9-4 2.2 0 3.9 1.7 3.9 3.9s-1.9 4.2-3.9 4.1c-2.1 0-3.8-1.8-3.9-4z"/>
   <path d="m59.8 20c0 2.2-1.7 3.9-3.9 3.9s-3.9-1.8-3.9-4 1.8-3.9 4.1-3.9c2.1 0.1 3.7 1.8 3.7 4z"/>
   <path d="m59.4 74.4c0 2.2-1.7 3.9-3.8 3.9-2.3 0-4-1.7-4-3.9s1.7-3.9 3.9-3.9c2.2-0.1 3.9 1.6 3.9 3.9z"/>
   <path d="m45.4 91.3c-2.2 0-4-1.7-4-3.9s1.8-4 4-4c2.1 0 3.9 1.8 3.9 3.9 0 2.3-1.7 4-3.9 4z"/>
   <path d="m102 71.8c0 2.3-1.7 3.9-3.9 3.9-2.1 0-3.9-1.9-3.9-4 0-2.2 1.8-3.9 4-3.9 2.1 0 3.8 1.8 3.8 4z"/>
   <path d="m81.7 65.6c2.3 0 3.9 1.6 3.9 3.9 0 2.2-1.7 4-3.9 3.9-2.2 0-4-1.8-4-3.9 0-2.2 1.7-3.9 4-3.9z"/>
   <path d="m38.3 96.3c0 2.2-1.8 3.9-3.9 3.9-2.2 0-3.9-1.7-3.9-3.9s1.8-4 3.9-4c2.1 0.1 3.9 1.9 3.9 4z"/>
   <path d="m58.2 37.8c-2.2 0-3.9-1.7-3.9-3.9 0-2.1 1.8-3.9 4-4 2.1-0.1 3.9 1.8 3.9 4-0.1 2.2-1.8 3.9-4 3.9z"/>
   <path d="m94.1 78.8c0 1.9-1.5 3.5-3.4 3.5s-3.3-1.5-3.3-3.4 1.5-3.4 3.3-3.4c1.9 0 3.4 1.5 3.4 3.3z"/>
   <path d="m56.4 64.5c0 1.9-1.5 3.4-3.4 3.4-1.7 0-3.4-1.7-3.4-3.4 0-1.8 1.6-3.5 3.5-3.4 1.8 0 3.3 1.5 3.3 3.4z"/>
   <path d="m32 83.1c1.9 0 3.4 1.5 3.3 3.4 0 1.8-1.6 3.4-3.4 3.4-1.9-0.1-3.4-1.7-3.4-3.5 0-2 1.5-3.4 3.5-3.3z"/>
   <path d="m74.2 55.4c-1.9 0-3.4-1.4-3.4-3.3s1.4-3.4 3.4-3.4c1.9 0 3.4 1.5 3.4 3.3 0 1.9-1.5 3.4-3.4 3.4z"/>
   <path d="m68 33.3c1.9 0 3.3 1.5 3.3 3.4s-1.5 3.4-3.4 3.4-3.4-1.5-3.4-3.5c0.1-1.8 1.6-3.3 3.5-3.3z"/>
   <path d="m46.2 77.5c0 1.9-1.5 3.4-3.3 3.5-1.8 0-3.4-1.7-3.4-3.5 0-1.9 1.5-3.3 3.4-3.3s3.3 1.4 3.3 3.3z"/>
   <path d="m74.4 73.3c1.9 0 3.3 1.5 3.3 3.4s-1.5 3.3-3.4 3.3c-2 0-3.4-1.5-3.4-3.4 0.1-1.9 1.6-3.4 3.5-3.3z"/>
   <path d="m107.3 83.8c0 2-1.4 3.5-3.4 3.4-1.9 0-3.3-1.5-3.4-3.4 0-1.8 1.5-3.4 3.3-3.4 1.9 0.1 3.5 1.6 3.5 3.4z"/>
   <path d="m65.8 19.4c1.9 0 3.3 1.4 3.3 3.3s-1.5 3.4-3.3 3.4c-1.9 0-3.4-1.5-3.4-3.4s1.5-3.3 3.4-3.3z"/>
   <path d="m76.2 27c0 1.6-1.3 2.9-3 2.8-1.6 0-2.8-1.3-2.8-2.9s1.3-2.9 2.9-2.9c1.7 0.1 3 1.4 2.9 3z"/>
   <path d="m28.9 77.6c0-1.6 1.3-2.8 2.9-2.8s3 1.4 2.9 3-1.4 2.9-2.9 2.9c-1.7-0.1-3-1.4-2.9-3.1z"/>
   <path d="m99.4 88.3c0 1.7-1.3 3-2.9 3s-3-1.3-3-2.9 1.3-2.9 3-2.9c1.6 0 2.8 1.2 2.9 2.8z"/>
   <path d="m45.6 68.9c0 1.6-1.3 2.9-2.9 2.9s-2.9-1.4-2.9-3 1.4-2.8 2.9-2.8c1.6 0 2.9 1.2 2.9 2.9z"/>
   <path d="m75.5 43.8c-1.7 0-2.9-1.3-2.9-2.9s1.3-2.8 2.9-2.8c1.7 0 2.9 1.2 2.9 2.9 0.1 1.6-1.1 2.8-2.9 2.8z"/>
   <path d="m83.3 80.5c1.6 0 2.8 1.2 2.8 2.9s-1.3 3-3 3c-1.6 0-2.8-1.3-2.8-2.9 0.1-1.8 1.4-3 3-3z"/>
   <path d="m35.7 70.5c0 1.4-1.1 2.5-2.5 2.5-1.3 0-2.6-1.2-2.5-2.6 0-1.4 1.2-2.5 2.6-2.5 1.4 0.1 2.5 1.2 2.4 2.6z"/>
   <path d="m91.9 90.7c0 1.4-1.1 2.5-2.5 2.5-1.3 0-2.5-1.2-2.5-2.5 0-1.4 1.2-2.5 2.6-2.5s2.4 1.1 2.4 2.5z"/>
   <path d="m78.8 29.5c1.5 0 2.6 1 2.6 2.5 0 1.4-1.1 2.5-2.5 2.5s-2.5-1-2.5-2.4c-0.1-1.6 0.9-2.6 2.4-2.6z"/>
  </g>
  <path class="st0" d="m870.32 233.2-8.0808-37.132c-0.067-0.20035-0.1336-0.33392-0.2004-0.53427l-17.03-23.174c-0.067-0.13356-0.2004-0.20035-0.2672-0.26713-0.1335-0.0668-0.2671-0.13357-0.4007-0.20035-0.1335-0.0668-0.2671-0.0668-0.4007-0.0668-0.1335 0-0.2671 0-0.4007 0.0668-0.1335 0.0668-0.2671 0.13356-0.4007 0.20035-0.067 0.0668-0.2003 0.13357-0.2671 0.26713l-16.963 23.174c-0.067 0.0668-0.067 0.13357-0.1335 0.13357v0.0668c-0.067 0.13357-0.067 0.20035-0.1336 0.33392l-8.2144 37.532v0.0668 0.53427c0 0.13356 0.067 0.20035 0.1336 0.26713 0.1335 0.20035 0.2671 0.4007 0.4675 0.53427l25.177 15.828c0.067 0.0668 0.2004 0.0668 0.2671 0.13357 0.1336 0.0668 0.2672 0.0668 0.4675 0.0668 0.1336 0 0.2672 0 0.4675-0.0668 0.067 0 0.2004-0.0668 0.2672-0.13357l24.977-15.694c0.2671-0.13357 0.5342-0.33392 0.7346-0.60106 0.2003-0.4007 0.2003-0.93497-0.067-1.3357zm-4.4077-7.8137-8.2144-14.425 3.0052-9.4165zm-20.636-48.151 14.158 19.367-3.5396 11.153-10.619-18.633zm-1.3357 14.96 10.819 19.1-6.7452 21.237h-8.1476l-6.7451-21.304zm-1.3356-14.96v11.888l-10.619 18.699-3.5396-11.22zm-15.36 24.242 3.0053 9.4833-8.2812 14.559zm4.0738 12.956 5.7434 18.098h-16.028zm-7.9472 20.77h14.559l3.6063 11.42zm20.569 10.084-3.2056-10.084h6.4113zm2.4042 1.3357 3.6064-11.42h14.559zm4.4746-14.091 5.7434-18.165 10.285 18.165z" stroke-width=".66784"/>
  <g transform="matrix(.41047 0 0 .41047 1265.2 237.85)">
   <path d="m64.1 72.2c-14-14-27.8-27.7-41.7-41.7v53.7c-0.5 0-0.9 0.1-1.2 0.1h-16.9c-0.8 0-1.2-0.2-1.4-1-2.3-7.7-3.3-15.5-2.7-23.6 1-13.6 5.7-25.8 14.5-36.3 9.7-11.7 22-19.2 37-22.1 19.8-3.8 37.8 0.8 53.4 13.7 11.9 9.8 19.1 22.5 21.9 37.7 1.9 10.3 1.1 20.4-1.9 30.4-0.3 0.8-0.6 1.1-1.5 1.1h-16.9-1.1v-53.6c-13.8 14-27.6 27.7-41.5 41.6z"/>
   <path d="m9.4 97.2h26.8v-33.8l27.7 27.7c9.3-9.3 18.5-18.4 27.8-27.7v33.7h27c-5.3 8.5-11.9 15.4-20.2 20.7-8.2 5.3-17.2 8.6-26.9 9.7-29.5 3.5-52.4-13.2-62.2-30.3z"/>
  </g>
  <g transform="matrix(.58598 0 0 .58598 1120.9 177.01)">
   <path d="m59.5 8.5c5-0.1 9.6 0.8 13.7 3.6 1.8 1.2 3.3 1 4.8-0.6 3.3-3.5 6.7-6.7 10.1-10.1 1.2-1.4 2.3-2.1 3.9-0.4 1.4 1.5 1 2.6-0.3 3.9-3.4 3.4-6.7 7-10.2 10.4-1.5 1.5-1.7 2.6-0.6 4.5 7.7 13.9 3.9 30.2-11.5 37.6-1.5 0.7-3.1 1-4.7 1.4-1.8 0.4-2.6 1.4-2.5 3.3 0.1 4 0.1 8 0 11.9-0.1 2.1 0.6 3.1 2.8 3.6 8.3 2 14.1 7 17.8 14.6 3.5 7.4 2.6 20.6-5 28.5-6.4 6.5-17.7 9.3-26.1 5.9-10-4-16.2-12.8-16.3-23.4-0.1-12.8 6.8-22 19.2-25.4 1.8-0.5 2.9-1.4 2.9-3.4-0.1-4.5 0-9.1-0.2-13.6 0-0.8-1.5-1.9-2.5-2.2-8-2.1-13.9-6.9-17.2-14.5-8-17.4 5.3-36.6 21.9-35.6zm20.3 93.9c0-10.5-9.2-20.2-19.4-20.2-10.7-0.2-20.4 9.3-20.6 20-0.1 10.6 9.8 20.8 20 20.7 10.8-0.1 20.1-9.6 20-20.5zm-39.7-69.2c0 11.5 8.9 20.8 20 20.8 10.3 0 19.8-9.6 19.7-20.2 0-10-7.4-20.3-19.7-20.1-11.1 0.3-19.9 8.6-20 19.5z" fill="#fff"/>
  </g>
  <g transform="matrix(.6013 0 0 .6013 1059.3 65.764)">
   <path d="m2.6 84c0.9-1.4 1.7-2.6 2.6-4l1.5 0.9c18.8 12.1 37.7 24.2 56.5 36.4 1.1 0.7 1.8 0.8 2.9 0 17.9-11.6 35.9-23.1 53.9-34.6 2.1-1.3 3.2-3 3.1-5.5s0-5 0-7.9c-0.7 0.4-1.3 0.7-1.8 1-18 11.5-36 22.9-54 34.4-2.2 1.4-4.1 1.5-6.3 0.1-18.3-11.7-36.6-23.4-55-34.9-4-2.5-6-5.8-5.8-10.6 0.2-3.5 0-7 0-10.5 0-1.6 0.6-2.8 2-3.7 19.8-13.1 39.8-26.1 59.7-39.1 0.8-0.5 1.6-1.2 2.5-1.3 1.1-0.1 2.4 0.1 3.2 0.7 19.4 12.3 38.8 24.6 58.2 37 3 1.9 2.8 5.1-0.3 7-14.9 9.4-29.8 18.8-44.7 28.2-4.4 2.8-8.8 5.4-13.1 8.3-2.1 1.4-3.9 1.4-6.1 0-18.2-11.5-36.6-23-54.9-34.5-0.5-0.3-1-0.6-1.7-1 0 3.8-0.1 7.4 0 11 0.1 1.8 1.4 3 2.9 3.9l43.5 27.6c3.8 2.4 7.5 4.7 11.2 7.2 0.9 0.6 1.6 0.6 2.6 0 18.4-11.8 36.9-23.6 55.4-35.3 0.5-0.3 1-0.7 1.5-0.9 2.7-1.3 5.6 0.3 5.7 3.3 0.1 3.9 0.1 7.8 0 11.7-0.1 3.4-1.9 5.8-4.8 7.6-12.2 7.8-24.4 15.6-36.6 23.5-6.4 4.1-12.9 8.2-19.3 12.4-1.8 1.2-3.4 1.2-5.2 0-19.4-12.6-39-25.2-58.5-37.8-0.3-0.1-0.5-0.3-0.8-0.6zm6-37.4c0.4 0.4 0.8 0.6 1.1 0.9 18 11.3 36 22.6 53.9 33.9 0.9 0.6 1.5 0.4 2.3-0.1 18.2-11.5 36.4-23 54.6-34.4 0.4-0.3 0.9-0.6 1.4-1-0.4-0.3-0.6-0.5-0.9-0.7-18.2-11.6-36.4-23.2-54.7-34.8-1-0.7-1.7-0.3-2.5 0.2-12.4 8.1-24.9 16.3-37.3 24.4-6 3.8-11.9 7.7-17.9 11.6z" fill="#fff"/>
  </g>
  <g transform="matrix(1.2869 0 0 1.2869 896.52 65.867)" data-name="Layer 2">
   <g fill="#fff" data-name="Layer 1">
    <path class="cls-1" d="m18.9 0-4 2.3-10.9 6.3-4 2.3v21.8l4 2.3 11 6.3 4 2.3 4-2.3 10.8-6.3 4-2.3v-21.8l-4-2.3-10.9-6.3zm-10.9 28.1v-12.6l10.9-6.3 10.9 6.3v12.6l-10.9 6.3z" fill="#fff"/>
   </g>
  </g>
  <path class="cls-2" d="m910.84 319.81a3.8256 3.8256 0 1 1-3.8262 3.8256 3.8262 3.8262 0 0 1 3.8262-3.8256zm9.2362 0a3.8256 3.8256 0 1 1-3.8265 3.8256 3.8262 3.8262 0 0 1 3.8265-3.8256zm0 16.094a3.8256 3.8256 0 1 1-3.8265 3.8256 3.8259 3.8259 0 0 1 3.8265-3.8256zm-9.2362 0a3.8256 3.8256 0 1 1-3.8262 3.8256 3.8259 3.8259 0 0 1 3.8262-3.8256zm-4.7499-7.9151a3.8256 3.8256 0 1 1-3.8262 3.8256 3.8262 3.8262 0 0 1 3.8262-3.8256zm18.736 0a3.8256 3.8256 0 1 1-3.8265 3.8256 3.8259 3.8259 0 0 1 3.8265-3.8256zm4.3541-6.5956a2.3745 2.3745 0 1 1-2.3751 2.3745 2.3745 2.3745 0 0 1 2.3751-2.3745zm0 15.83a2.3745 2.3745 0 1 1-2.3751 2.3745 2.3745 2.3745 0 0 1 2.3751-2.3745zm-27.444 0a2.3745 2.3745 0 1 1-2.3748 2.3745 2.3748 2.3748 0 0 1 2.3748-2.3745zm0-15.83a2.3745 2.3745 0 1 1-2.3748 2.3745 2.3748 2.3748 0 0 1 2.3748-2.3745zm13.722-7.9152a2.3745 2.3745 0 1 1-2.3751 2.3745 2.3745 2.3745 0 0 1 2.3751-2.3745zm0 31.66a2.3745 2.3745 0 1 1-2.3751 2.3745 2.3745 2.3745 0 0 1 2.3751-2.3745zm10.16 2.3745a1.9787 1.9787 0 1 1-1.9793 1.9787 1.9787 1.9787 0 0 1 1.9793-1.9787zm-20.319 0a1.9787 1.9787 0 1 1-1.9793 1.9787 1.9787 1.9787 0 0 1 1.9793-1.9787zm0-35.617a1.9787 1.9787 0 1 1-1.9793 1.9787 1.9787 1.9787 0 0 1 1.9793-1.9787zm20.319 0a1.9787 1.9787 0 1 1-1.9793 1.9787 1.9787 1.9787 0 0 1 1.9793-1.9787zm10.291 17.677a1.9787 1.9787 0 1 1-1.979 1.9787 1.979 1.979 0 0 1 1.979-1.9787zm-40.903 0a1.9787 1.9787 0 1 1-1.979 1.9787 1.9787 1.9787 0 0 1 1.979-1.9787zm-1.4514-12.137a1.5832 1.5832 0 1 1-1.5832 1.5829 1.5832 1.5832 0 0 1 1.5832-1.5829zm0 25.328a1.5832 1.5832 0 1 1-1.5832 1.5829 1.5832 1.5832 0 0 1 1.5832-1.5829zm43.805 0a1.5832 1.5832 0 1 1-1.5832 1.5829 1.5832 1.5832 0 0 1 1.5832-1.5829zm0-25.328a1.5832 1.5832 0 1 1-1.5832 1.5829 1.5832 1.5832 0 0 1 1.5832-1.5829zm-21.902-12.664a1.5832 1.5832 0 1 1-1.5835 1.5829 1.5829 1.5829 0 0 1 1.5835-1.5829zm0 50.656a1.5832 1.5832 0 1 1-1.5835 1.5832 1.5832 1.5832 0 0 1 1.5835-1.5832zm13.986-1.0553a1.3192 1.3192 0 1 1-1.3192 1.3192 1.3192 1.3192 0 0 1 1.3192-1.3192zm-27.972 0a1.3192 1.3192 0 1 1-1.3192 1.3192 1.3192 1.3192 0 0 1 1.3192-1.3192zm0-48.016a1.3192 1.3192 0 1 1-1.3192 1.3192 1.3192 1.3192 0 0 1 1.3192-1.3204zm27.972 0a1.3192 1.3192 0 1 1-1.3192 1.3192 1.3192 1.3192 0 0 1 1.3192-1.3204zm13.722 24.008a1.3192 1.3192 0 1 1-1.3192 1.3186 1.3192 1.3192 0 0 1 1.3192-1.3192zm-55.416 0a1.3192 1.3192 0 1 1-1.3192 1.3186 1.3192 1.3192 0 0 1 1.3192-1.3192z" stroke-width=".30237" data-name=" 6  29"/>
  <path class="st0" d="m1203.7 314.59c-10.404 0.0418-18.828 8.4657-18.87 18.87 0 2.0836 0.3363 4.1533 0.995 6.1294 0.4916 1.3453 1.9503 2.0697 3.3194 1.6537 1.3234-0.50747 2.0259-1.9542 1.604-3.3075-0.5592-1.5403-0.8079-3.1742-0.7343-4.81 0.2269-7.5145 6.5015-13.423 14.016-13.196 7.5144 0.22686 13.423 6.5015 13.196 14.016-0.2129 7.0349-5.7532 12.748-12.78 13.176 0 0-2.6488 0.1612-3.9662 0.3224-0.4856 0.0696-0.9672 0.16516-1.4428 0.28656-0.068 0.0697-0.1771 0.0697-0.2468 2e-3v-2e-3c-0.048-0.0617-0.048-0.14926 0-0.21095l0.41-2.2368 2.4876-11.188c0.2984-1.397-0.5911-2.7722-1.9881-3.0707-1.3971-0.29851-2.7722 0.59104-3.0707 1.9881 0 0-5.9164 27.385-5.9164 27.634-0.3383 1.3314 0.4657 2.6846 1.797 3.0229 0.014 4e-3 0.03 8e-3 0.044 0.01h0.1373c1.3293 0.34428 2.6866-0.45573 3.0288-1.7851 0.01-0.0219 0.012-0.0438 0.016-0.0677v-0.12339c0.074-0.32238 0.8199-3.9662 0.8199-3.9662 0.5652-2.7503 2.7821-4.8577 5.5563-5.2836 0.5711-0.0875 2.9711-0.24875 2.9711-0.24875 10.364-1.0328 17.928-10.273 16.894-20.637-0.9432-9.4528-8.7741-16.73-18.275-16.977z" stroke-width=".019901"/>
  <path class="st1" d="m1190 369.41c1.6991-0.35371 3.3603 0.73724 3.7141 2.4343 0.01 0.0159 0.01 0.0318 0.01 0.0477 0.3677 1.6871-0.7015 3.3543-2.3905 3.722 0 0-0.01 0-0.01 2e-3h-0.087c-1.6532 0.39942-3.3165-0.61801-3.714-2.2694-0.01-0.0119-0.01-0.0258-0.01-0.0378v-0.17289c-0.2922-1.705 0.7968-3.3404 2.4839-3.7259z" stroke-width=".019872"/>
 </g>
 <path d="m337.5 1.1465 263.47 9.2065 1.3782 52.937v323h-27.81v-196.52l-212.36-167.65z" fill="#111" style="paint-order:stroke fill markers"/>
</svg>
